{"glyphs":{"0":{"ha":1419,"x_min":69,"x_max":1350,"o":"m 69 699 q 122 978 69 849 q 262 1203 174 1108 q 466 1351 350 1297 q 710 1406 582 1406 q 953 1351 838 1406 q 1158 1203 1069 1297 q 1298 978 1246 1108 q 1350 699 1350 849 q 1298 419 1350 549 q 1158 194 1246 289 q 953 46 1069 100 q 710 -8 838 -8 q 466 46 582 -8 q 262 194 350 100 q 122 419 174 289 q 69 699 69 549 m 214 703 q 253 481 214 585 q 360 301 293 378 q 518 181 428 225 q 710 136 608 136 q 901 181 811 136 q 1060 301 992 225 q 1167 481 1128 378 q 1207 703 1207 585 q 1167 924 1207 821 q 1060 1104 1128 1028 q 901 1225 992 1181 q 710 1269 811 1269 q 518 1225 608 1269 q 360 1104 428 1181 q 253 924 293 1028 q 214 703 214 821 z "},"1":{"ha":293,"x_min":68,"x_max":218,"o":"m 218 1382 l 218 0 l 68 0 l 68 1382 l 218 1382 z "},"2":{"ha":949,"x_min":69,"x_max":879,"o":"m 86 85 q 113 120 104 99 q 140 154 122 142 l 672 843 q 692 874 683 856 q 706 911 700 892 q 715 950 713 931 q 718 986 718 969 q 713 1026 718 1004 q 704 1063 707 1047 q 676 1135 696 1101 q 629 1192 657 1168 q 566 1229 601 1215 q 490 1243 531 1243 q 405 1235 446 1243 q 329 1208 364 1226 q 269 1158 294 1189 q 229 1082 243 1126 q 222 1046 226 1069 q 210 1008 218 1022 q 208 1007 210 1007 q 207 1006 207 1007 l 197 1006 l 185 1006 q 162 1006 178 1006 q 128 1006 146 1006 q 93 1008 110 1007 q 71 1008 76 1008 q 70 1021 71 1011 q 69 1033 69 1031 q 88 1137 69 1088 q 137 1228 106 1186 q 210 1303 168 1269 q 300 1358 253 1336 q 373 1381 333 1374 q 447 1393 413 1388 l 476 1393 q 591 1376 535 1393 q 696 1330 647 1360 q 784 1257 744 1300 q 847 1161 824 1214 q 866 1085 863 1125 q 869 1004 869 1044 q 867 953 869 982 q 859 893 865 924 q 843 835 853 863 q 819 789 833 807 l 319 153 l 879 153 l 879 1 l 86 1 l 86 85 l 86 85 z "},"3":{"ha":1011,"x_min":69,"x_max":942,"o":"m 69 135 q 119 135 83 135 q 196 135 156 135 q 272 136 236 136 q 324 136 308 136 q 465 144 390 138 q 603 175 540 151 q 708 248 667 199 q 750 385 750 297 q 725 500 750 454 q 659 574 700 546 q 565 615 618 601 q 453 633 511 628 q 339 638 396 638 q 233 639 282 638 l 233 751 l 646 1243 l 69 1243 l 69 1388 l 942 1388 l 414 781 l 397 760 q 594 743 500 757 q 760 689 688 729 q 874 574 832 649 q 917 376 917 500 q 885 209 917 279 q 796 93 853 139 q 660 25 739 47 q 489 3 582 3 l 451 3 q 407 3 438 3 q 339 5 376 4 q 260 6 301 6 q 181 8 218 7 q 113 9 143 8 q 69 10 83 10 l 69 135 z "},"4":{"ha":806,"x_min":69,"x_max":736,"o":"m 71 553 q 70 599 71 578 q 83 639 69 619 l 564 1374 l 571 1388 l 736 1388 l 736 1382 q 733 1374 735 1379 q 729 1365 731 1368 l 290 697 l 567 697 l 567 775 l 736 775 l 736 1 l 567 1 l 567 553 l 71 553 z "},"5":{"ha":985,"x_min":69,"x_max":915,"o":"m 69 133 q 119 133 83 133 q 196 134 156 133 q 272 135 236 135 q 324 135 308 135 q 465 143 390 136 q 603 174 539 150 q 708 247 667 197 q 750 383 750 296 q 724 502 750 456 q 652 576 697 549 q 549 615 607 604 q 428 628 490 626 q 361 631 408 629 q 260 635 314 633 q 159 637 207 636 q 92 638 111 638 l 92 1385 l 826 1385 l 826 1246 l 256 1246 l 256 758 q 409 756 331 757 q 561 747 488 756 q 699 716 635 738 q 812 652 764 694 q 888 542 860 610 q 915 375 915 475 q 883 208 915 278 q 794 92 851 138 q 659 24 738 46 q 489 1 581 1 l 451 1 q 407 1 438 1 q 339 2 376 1 q 260 3 301 3 q 181 5 218 4 q 113 6 143 6 q 69 8 83 7 l 69 133 z "},"6":{"ha":906,"x_min":69,"x_max":836,"o":"m 379 750 l 363 729 l 371 729 q 413 733 392 729 q 456 736 433 736 q 599 707 531 736 q 721 628 668 678 q 805 510 774 578 q 836 368 836 443 q 804 224 836 292 q 719 107 772 157 q 597 28 667 57 q 453 0 528 0 q 306 29 375 0 q 184 108 236 58 q 101 226 132 158 q 69 372 69 294 q 94 499 69 438 q 160 610 119 560 l 675 1389 l 836 1389 l 379 750 m 717 374 q 697 472 717 426 q 642 552 676 518 q 560 606 607 586 q 461 625 514 625 q 362 606 408 625 q 281 553 315 586 q 226 474 246 519 q 206 374 206 428 q 226 273 206 319 q 281 193 246 226 q 362 140 315 160 q 461 121 408 121 q 560 140 514 121 q 642 194 607 160 q 697 274 676 228 q 717 374 717 321 z "},"7":{"ha":1146,"x_min":69,"x_max":1076,"o":"m 69 1263 l 69 1390 l 1076 1390 l 226 -1 l 69 -1 l 831 1263 l 69 1263 z "},"8":{"ha":982,"x_min":69,"x_max":913,"o":"m 69 401 q 105 566 69 489 q 207 701 140 643 q 252 733 231 721 q 296 761 274 744 q 299 764 299 761 q 295 770 299 767 q 290 775 292 774 q 183 896 219 833 q 146 1050 146 958 q 173 1183 146 1122 q 247 1290 200 1244 q 357 1360 294 1335 q 490 1386 419 1386 q 625 1361 561 1386 q 736 1292 689 1336 q 811 1185 783 1247 q 839 1050 839 1124 q 809 909 839 968 q 721 794 779 850 q 699 779 715 789 q 683 765 683 769 l 683 764 q 685 763 683 763 l 686 761 q 730 735 708 747 q 771 704 751 722 q 875 567 838 643 q 913 399 913 490 q 878 237 913 311 q 788 109 844 163 q 654 25 731 56 q 493 -6 578 -6 q 328 25 406 -6 q 194 110 251 56 q 103 238 136 164 q 69 401 69 313 m 196 413 q 219 292 196 347 q 281 198 242 238 q 376 135 321 158 q 496 113 431 113 l 536 113 q 638 148 592 122 q 717 211 683 174 q 769 297 750 249 q 788 403 788 346 q 765 512 788 460 q 702 603 742 564 q 610 667 663 643 q 500 690 558 690 q 413 678 456 690 q 332 644 369 667 q 265 588 294 621 q 218 511 235 554 q 203 463 210 488 q 196 413 196 438 m 279 1051 q 296 968 279 1007 q 341 900 313 929 q 408 854 369 871 q 492 838 447 838 q 574 854 535 838 q 642 899 613 871 q 690 967 672 928 q 707 1050 707 1006 q 690 1132 707 1093 q 643 1201 672 1171 q 574 1248 614 1231 q 492 1265 535 1265 q 410 1248 449 1265 q 342 1201 371 1231 q 296 1132 313 1171 q 279 1051 279 1093 z "},"9":{"ha":906,"x_min":69,"x_max":836,"o":"m 526 639 l 543 660 l 535 660 q 493 656 514 660 q 450 653 472 653 q 306 682 375 653 q 185 761 238 711 q 101 878 132 811 q 69 1021 69 946 q 101 1165 69 1097 q 186 1282 133 1232 q 308 1360 239 1332 q 453 1389 378 1389 q 599 1360 529 1389 q 722 1281 669 1331 q 805 1163 774 1231 q 836 1017 836 1094 q 811 890 836 951 q 746 779 786 829 l 231 0 l 69 0 l 526 639 m 189 1015 q 209 917 189 963 q 264 837 229 871 q 345 783 299 803 q 444 764 392 764 q 544 783 497 764 q 625 836 590 803 q 680 915 660 869 q 700 1015 700 961 q 680 1116 700 1069 q 625 1196 660 1163 q 544 1249 590 1229 q 444 1268 497 1268 q 345 1249 392 1268 q 264 1195 299 1229 q 209 1115 229 1161 q 189 1015 189 1068 z "}," ":{"ha":694,"x_min":0,"x_max":0,"o":""},"'":{"ha":357,"x_min":68,"x_max":288,"o":"m 106 1040 q 96 1049 97 1046 q 72 1095 76 1071 q 74 1147 68 1119 q 77 1156 76 1151 q 81 1167 78 1161 q 90 1186 85 1176 q 99 1206 94 1196 q 101 1213 101 1208 q 110 1223 104 1214 q 119 1236 117 1232 q 135 1257 126 1247 q 156 1276 144 1267 q 168 1288 164 1285 q 172 1289 169 1286 q 176 1292 175 1292 l 176 1293 q 199 1306 186 1300 q 224 1308 211 1311 q 240 1306 232 1308 q 253 1299 247 1303 q 263 1292 258 1296 q 278 1265 274 1281 q 285 1235 282 1250 l 285 1233 q 283 1231 285 1232 q 286 1229 285 1231 l 286 1224 l 286 1200 q 283 1158 288 1182 l 283 1154 q 283 1149 282 1151 q 282 1142 282 1146 q 276 1122 279 1132 q 269 1103 272 1111 q 256 1074 263 1088 q 240 1049 250 1060 q 238 1046 239 1046 q 235 1043 236 1046 q 206 1022 222 1029 q 196 1022 200 1021 q 188 1019 192 1022 q 174 1017 181 1017 q 161 1018 168 1018 l 160 1018 q 129 1026 146 1019 q 125 1028 128 1026 q 121 1029 122 1029 q 115 1033 118 1032 q 108 1038 113 1035 q 106 1040 108 1040 z "},"+":{"ha":924,"x_min":69,"x_max":854,"o":"m 854 767 l 854 624 l 69 624 l 69 767 l 854 767 m 569 263 l 426 263 l 425 1047 l 568 1047 l 569 263 z "},",":{"ha":357,"x_min":68,"x_max":288,"o":"m 106 7 q 96 15 97 13 q 72 62 76 38 q 74 114 68 86 q 77 123 76 118 q 81 133 78 128 q 90 153 85 143 q 99 172 94 163 q 101 179 101 175 q 110 190 104 181 q 119 203 117 199 q 135 224 126 214 q 156 243 144 233 q 168 254 164 251 q 172 256 169 253 q 176 258 175 258 l 176 260 q 199 272 186 267 q 224 275 211 278 q 240 272 232 275 q 253 266 247 269 q 263 258 258 263 q 278 232 274 247 q 285 201 282 217 l 285 200 q 283 197 285 199 q 286 196 285 197 l 286 190 l 286 167 q 283 125 288 149 l 283 121 q 283 115 282 118 q 282 108 282 113 q 276 88 279 99 q 269 69 272 78 q 256 40 263 54 q 240 15 250 26 q 238 13 239 13 q 235 10 236 13 q 206 -11 222 -4 q 196 -12 200 -12 q 188 -14 192 -11 q 174 -16 181 -17 q 161 -15 168 -15 l 160 -15 q 129 -7 146 -14 q 125 -6 128 -7 q 121 -4 122 -4 q 115 0 118 -1 q 108 4 113 1 q 106 7 108 7 z "},".":{"ha":338,"x_min":69,"x_max":268,"o":"m 139 6 q 133 8 136 7 q 126 10 129 8 q 88 44 101 24 q 71 93 75 65 q 70 103 71 99 q 69 114 69 108 q 70 135 69 125 q 72 157 71 146 l 72 164 q 76 177 74 167 q 79 193 78 188 q 87 219 82 207 q 99 243 92 231 q 107 258 104 254 q 110 262 108 258 q 113 265 111 265 l 113 267 q 128 286 119 276 q 150 299 138 296 q 167 301 161 301 q 193 297 181 301 q 217 278 208 290 q 233 253 226 265 l 233 251 q 235 249 233 250 q 238 247 236 249 l 239 243 q 244 232 240 240 q 249 221 247 224 q 261 181 257 203 l 263 178 q 264 172 263 175 q 265 165 264 168 q 268 144 268 156 q 268 124 268 133 q 267 93 268 108 q 261 63 265 78 q 260 59 261 60 q 258 56 258 58 q 251 40 256 49 q 239 26 246 32 q 231 22 235 24 q 222 17 226 19 q 211 10 217 13 q 199 6 206 8 l 197 6 q 167 1 182 1 l 157 1 q 151 3 154 3 q 143 4 147 3 q 139 6 142 6 z "},"<":{"ha":1192,"x_min":69,"x_max":1122,"o":"m 1121 1239 l 292 706 q 288 703 290 706 q 285 700 286 701 l 285 697 l 285 694 l 292 688 q 327 664 301 681 q 382 628 353 647 q 437 591 411 608 q 474 567 463 574 q 483 558 475 564 q 494 550 492 551 l 1114 142 l 1113 1 l 69 699 l 1122 1379 l 1121 1239 z "},"=":{"ha":924,"x_min":69,"x_max":854,"o":"m 854 1017 l 854 874 l 69 874 l 69 1017 l 854 1017 m 854 767 l 854 624 l 69 624 l 69 767 l 854 767 z "},">":{"ha":1192,"x_min":69,"x_max":1122,"o":"m 69 1379 l 1122 699 l 79 1 l 78 142 l 697 550 q 708 558 700 551 q 718 567 717 564 q 754 591 728 574 q 810 628 781 608 q 865 664 839 647 q 900 688 890 681 l 907 694 l 907 697 l 907 700 q 903 703 906 701 q 900 706 901 706 l 71 1239 l 69 1379 z "},"?":{"ha":949,"x_min":0,"x_max":947,"o":"m 788 1239 q 752 1155 788 1186 q 671 1106 717 1124 l 525 1050 q 508 1024 511 1044 q 506 993 506 1004 q 518 942 506 967 q 540 894 531 918 q 550 835 550 869 q 542 763 550 799 q 522 693 533 728 l 522 679 q 524 655 522 667 q 542 643 526 643 q 575 648 558 643 q 608 653 592 653 q 649 640 636 653 q 663 597 663 628 q 653 556 663 578 q 621 535 644 535 q 607 537 614 535 q 593 539 600 539 q 589 535 589 539 q 593 531 589 531 q 600 531 597 531 q 658 532 628 531 q 715 544 689 533 q 755 566 740 556 q 797 575 769 576 q 838 594 817 583 q 871 622 858 604 q 880 642 874 628 q 897 657 886 657 q 910 644 910 657 q 903 613 910 624 q 885 594 896 601 q 860 582 874 588 q 832 568 846 576 q 805 549 817 561 q 776 535 793 538 q 758 531 772 533 q 739 528 743 529 l 597 479 q 606 467 603 469 q 619 461 610 464 q 786 449 703 446 q 797 445 793 446 q 808 444 801 444 l 817 444 q 827 446 818 444 q 846 449 836 447 q 864 453 856 451 q 875 456 872 456 q 906 459 892 458 q 938 465 921 460 q 947 450 947 463 q 946 444 947 447 q 931 437 943 442 q 915 429 918 432 q 907 424 913 428 q 899 421 901 421 l 817 421 q 801 415 808 421 q 786 408 794 408 l 785 408 q 771 410 781 408 q 750 415 761 413 q 729 420 739 418 q 715 422 719 422 q 701 424 713 424 q 688 425 690 425 q 678 427 686 425 q 668 429 671 429 l 660 429 q 633 425 646 429 q 607 421 621 421 q 601 413 601 415 q 606 403 601 407 q 613 397 610 400 q 628 387 617 394 q 653 371 640 379 q 676 356 665 363 q 692 346 688 349 q 726 330 708 335 q 758 315 743 325 q 771 304 767 310 q 782 292 775 299 q 818 276 800 282 q 853 261 836 269 q 873 256 860 258 q 886 243 886 254 q 873 228 886 229 q 850 228 860 228 q 824 238 836 228 q 801 256 813 249 q 769 265 786 264 q 739 276 753 267 q 706 302 724 288 q 667 330 688 317 q 626 352 647 343 q 583 361 604 361 q 576 358 582 361 l 576 350 q 579 328 576 339 q 583 307 582 318 l 617 243 q 620 238 618 242 q 624 233 622 235 q 631 224 625 231 q 644 211 638 218 q 656 198 650 204 q 664 189 661 192 q 673 171 668 181 q 686 154 678 161 q 708 138 693 150 q 725 125 722 126 q 751 117 735 118 q 768 100 768 115 q 756 82 768 88 q 735 76 744 76 q 716 83 722 76 q 703 99 710 90 q 688 115 699 103 q 674 131 676 128 q 649 146 663 142 q 626 163 636 150 q 618 178 624 167 q 606 201 613 189 q 594 223 600 213 q 588 238 589 233 q 566 273 579 251 q 540 315 553 294 q 517 352 528 336 q 506 369 507 368 l 503 371 q 493 359 500 364 q 479 354 486 354 l 475 354 q 468 356 474 354 q 461 358 463 358 l 460 358 q 452 351 457 358 q 442 334 447 343 q 433 316 438 325 q 426 304 428 307 q 419 292 424 300 q 408 276 414 285 q 398 260 403 268 q 392 251 393 253 q 374 210 381 232 q 357 167 368 188 q 344 152 353 157 q 329 139 336 147 q 281 51 299 99 q 273 44 279 47 q 260 40 267 42 q 246 37 253 38 q 236 36 239 36 q 226 41 229 36 q 222 53 222 46 q 228 64 222 58 q 243 76 235 69 q 260 88 251 82 q 272 101 268 94 q 279 111 274 104 q 290 126 285 118 q 301 142 296 135 q 308 153 306 150 q 313 172 311 161 q 319 190 314 182 q 333 207 325 200 q 347 224 340 214 q 353 233 350 226 q 357 243 356 239 q 363 258 358 247 q 373 280 368 268 q 382 303 378 292 q 388 318 386 314 q 392 329 390 322 q 394 343 394 336 q 388 349 394 346 q 378 351 381 351 q 331 338 356 351 q 290 311 306 325 q 281 303 289 310 q 265 289 274 296 q 249 275 257 282 q 239 267 240 268 q 206 247 225 254 q 171 233 186 240 q 168 232 169 232 q 164 231 167 232 l 158 228 q 140 214 154 225 q 124 200 126 203 q 108 193 119 196 q 92 190 97 190 q 78 204 78 190 q 89 219 78 211 q 114 234 100 226 q 142 247 128 242 q 160 256 156 253 q 172 263 164 258 q 182 268 181 267 q 189 274 183 269 q 199 284 194 279 q 209 294 204 289 q 215 300 214 299 q 233 308 224 306 q 250 315 242 310 q 288 347 271 329 q 325 379 306 364 q 344 390 332 386 q 356 403 356 393 q 340 417 356 415 q 314 418 324 418 l 310 418 q 294 415 306 417 q 271 409 283 413 q 247 403 258 406 q 231 399 235 400 q 208 390 218 396 q 185 383 197 383 q 154 386 169 383 q 124 389 139 389 q 89 384 106 389 q 54 379 72 379 l 50 379 l 6 390 q 0 401 0 392 q 14 417 0 413 l 47 417 q 83 415 65 417 q 119 413 100 413 q 152 418 138 413 q 183 426 167 424 q 191 427 185 426 q 205 429 197 428 q 219 431 213 431 q 226 432 225 432 q 241 434 231 432 q 263 439 251 436 q 287 444 275 442 q 304 449 299 447 q 319 453 307 449 q 338 460 332 457 q 347 474 347 461 q 343 479 347 476 l 219 521 q 200 524 210 525 q 182 531 190 524 q 174 540 175 533 q 168 551 174 547 q 148 564 160 560 q 125 574 136 568 q 105 585 117 578 q 83 603 93 593 q 65 626 72 614 q 57 649 57 638 q 64 657 57 654 q 74 660 71 660 q 85 652 81 660 q 93 642 90 644 l 136 599 q 175 575 153 582 q 192 572 185 572 q 210 567 200 571 q 249 544 232 556 q 296 532 267 532 l 304 532 q 289 560 293 549 q 285 590 285 571 q 299 637 285 625 q 350 649 313 649 q 377 644 364 649 q 404 639 390 639 q 419 649 414 639 q 424 681 422 664 q 428 713 425 697 q 431 720 429 715 q 432 728 432 725 q 436 738 433 729 q 443 758 439 747 q 450 776 447 768 q 454 788 453 785 q 458 814 458 800 q 458 842 458 828 q 453 883 458 863 q 441 922 447 903 q 429 962 435 942 q 424 1003 424 982 q 435 1054 424 1033 q 467 1089 447 1075 q 510 1113 486 1103 q 560 1129 535 1122 l 668 1178 q 699 1206 683 1185 q 714 1243 714 1226 q 690 1288 714 1274 q 640 1301 667 1301 q 568 1278 599 1301 q 506 1231 538 1254 q 392 1192 456 1192 q 326 1200 360 1192 q 265 1225 293 1208 q 260 1229 264 1226 q 257 1235 257 1232 l 257 1236 q 261 1240 257 1240 l 263 1240 l 351 1217 q 362 1215 356 1215 q 374 1215 368 1215 q 448 1238 415 1215 q 511 1286 481 1260 q 574 1335 542 1313 q 650 1357 607 1357 q 747 1328 707 1357 q 788 1239 788 1300 z "},"@":{"ha":1186,"x_min":69,"x_max":1117,"o":"m 478 -10 q 476 4 478 -7 q 467 15 474 15 q 453 2 456 15 q 443 -11 450 -11 q 435 0 435 -11 q 435 7 435 3 q 436 14 436 11 q 435 18 436 18 l 429 14 q 427 6 429 13 q 425 -3 425 0 l 424 -6 q 422 -6 422 -6 q 421 -7 422 -7 l 418 -7 q 414 -7 417 -7 q 411 -4 411 -7 l 411 14 q 410 20 410 18 q 407 22 410 22 q 397 13 400 22 q 392 1 393 4 q 390 0 390 0 q 388 -1 389 0 q 380 3 382 -1 q 378 11 378 7 q 379 19 378 15 q 381 26 381 22 q 373 23 375 26 q 370 16 371 19 q 368 9 369 13 q 363 6 367 6 q 356 15 356 6 q 356 24 356 19 q 357 32 357 28 l 357 33 q 356 36 357 35 q 342 27 344 36 q 333 18 340 18 q 324 19 326 18 l 324 25 q 326 34 324 31 q 328 42 328 38 q 319 33 319 42 q 310 24 318 24 q 303 31 303 24 l 303 32 l 303 33 q 304 36 303 35 l 307 39 q 306 40 306 39 l 306 43 l 306 47 l 303 47 q 297 39 300 44 q 289 33 294 33 q 282 40 282 33 q 283 51 282 46 q 283 64 283 57 q 278 55 278 64 q 269 46 278 46 q 261 53 261 46 q 262 63 261 60 q 263 74 263 67 q 256 68 257 74 q 249 63 254 63 q 243 69 243 63 q 244 77 243 74 q 244 85 244 81 q 243 89 244 89 q 235 81 239 86 q 228 76 232 76 q 219 82 219 76 q 222 90 219 86 q 225 99 225 93 l 225 100 l 224 101 q 217 97 219 101 q 210 93 215 93 q 204 99 204 93 q 207 108 204 104 q 210 115 210 111 q 207 116 208 115 q 204 117 206 117 q 200 111 203 117 q 194 106 197 106 q 191 107 193 106 q 186 108 189 108 q 180 105 182 108 q 172 101 178 101 q 167 102 168 101 q 163 108 167 103 l 161 111 q 141 172 151 143 q 118 231 131 200 q 82 330 94 285 q 69 435 69 375 q 71 456 69 449 q 75 458 74 458 q 83 451 81 458 q 86 440 85 443 q 88 431 86 438 q 91 416 89 424 q 95 401 93 408 q 97 393 97 394 q 103 372 99 389 q 110 353 108 356 q 111 349 110 351 q 113 344 113 346 q 153 273 131 308 q 206 208 175 238 q 226 196 214 200 q 239 178 239 192 q 229 158 239 168 q 262 133 247 146 q 296 110 276 121 q 330 97 311 100 q 365 86 349 94 l 432 75 l 438 74 l 439 74 l 440 74 l 443 75 q 460 76 447 75 q 478 76 472 76 q 517 81 497 78 q 556 88 536 85 q 567 94 557 90 q 588 101 576 97 q 608 108 599 106 q 621 111 618 111 q 624 114 624 111 q 636 119 631 118 q 650 124 642 121 q 667 135 660 128 q 688 139 674 142 q 702 155 693 151 q 722 165 711 158 q 730 172 724 167 q 738 179 736 178 q 740 181 739 179 q 743 182 742 182 q 749 185 744 183 q 756 186 753 186 l 758 193 q 765 199 761 194 q 771 206 768 204 q 774 207 772 206 q 776 208 775 207 q 778 208 776 208 q 794 229 788 215 q 817 243 801 243 q 828 263 817 254 q 844 279 839 272 q 849 285 846 281 q 851 292 851 290 q 863 304 858 303 q 871 308 868 306 l 871 314 q 879 331 874 324 q 892 349 885 339 q 899 365 897 356 q 907 381 901 374 q 914 387 908 383 q 919 393 919 390 q 918 396 919 393 l 918 397 q 924 415 918 407 q 932 431 929 422 q 940 456 938 449 q 954 479 942 464 q 953 485 954 482 q 951 490 951 488 q 955 503 951 497 q 961 517 958 510 q 963 540 964 528 q 964 564 963 553 q 965 565 965 564 q 967 567 965 565 q 968 569 967 568 q 971 572 971 572 q 969 575 969 574 q 968 581 968 576 l 968 589 q 969 618 968 603 q 971 646 969 633 q 974 653 972 650 q 975 661 975 657 q 972 673 975 668 q 968 685 968 678 q 963 731 965 708 q 947 775 960 753 q 947 774 947 774 q 946 772 946 774 q 941 765 944 771 q 936 758 938 760 q 913 734 925 744 q 889 710 900 724 q 885 694 886 707 q 885 675 885 681 q 885 658 885 665 q 886 642 886 650 l 886 625 l 883 613 l 883 601 q 883 592 883 599 q 882 582 882 585 q 875 576 881 576 q 872 578 875 576 q 869 590 872 585 q 865 603 865 596 q 866 608 865 604 q 867 613 867 611 l 867 614 l 867 615 q 866 632 867 621 q 865 644 865 643 q 865 651 865 647 q 863 658 865 656 q 861 655 861 657 q 860 651 861 653 q 858 633 860 649 q 857 614 857 617 q 854 598 857 611 q 850 581 851 585 q 844 572 850 572 q 836 586 836 572 q 836 604 836 600 q 835 617 836 610 q 838 632 835 625 l 833 665 l 832 665 q 826 658 829 663 q 821 651 822 653 q 812 635 818 649 q 804 617 806 621 q 782 506 810 558 q 772 487 776 494 q 767 467 768 479 q 771 449 767 457 q 781 435 775 442 q 792 421 788 428 q 797 406 797 414 q 791 383 797 394 q 779 364 785 372 q 769 351 778 363 q 758 339 761 340 q 756 329 756 333 q 746 302 750 314 q 729 278 742 290 q 719 270 728 276 q 708 263 710 264 q 707 260 708 261 l 704 257 q 694 245 700 247 q 682 240 689 243 q 676 236 682 236 q 672 235 676 236 q 660 233 667 233 q 649 231 654 232 q 642 231 643 231 q 628 231 639 231 q 607 232 618 231 q 587 236 596 233 q 578 243 578 239 q 585 263 578 253 q 599 279 593 274 q 611 292 601 282 q 624 306 621 303 q 626 310 625 308 q 628 312 628 311 q 629 314 628 313 q 651 336 636 324 q 667 356 665 349 l 679 407 q 678 415 678 410 q 679 424 678 421 q 683 434 679 426 q 689 444 688 442 q 699 486 696 464 q 701 528 701 508 q 702 538 701 533 q 700 549 703 543 q 666 523 675 538 q 640 489 657 508 q 631 460 638 469 q 616 446 625 450 q 594 441 607 442 q 565 440 582 440 q 549 434 556 440 q 535 428 543 428 q 523 430 532 428 q 505 435 514 432 q 489 442 496 439 q 482 449 482 446 q 483 451 482 450 q 485 454 485 453 q 493 461 486 456 q 501 468 500 467 q 506 474 501 469 q 513 481 511 479 q 534 491 525 490 q 554 496 543 492 q 581 526 576 504 q 589 567 585 547 q 597 586 592 578 q 604 603 603 594 q 603 604 603 603 l 603 607 l 603 610 q 601 624 603 613 q 599 638 600 635 q 572 686 592 660 q 535 731 551 713 q 510 753 524 742 q 485 779 496 765 q 470 791 478 789 q 463 808 463 793 q 467 835 463 824 q 471 861 471 847 l 469 861 q 461 844 467 856 q 448 820 456 832 q 432 799 440 808 q 415 790 424 790 q 398 797 408 790 q 388 813 388 804 l 386 813 q 381 807 386 807 l 378 807 q 373 808 376 807 q 369 810 369 808 l 367 810 q 361 805 363 810 q 356 800 360 800 l 321 800 q 314 804 317 800 q 308 811 311 808 q 285 865 289 838 q 281 924 281 892 q 281 934 281 931 q 286 947 282 938 q 293 961 288 951 q 303 982 299 971 q 313 1003 308 993 q 321 1017 318 1013 q 333 1045 328 1032 q 344 1074 338 1058 q 382 1140 360 1104 q 429 1200 404 1176 q 424 1203 429 1203 q 399 1195 417 1203 q 376 1181 381 1188 q 369 1169 372 1175 q 360 1157 365 1163 q 342 1140 351 1147 q 324 1125 333 1133 q 308 1099 314 1114 q 289 1074 301 1083 q 277 1066 286 1071 q 265 1060 268 1061 q 261 1065 261 1061 q 266 1084 261 1074 q 276 1105 271 1094 q 287 1126 282 1115 q 292 1144 292 1136 q 292 1149 292 1146 q 289 1151 292 1151 l 288 1151 q 285 1149 286 1151 q 282 1147 283 1147 l 269 1121 q 258 1108 267 1114 q 243 1101 250 1101 l 243 1111 l 256 1138 l 256 1142 q 249 1151 256 1151 q 233 1148 242 1151 q 218 1142 224 1144 q 210 1131 215 1139 q 201 1124 204 1124 l 168 1124 l 156 1115 l 132 1115 q 130 1115 131 1115 q 128 1114 129 1114 l 124 1114 l 122 1114 l 121 1114 l 119 1115 q 124 1121 119 1119 q 129 1128 129 1122 q 124 1127 128 1128 q 118 1125 119 1126 l 117 1125 q 113 1128 113 1125 l 113 1129 q 126 1140 118 1136 q 140 1147 133 1143 q 169 1168 156 1157 q 201 1188 183 1179 q 203 1189 201 1189 q 206 1190 206 1189 q 216 1192 208 1190 q 225 1193 224 1193 q 237 1199 232 1194 q 249 1206 242 1203 q 266 1210 256 1208 q 282 1214 276 1213 q 312 1226 297 1217 q 342 1235 326 1235 l 376 1254 q 396 1263 382 1263 q 417 1264 410 1263 q 489 1285 454 1272 q 561 1301 524 1299 q 633 1339 597 1322 q 711 1356 669 1356 q 739 1352 726 1356 q 765 1339 751 1349 q 770 1365 765 1350 q 788 1379 775 1379 q 794 1376 793 1379 q 803 1367 797 1374 q 810 1360 808 1361 q 820 1351 814 1354 q 826 1339 826 1347 l 826 1335 q 814 1308 819 1322 q 808 1278 808 1294 q 810 1253 808 1265 q 811 1229 811 1240 q 807 1201 811 1215 q 801 1172 803 1188 l 801 1135 l 799 1124 l 800 1122 l 801 1122 q 815 1135 807 1125 q 828 1160 822 1146 q 840 1187 835 1174 q 847 1207 844 1200 q 851 1239 850 1222 q 857 1271 851 1256 q 861 1285 858 1274 q 865 1299 864 1296 q 872 1313 867 1301 q 878 1326 876 1324 q 883 1341 879 1331 q 892 1362 888 1351 q 901 1380 896 1372 q 914 1388 907 1388 q 923 1376 921 1388 q 928 1361 925 1364 q 939 1349 931 1354 q 947 1336 947 1343 q 942 1323 947 1329 q 933 1311 936 1317 q 917 1282 926 1300 q 908 1250 908 1264 q 915 1239 908 1246 q 922 1225 922 1232 q 916 1208 922 1214 q 907 1192 910 1201 q 906 1190 907 1190 q 906 1188 906 1189 l 906 1185 q 905 1177 906 1183 q 904 1169 904 1171 q 899 1148 903 1164 q 893 1128 894 1132 l 893 1126 q 898 1121 893 1124 q 904 1115 903 1118 l 904 1114 q 898 1096 904 1103 q 889 1081 892 1089 l 893 1081 q 902 1085 894 1081 q 913 1092 910 1089 q 929 1110 924 1099 q 942 1131 935 1121 q 975 1178 957 1154 q 1013 1225 993 1201 q 1021 1234 1017 1229 q 1032 1239 1025 1239 q 1040 1234 1036 1239 q 1048 1222 1044 1229 q 1053 1208 1051 1215 q 1056 1197 1056 1201 q 1042 1174 1056 1186 q 1024 1151 1029 1161 q 1006 1108 1013 1132 q 982 1068 999 1085 l 982 1067 q 986 1061 982 1065 q 990 1053 990 1057 q 978 1034 990 1042 q 967 1013 967 1026 q 993 1022 985 1013 q 1014 1031 1001 1031 q 1026 1017 1026 1031 q 1022 1005 1026 1010 q 1012 996 1017 1000 q 1002 987 1007 992 q 997 976 997 982 q 1002 971 997 972 q 1010 969 1007 969 q 1028 976 1021 969 q 1046 983 1036 983 q 1056 969 1056 983 l 1056 963 q 1033 947 1049 953 q 1018 926 1018 940 q 1024 922 1018 922 q 1032 921 1029 921 l 1035 921 q 1047 925 1038 922 q 1060 928 1057 928 l 1061 928 q 1069 923 1067 928 q 1071 914 1071 918 q 1065 901 1071 906 q 1051 893 1058 897 q 1036 883 1043 889 q 1026 869 1029 878 l 1031 869 q 1051 876 1043 869 q 1071 882 1060 882 q 1083 868 1083 882 q 1075 854 1083 857 q 1060 847 1067 851 q 1049 842 1057 846 q 1039 835 1042 838 q 1035 828 1039 832 l 1035 826 q 1038 823 1035 824 q 1043 822 1040 822 q 1065 830 1056 822 q 1088 838 1075 838 q 1092 838 1089 838 q 1096 836 1094 838 q 1100 831 1099 835 q 1101 825 1101 828 q 1094 810 1101 815 q 1076 799 1086 804 q 1059 786 1067 793 q 1051 768 1051 779 q 1056 765 1051 765 l 1061 765 q 1077 771 1069 765 q 1094 776 1085 776 q 1103 771 1101 776 q 1104 760 1104 765 l 1104 754 q 1092 746 1100 749 q 1078 740 1085 743 q 1066 731 1071 736 q 1061 718 1061 726 l 1061 715 q 1065 714 1063 715 q 1068 713 1067 713 q 1090 710 1076 710 q 1111 710 1104 710 q 1117 697 1117 706 q 1112 685 1117 689 q 1100 680 1107 682 q 1085 677 1093 678 q 1072 672 1078 676 q 1071 672 1071 672 q 1069 671 1071 671 q 1066 665 1068 668 q 1063 660 1064 661 l 1063 658 q 1069 658 1065 658 q 1074 657 1072 657 l 1075 657 q 1090 659 1078 657 q 1106 663 1103 661 l 1108 663 q 1113 661 1110 663 q 1117 657 1117 660 l 1117 643 q 1108 635 1117 636 q 1090 631 1100 633 q 1071 624 1079 629 q 1063 607 1063 619 q 1070 601 1063 601 q 1087 599 1078 600 q 1103 596 1096 599 q 1111 583 1111 593 q 1106 572 1111 576 q 1094 567 1101 568 q 1078 566 1090 567 q 1063 565 1065 565 q 1056 560 1060 563 q 1053 553 1053 558 q 1061 546 1053 546 l 1083 546 q 1090 533 1090 544 q 1080 515 1090 518 q 1058 515 1069 513 q 1050 509 1054 514 q 1046 501 1046 504 q 1051 495 1046 496 q 1063 494 1057 494 q 1075 490 1069 493 q 1081 479 1081 488 q 1073 466 1081 468 q 1056 463 1065 464 q 1038 460 1046 461 q 1031 450 1031 458 q 1038 442 1031 443 q 1049 441 1040 442 q 1061 440 1058 440 q 1068 428 1068 438 q 1054 413 1068 413 q 1046 413 1050 413 q 1039 414 1042 414 q 1024 410 1036 414 q 1013 401 1013 407 q 1017 388 1013 393 q 1026 380 1021 383 q 1035 373 1031 376 q 1039 364 1039 369 q 1026 350 1039 350 q 1014 355 1019 350 q 1001 360 1008 360 q 989 353 989 360 q 994 338 989 342 q 1003 333 999 335 q 1013 328 1008 331 q 1018 319 1018 326 q 1004 306 1018 306 q 988 310 994 306 q 975 314 982 314 q 964 308 968 314 l 964 300 q 974 285 964 289 q 983 272 983 281 q 980 260 983 265 q 971 256 976 256 q 956 263 961 256 q 939 269 950 269 q 935 268 936 269 l 935 260 q 939 247 935 251 q 948 240 943 243 q 957 233 953 236 q 961 222 961 229 q 947 210 961 210 q 929 220 936 210 q 911 231 922 231 q 902 223 904 231 q 900 210 900 215 q 906 194 900 200 q 913 181 913 189 q 909 173 913 178 q 900 168 906 168 q 885 180 890 168 q 872 192 879 192 l 871 192 q 870 187 871 190 q 869 182 869 183 l 867 178 q 880 167 869 171 q 890 153 890 164 q 876 139 890 139 q 859 149 865 139 q 842 160 853 160 l 840 160 q 831 143 831 151 q 837 128 831 135 q 843 115 843 122 q 839 106 843 111 q 828 101 835 101 q 819 106 822 101 q 813 115 815 110 q 808 124 811 119 q 801 128 806 128 l 800 128 q 797 124 799 126 q 794 121 796 121 q 794 119 794 119 q 793 118 793 119 q 792 115 792 117 q 792 113 792 114 q 793 110 793 111 q 798 101 794 107 q 804 93 801 94 l 804 89 q 801 81 804 85 q 792 76 797 76 q 778 87 782 76 q 767 104 774 97 q 756 95 760 99 q 751 85 751 92 q 754 74 751 79 q 757 64 757 69 q 753 54 757 57 q 744 51 749 51 l 742 51 q 732 65 735 60 q 725 79 729 69 l 724 79 q 721 76 724 78 q 717 74 718 75 l 715 72 l 715 71 q 720 58 715 64 q 725 46 725 53 q 720 40 725 43 q 711 36 715 36 q 702 40 704 36 q 698 49 700 44 q 694 58 696 54 q 689 63 693 63 q 679 57 683 63 q 675 47 675 51 q 676 41 675 44 q 676 33 676 38 q 665 21 676 21 q 651 33 654 21 q 646 44 649 44 q 639 42 643 44 q 635 36 635 39 q 637 26 635 31 q 639 17 639 22 q 628 6 639 6 q 618 10 621 6 q 615 19 615 14 q 614 28 614 24 q 610 32 614 32 q 603 30 607 32 q 599 25 599 28 l 599 -3 q 593 -6 599 -6 q 586 -6 588 -6 q 575 6 576 -6 q 574 24 574 18 l 568 24 q 563 22 565 24 q 560 17 560 19 l 560 -6 q 557 -9 560 -8 q 551 -10 554 -10 q 543 -6 544 -10 q 541 3 542 -1 q 540 13 540 8 q 533 17 539 17 q 526 11 531 17 q 525 -6 526 3 q 513 -15 524 -15 q 499 -8 503 -15 l 499 -1 q 501 14 499 7 q 499 17 501 17 l 497 15 q 496 14 496 15 q 493 13 494 14 l 493 -10 q 490 -13 493 -11 q 486 -15 488 -15 q 481 -13 483 -15 q 478 -10 479 -11 m 610 818 q 638 769 628 794 q 653 717 647 744 q 657 707 653 714 q 666 692 661 700 q 675 678 671 685 q 682 672 679 672 l 683 672 l 688 700 q 694 717 688 706 q 704 731 701 728 q 715 741 707 733 q 725 750 724 749 q 744 761 735 757 q 765 775 754 765 q 793 803 779 788 q 817 835 807 818 l 813 835 q 783 831 797 835 q 751 826 768 828 q 740 826 747 826 q 726 824 733 825 q 714 823 719 824 q 707 822 708 822 l 640 822 q 625 822 638 822 q 610 821 613 821 l 610 818 m 688 1160 q 699 1149 694 1156 q 715 1139 704 1142 q 728 1161 722 1146 q 738 1185 735 1176 l 736 1185 q 734 1184 735 1185 q 732 1183 733 1183 l 729 1183 q 713 1178 725 1181 q 697 1174 700 1176 q 692 1169 696 1174 q 688 1161 688 1165 l 688 1160 z "},"“":{"ha":547,"x_min":68,"x_max":478,"o":"m 106 1054 q 96 1063 97 1060 q 72 1109 76 1085 q 74 1161 68 1133 q 77 1170 76 1165 q 81 1181 78 1175 q 90 1200 85 1190 q 99 1219 94 1210 q 101 1226 101 1222 q 110 1237 104 1228 q 119 1250 117 1246 q 135 1271 126 1261 q 156 1290 144 1281 q 168 1301 164 1299 q 172 1303 169 1300 q 176 1306 175 1306 l 176 1307 q 199 1319 186 1314 q 224 1322 211 1325 q 240 1319 232 1322 q 253 1313 247 1317 q 263 1306 258 1310 q 278 1279 274 1294 q 285 1249 282 1264 l 285 1247 q 283 1244 285 1246 q 286 1243 285 1244 l 286 1238 l 286 1214 q 283 1172 288 1196 l 283 1168 q 283 1163 282 1165 q 282 1156 282 1160 q 276 1135 279 1146 q 269 1117 272 1125 q 256 1088 263 1101 q 240 1063 250 1074 q 238 1060 239 1060 q 235 1057 236 1060 q 206 1036 222 1043 q 196 1035 200 1035 q 188 1033 192 1036 q 174 1031 181 1031 q 161 1032 168 1032 l 160 1032 q 129 1040 146 1033 q 125 1042 128 1040 q 121 1043 122 1043 q 115 1047 118 1046 q 108 1051 113 1049 q 106 1054 108 1054 m 296 924 q 286 932 288 929 q 263 978 267 954 q 264 1031 258 1003 q 267 1040 267 1035 q 271 1050 268 1044 q 280 1069 275 1060 q 289 1089 285 1079 q 292 1096 292 1092 q 301 1106 294 1097 q 310 1119 307 1115 q 326 1140 317 1131 q 346 1160 335 1150 q 358 1171 354 1168 q 363 1172 360 1169 q 367 1175 365 1175 l 367 1176 q 389 1189 376 1183 q 414 1192 401 1194 q 431 1189 422 1192 q 443 1183 438 1186 q 453 1175 449 1179 q 468 1149 464 1164 q 475 1118 472 1133 l 475 1117 q 474 1114 475 1115 q 476 1113 475 1114 l 476 1107 l 476 1083 q 474 1042 478 1065 l 474 1038 q 474 1032 472 1035 q 472 1025 472 1029 q 466 1005 469 1015 q 460 986 463 994 q 447 957 453 971 q 431 932 440 943 q 428 929 429 929 q 425 926 426 929 q 396 906 413 913 q 386 905 390 904 q 378 903 382 906 q 365 901 371 900 q 351 901 358 901 l 350 901 q 319 910 336 903 q 315 911 318 910 q 311 913 313 913 q 306 917 308 915 q 299 921 303 918 q 296 924 299 924 z "},"”":{"ha":547,"x_min":69,"x_max":479,"o":"m 442 1054 q 439 1051 439 1054 q 432 1047 435 1049 q 426 1043 429 1046 q 422 1042 425 1043 q 418 1040 419 1040 q 388 1032 401 1033 l 386 1032 q 373 1031 379 1032 q 360 1033 367 1031 q 351 1035 356 1036 q 342 1036 347 1035 q 313 1057 325 1043 q 310 1060 311 1060 q 307 1063 308 1060 q 291 1088 297 1074 q 278 1117 285 1101 q 272 1135 275 1125 q 265 1156 268 1146 q 264 1163 265 1160 q 264 1168 265 1165 l 264 1172 q 261 1214 260 1196 l 261 1238 l 261 1243 q 264 1244 263 1244 q 263 1247 263 1244 l 263 1249 q 269 1279 265 1264 q 285 1306 274 1294 q 294 1313 289 1310 q 307 1319 300 1317 q 324 1322 315 1322 q 349 1319 336 1325 q 371 1307 361 1314 l 371 1306 q 375 1303 372 1306 q 379 1301 378 1300 q 392 1290 383 1299 q 412 1271 403 1281 q 428 1250 421 1261 q 437 1237 431 1246 q 446 1226 443 1228 q 449 1219 446 1222 q 458 1200 453 1210 q 467 1181 463 1190 q 470 1170 469 1175 q 474 1161 471 1165 q 475 1109 479 1133 q 451 1063 471 1085 q 442 1054 450 1060 m 251 924 q 249 921 249 924 q 242 917 244 918 q 236 913 239 915 q 232 911 235 913 q 228 910 229 910 q 197 901 211 903 l 196 901 q 183 901 189 901 q 169 903 176 900 q 161 905 165 906 q 151 906 157 904 q 122 926 135 913 q 119 929 121 929 q 117 932 118 929 q 101 957 107 943 q 88 986 94 971 q 81 1005 85 994 q 75 1025 78 1015 q 74 1032 75 1029 q 74 1038 75 1035 l 74 1042 q 71 1083 69 1065 l 71 1107 l 71 1113 q 74 1114 72 1114 q 72 1117 72 1114 l 72 1118 q 79 1149 75 1133 q 94 1175 83 1164 q 104 1183 99 1179 q 117 1189 110 1186 q 133 1192 125 1192 q 158 1189 146 1194 q 181 1176 171 1183 l 181 1175 q 185 1172 182 1175 q 189 1171 188 1169 q 201 1160 193 1168 q 222 1140 213 1150 q 238 1119 231 1131 q 247 1106 240 1115 q 256 1096 253 1097 q 258 1089 256 1092 q 267 1069 263 1079 q 276 1050 272 1060 q 280 1040 279 1044 q 283 1031 281 1035 q 285 978 289 1003 q 261 932 281 954 q 251 924 260 929 z "},"•":{"ha":543,"x_min":69,"x_max":474,"o":"m 210 389 q 197 394 203 392 q 185 399 190 396 q 108 469 133 426 q 74 568 82 511 q 71 589 72 579 q 69 608 69 599 q 71 653 69 631 q 75 696 72 675 q 76 703 75 699 q 76 710 76 708 q 83 738 78 715 q 89 769 88 760 q 106 822 96 797 q 129 871 117 847 q 137 888 132 879 q 146 903 142 896 q 151 910 147 904 q 156 917 154 917 l 156 919 q 189 958 169 939 q 233 983 208 976 q 268 990 251 990 q 321 981 296 990 q 368 944 350 969 q 401 892 386 918 q 403 888 401 890 q 406 883 404 886 q 408 882 406 883 l 410 881 q 411 876 410 878 q 413 872 411 875 q 424 849 415 867 q 435 826 432 831 q 449 786 442 807 q 458 746 456 765 q 461 739 461 743 q 462 733 461 732 q 464 726 463 733 q 465 720 465 724 q 467 714 465 717 q 473 672 472 694 q 474 628 474 649 q 470 565 474 596 q 458 504 467 533 q 456 498 458 501 q 454 492 454 494 q 438 460 447 476 q 413 432 428 443 q 397 422 404 425 q 381 411 389 418 q 358 399 369 404 q 331 389 346 394 l 329 389 q 267 381 297 381 l 249 381 q 234 384 240 383 q 218 388 228 385 q 210 389 217 389 z "},"–":{"ha":944,"x_min":69,"x_max":875,"o":"m 875 150 l 69 151 l 71 301 l 875 300 l 875 150 z "},"—":{"ha":1522,"x_min":69,"x_max":1453,"o":"m 1453 150 l 69 151 l 71 301 l 1453 300 l 1453 150 z "},"¡":{"ha":338,"x_min":69,"x_max":268,"o":"m 247 1 l 247 1033 l 94 1033 l 94 1 l 247 1 m 139 1382 q 133 1380 136 1381 q 126 1378 129 1379 q 88 1343 101 1364 q 71 1294 75 1322 q 70 1284 71 1289 q 69 1274 69 1279 q 70 1252 69 1263 q 72 1231 71 1242 l 72 1224 q 76 1210 74 1221 q 79 1194 78 1200 q 87 1169 82 1181 q 99 1144 92 1157 q 107 1129 104 1133 q 110 1126 108 1129 q 113 1122 111 1122 l 113 1121 q 128 1101 119 1111 q 150 1089 138 1092 q 167 1086 161 1086 q 193 1090 181 1086 q 217 1110 208 1097 q 233 1135 226 1122 l 233 1136 q 235 1139 233 1138 q 238 1140 236 1139 l 239 1144 q 244 1156 240 1147 q 249 1167 247 1164 q 261 1207 257 1185 l 263 1210 q 264 1215 263 1213 q 265 1222 264 1219 q 268 1243 268 1232 q 268 1264 268 1254 q 267 1294 268 1279 q 261 1325 265 1310 q 260 1328 261 1328 q 258 1332 258 1329 q 251 1347 256 1339 q 239 1361 246 1356 q 231 1366 235 1364 q 222 1371 226 1368 q 211 1377 217 1375 q 199 1382 206 1379 l 197 1382 q 167 1386 182 1386 l 157 1386 q 151 1385 154 1385 q 143 1383 147 1385 q 139 1382 142 1382 z "},"¢":{"ha":3336,"x_min":69,"x_max":3267,"o":"m 1178 657 l 1282 456 l 1282 447 q 1281 434 1282 444 q 1272 424 1279 424 l 460 424 q 451 429 457 424 q 445 433 450 429 q 438 439 440 436 q 436 442 438 439 l 321 657 l 1178 657 m 1375 499 q 1376 517 1375 510 q 1383 535 1376 525 l 1619 990 q 1669 1022 1633 1022 q 1719 994 1706 1022 l 1958 528 q 1965 512 1964 519 q 1965 494 1965 504 q 1951 451 1965 474 q 1910 429 1938 429 l 1426 429 q 1388 453 1401 429 q 1375 499 1375 476 m 2049 453 q 2053 465 2049 458 l 2156 665 l 3013 665 l 3013 661 q 2974 585 2992 621 q 2940 520 2957 553 q 2911 465 2922 488 q 2894 442 2906 456 q 2871 429 2882 429 l 2068 429 q 2054 438 2060 429 q 2049 453 2049 446 m 1021 1110 q 1023 1131 1021 1118 q 1031 1153 1025 1143 q 1045 1172 1036 1164 q 1067 1179 1054 1179 l 1563 1179 q 1584 1172 1575 1179 q 1599 1153 1593 1164 q 1606 1131 1604 1143 q 1608 1110 1608 1118 q 1608 1092 1608 1099 q 1606 1076 1608 1085 l 1365 617 q 1344 592 1357 601 q 1315 583 1331 583 q 1286 592 1300 583 q 1267 617 1272 601 l 1025 1076 q 1021 1092 1021 1085 q 1021 1110 1021 1099 m 1726 1110 q 1741 1159 1726 1136 q 1786 1182 1756 1182 l 2275 1179 q 2296 1171 2288 1179 q 2309 1151 2304 1163 q 2316 1126 2314 1139 q 2318 1104 2318 1113 q 2317 1099 2318 1101 q 2317 1094 2317 1097 l 2317 1088 l 2076 622 q 2057 594 2069 606 q 2025 583 2044 583 q 1974 611 1992 583 l 1731 1082 q 1726 1094 1726 1089 q 1726 1110 1726 1100 m 1042 911 q 1047 907 1043 911 q 1051 897 1047 904 q 1057 890 1054 890 q 1085 838 1068 869 q 1117 776 1101 806 q 1143 724 1132 746 q 1154 701 1154 701 l 1154 699 l 299 699 l 189 911 l 1042 911 m 2288 919 l 3146 919 l 3036 707 l 2178 707 l 2288 919 m 72 1133 q 69 1151 69 1139 q 74 1166 69 1157 q 88 1175 79 1175 l 886 1175 q 906 1165 896 1175 q 921 1146 917 1154 l 1022 956 l 1022 949 l 169 949 l 72 1133 m 2411 1157 q 2426 1173 2414 1164 q 2444 1182 2439 1182 l 3244 1182 q 3260 1173 3254 1182 q 3267 1156 3267 1164 l 3267 1151 q 3248 1116 3261 1142 q 3220 1062 3235 1090 q 3192 1008 3206 1033 q 3175 972 3179 982 l 3164 956 l 2311 956 l 2311 964 l 2411 1157 m 500 317 q 503 321 500 321 l 528 321 l 531 319 q 540 288 535 303 q 549 260 544 274 q 556 238 553 246 q 562 211 558 225 q 574 186 565 197 l 574 185 l 575 186 q 581 189 581 186 q 583 202 581 193 q 589 220 586 211 q 594 238 592 229 q 599 250 597 246 q 603 272 601 260 q 610 296 606 285 q 621 315 614 307 q 640 324 628 324 q 657 320 650 324 q 667 306 664 317 l 697 193 q 706 186 699 186 l 707 186 q 719 214 715 197 q 726 246 722 231 q 731 259 728 250 q 737 278 733 268 q 743 299 740 289 q 747 313 746 308 q 751 317 749 314 q 757 321 753 321 l 779 321 q 781 319 779 321 l 781 318 l 781 317 q 778 305 781 313 q 772 288 775 297 q 767 272 769 279 q 764 260 765 264 q 758 238 761 249 q 750 214 754 226 q 744 191 747 204 q 738 166 742 178 q 726 146 733 154 q 704 138 718 138 q 689 140 696 138 q 679 154 682 143 l 644 276 l 642 276 q 630 265 631 276 q 626 246 629 253 q 622 227 625 240 q 614 199 618 214 q 606 172 610 185 q 601 154 603 160 q 590 141 599 146 q 574 136 581 136 q 558 142 564 136 q 549 154 551 147 l 500 314 l 500 317 m 1625 278 q 1619 277 1622 278 q 1615 276 1617 276 l 1615 143 l 1610 142 l 1601 142 l 1588 142 l 1585 142 q 1582 143 1583 142 l 1582 304 q 1592 318 1582 315 q 1610 321 1603 321 q 1644 302 1633 321 q 1667 264 1654 283 l 1667 263 q 1668 260 1667 261 l 1719 186 q 1726 179 1722 179 l 1731 179 q 1731 200 1731 185 q 1732 221 1732 215 l 1732 314 l 1735 317 q 1738 321 1739 321 l 1758 321 l 1763 317 l 1763 157 q 1753 142 1763 146 q 1736 138 1743 138 q 1719 142 1725 138 q 1707 154 1714 146 q 1692 176 1703 160 q 1669 212 1681 193 q 1647 247 1657 231 q 1632 271 1636 264 l 1625 278 m 790 231 q 790 244 790 235 q 791 263 790 253 q 792 283 792 274 q 792 296 792 292 q 807 313 797 306 q 828 321 817 321 l 949 321 q 953 318 953 321 q 953 314 953 315 q 952 306 953 313 q 949 299 951 299 l 842 299 q 826 287 831 299 q 822 268 822 275 q 823 253 822 265 q 831 240 824 240 l 942 240 q 944 238 943 240 q 946 233 946 235 q 944 226 946 231 q 942 222 943 222 l 835 222 q 825 213 828 222 q 822 200 822 204 q 826 178 822 193 q 842 163 829 163 l 949 163 q 952 158 951 163 q 953 151 953 154 q 952 146 953 150 q 949 142 951 142 l 835 142 q 797 159 804 142 q 790 201 790 176 l 790 231 m 1044 215 l 979 299 q 976 300 978 299 q 969 311 975 303 q 965 319 967 315 l 968 321 l 997 321 l 999 319 l 1001 317 q 1013 303 1006 313 q 1028 283 1019 293 q 1043 263 1036 272 q 1053 250 1050 254 q 1057 249 1056 250 q 1061 249 1058 249 q 1067 251 1065 249 q 1072 257 1069 253 q 1081 267 1074 258 q 1095 286 1088 276 q 1110 305 1103 296 q 1118 317 1117 314 l 1121 319 q 1124 321 1122 321 l 1154 321 q 1151 313 1154 315 q 1115 263 1133 289 q 1076 213 1096 236 l 1076 142 l 1044 142 l 1044 215 m 1208 199 q 1213 177 1208 192 q 1228 163 1217 163 l 1336 163 q 1338 161 1336 161 l 1339 160 l 1339 151 l 1339 143 l 1332 142 l 1224 142 q 1193 151 1210 142 q 1176 178 1176 160 l 1176 313 q 1178 315 1176 314 q 1178 317 1178 317 q 1179 319 1179 318 q 1182 321 1181 321 l 1208 321 l 1208 199 m 1464 321 q 1479 319 1474 321 q 1490 308 1485 318 l 1561 167 q 1565 156 1561 161 q 1569 143 1568 150 l 1569 142 l 1540 142 q 1533 149 1536 142 q 1527 164 1531 156 q 1519 179 1524 172 q 1510 186 1515 186 l 1417 186 q 1413 182 1413 186 l 1410 179 l 1390 142 l 1356 142 q 1359 151 1356 144 q 1364 160 1363 157 l 1432 299 q 1444 315 1439 310 q 1464 321 1450 321 m 1785 321 l 1932 321 q 1952 313 1940 321 q 1964 296 1964 306 q 1965 276 1964 290 q 1965 247 1965 263 q 1966 217 1965 231 q 1967 199 1967 204 l 1967 186 q 1956 156 1967 171 q 1928 142 1946 142 l 1785 142 l 1785 321 m 2240 304 q 2236 299 2240 299 l 2126 299 q 2119 291 2124 299 q 2114 279 2114 283 l 2114 179 q 2120 169 2114 176 q 2129 163 2126 163 l 2236 163 q 2240 160 2240 163 l 2240 153 l 2240 143 q 2239 142 2240 142 l 2236 142 l 2122 142 q 2097 149 2111 142 q 2082 171 2082 156 l 2082 296 q 2094 315 2082 308 q 2115 321 2107 321 l 2236 321 q 2240 319 2240 321 l 2240 313 l 2240 304 m 2296 143 q 2276 153 2286 146 q 2267 169 2267 160 l 2267 293 q 2281 313 2267 304 q 2304 321 2296 321 l 2404 321 q 2430 310 2418 321 q 2442 285 2442 300 l 2442 175 q 2426 151 2442 160 q 2400 142 2411 142 l 2307 142 l 2301 142 l 2297 142 q 2296 143 2296 142 m 2464 321 l 2604 321 q 2627 315 2615 321 q 2642 293 2639 308 l 2642 272 q 2622 222 2642 231 q 2563 217 2601 214 q 2556 208 2556 215 l 2556 206 q 2569 194 2560 203 q 2590 178 2579 186 q 2612 161 2601 169 q 2626 150 2622 153 q 2629 146 2626 147 q 2632 142 2632 144 l 2597 142 l 2501 214 l 2501 215 l 2500 214 l 2496 210 l 2496 142 l 2464 142 l 2464 321 m 2661 319 l 2667 324 l 2690 324 q 2747 323 2722 324 q 2804 321 2772 322 q 2821 317 2814 321 q 2829 308 2824 314 q 2835 300 2835 301 l 2835 235 q 2822 219 2835 225 q 2801 213 2808 214 q 2751 209 2776 210 q 2701 210 2725 208 q 2697 207 2697 206 q 2696 206 2696 207 q 2694 206 2696 206 l 2692 206 l 2692 143 q 2690 142 2692 142 l 2686 142 l 2672 142 l 2664 142 l 2661 143 l 2661 319 m 1917 165 q 1928 174 1924 165 q 1933 186 1933 182 l 1933 278 q 1922 296 1933 292 q 1901 300 1911 300 q 1894 301 1900 300 q 1881 301 1889 301 q 1867 301 1874 301 q 1856 301 1860 301 q 1838 301 1849 301 q 1825 300 1826 301 l 1821 296 l 1821 165 l 1917 165 m 2407 285 q 2396 296 2403 292 q 2393 297 2394 296 q 2392 299 2392 297 l 2315 299 q 2305 292 2310 299 q 2300 283 2300 286 l 2300 179 q 2306 171 2300 176 q 2315 165 2313 165 l 2392 165 q 2404 174 2399 165 q 2408 189 2410 182 l 2408 225 q 2408 255 2408 240 q 2407 285 2408 269 m 1426 214 q 1432 207 1426 207 l 1494 207 q 1499 210 1497 207 q 1500 215 1500 214 l 1500 221 q 1486 249 1497 228 q 1471 276 1475 269 q 1467 283 1468 279 q 1460 286 1465 286 l 1457 285 l 1426 217 l 1426 214 m 2497 233 q 2499 231 2497 232 q 2500 228 2500 229 l 2501 228 q 2508 231 2504 229 q 2514 233 2513 233 l 2585 233 q 2593 237 2586 233 q 2604 243 2600 240 q 2608 256 2607 247 q 2608 268 2608 264 q 2606 287 2608 275 q 2593 299 2603 299 l 2501 299 l 2497 293 l 2497 233 m 2699 235 l 2785 235 q 2803 249 2800 235 q 2806 272 2806 263 q 2798 292 2806 286 q 2780 301 2790 299 q 2757 302 2769 303 q 2736 301 2744 301 q 2719 301 2733 301 q 2701 300 2706 300 q 2697 299 2699 299 q 2693 296 2693 296 l 2693 240 l 2699 235 z "},"¤":{"ha":2272,"x_min":69,"x_max":2203,"o":"m 849 125 q 860 133 851 133 q 863 132 863 133 q 867 129 864 131 l 872 129 q 881 130 876 129 q 886 135 886 131 l 886 147 l 885 147 q 878 144 882 146 q 872 142 875 142 l 867 142 q 847 150 854 142 q 846 153 847 151 l 846 188 q 853 200 846 196 q 868 204 861 204 q 888 196 876 204 q 890 199 890 196 q 892 201 889 201 l 908 201 l 908 143 q 897 123 908 128 q 874 118 885 118 q 849 125 857 118 m 353 224 l 363 224 q 372 224 367 224 q 379 225 376 225 l 386 225 q 413 222 399 225 q 426 203 426 218 q 415 183 426 192 l 417 183 q 426 174 424 178 q 428 163 428 171 q 421 145 428 151 q 403 138 414 139 q 379 137 397 138 q 356 136 361 136 l 354 136 l 353 138 q 351 139 351 138 l 351 224 l 353 224 m 451 197 q 456 201 451 201 q 465 201 458 201 q 474 200 471 200 l 474 194 l 474 157 q 481 151 474 151 q 494 158 489 151 q 495 168 494 161 q 496 178 496 175 l 496 186 l 496 200 l 499 200 l 515 200 l 517 200 l 517 186 l 517 164 q 517 149 517 158 q 515 139 517 139 l 514 138 l 500 138 q 497 141 497 138 q 496 146 496 144 q 487 141 493 146 q 474 136 481 136 q 451 157 451 136 l 451 197 m 539 150 l 539 160 l 539 200 q 547 201 542 201 q 554 200 551 200 l 561 200 l 563 200 l 563 143 q 558 138 563 138 q 551 138 554 138 q 544 137 549 138 q 539 139 540 136 l 539 150 m 586 225 l 606 225 l 606 143 q 601 138 606 138 l 596 138 q 589 138 594 138 q 583 140 583 138 l 583 224 l 586 225 m 625 167 q 628 192 625 182 q 649 203 631 203 q 667 196 657 203 l 668 196 l 668 224 l 672 225 l 690 225 l 690 144 l 689 139 q 686 138 688 138 l 682 138 q 677 138 681 138 q 672 139 674 139 q 670 142 671 139 q 669 146 669 144 l 668 146 q 660 142 665 146 q 649 138 656 138 q 629 144 633 138 q 625 167 625 151 m 714 146 l 714 179 q 715 200 714 189 l 717 200 l 738 200 l 738 139 l 715 139 q 714 140 714 139 l 714 143 l 714 146 m 758 160 q 759 167 758 161 q 760 178 760 172 q 760 190 760 185 q 760 196 760 194 l 760 197 l 761 200 l 779 200 q 781 197 779 200 q 779 196 779 197 l 779 193 q 791 198 785 193 q 806 203 797 203 q 818 200 813 203 q 824 190 824 197 l 824 140 l 822 139 l 804 139 l 803 140 l 803 157 q 802 165 803 160 q 801 175 801 171 l 801 185 l 799 188 l 796 188 q 788 186 792 188 q 782 179 783 185 q 781 163 781 175 q 781 146 781 150 q 780 144 781 144 q 779 142 779 143 l 779 139 l 760 139 l 758 139 l 758 147 l 758 160 m 981 164 q 981 194 981 178 q 982 224 981 210 l 982 225 l 985 225 q 988 226 986 225 l 1007 226 q 1039 224 1021 226 q 1057 204 1057 222 q 1053 194 1057 196 q 1046 185 1050 192 q 1049 183 1047 183 q 1051 181 1050 182 q 1060 167 1060 172 q 1051 147 1060 154 q 1031 139 1043 139 l 982 139 l 981 139 l 981 164 m 1081 150 q 1080 155 1081 153 q 1079 158 1079 157 l 1079 168 q 1084 194 1079 185 q 1108 204 1089 204 q 1131 197 1125 204 q 1136 174 1136 190 l 1136 168 l 1135 167 l 1100 167 q 1099 164 1099 167 l 1099 163 q 1107 150 1099 153 l 1114 150 q 1124 151 1119 150 q 1135 153 1128 153 q 1136 150 1136 153 q 1136 146 1136 147 q 1133 140 1136 142 q 1113 139 1126 139 q 1094 140 1101 139 q 1081 150 1088 142 m 1151 190 l 1151 201 l 1161 201 l 1163 204 q 1164 215 1165 210 q 1165 224 1163 221 l 1165 225 l 1183 225 q 1185 216 1185 225 q 1186 204 1185 207 q 1194 203 1190 201 q 1200 201 1197 204 l 1200 197 q 1199 192 1200 193 q 1194 191 1197 192 q 1189 190 1190 190 q 1185 188 1185 190 l 1185 157 q 1190 153 1185 153 q 1194 152 1192 153 q 1199 151 1197 151 l 1200 150 l 1200 142 q 1197 139 1200 139 q 1193 139 1194 139 l 1188 139 q 1172 141 1182 139 q 1163 151 1163 143 l 1163 190 l 1151 190 m 1279 168 q 1284 197 1279 188 q 1308 206 1289 206 q 1336 178 1336 206 l 1336 169 l 1336 168 q 1324 167 1329 167 l 1304 167 l 1299 167 l 1299 164 q 1307 150 1299 151 l 1314 150 q 1324 150 1321 150 q 1333 153 1326 150 l 1335 151 q 1335 148 1335 150 q 1336 144 1336 146 q 1331 140 1336 140 q 1325 139 1326 139 l 1313 139 l 1301 139 q 1283 149 1286 142 q 1279 168 1279 156 m 1224 190 q 1219 191 1224 192 q 1213 193 1214 190 l 1213 196 q 1222 204 1213 203 q 1223 212 1222 207 q 1224 219 1224 217 l 1224 224 l 1225 225 l 1244 225 l 1246 224 l 1246 210 l 1246 206 q 1247 203 1246 204 l 1257 203 l 1261 200 l 1261 193 l 1258 192 q 1253 191 1257 192 q 1247 190 1249 190 l 1246 190 l 1246 157 q 1253 153 1246 153 q 1261 151 1261 154 l 1261 142 l 1257 139 l 1250 139 q 1235 140 1239 139 q 1224 150 1231 142 l 1224 190 m 1732 158 l 1732 174 q 1733 200 1732 181 q 1733 225 1733 219 q 1740 228 1735 228 q 1747 228 1744 228 l 1751 228 l 1753 226 l 1753 147 l 1751 140 q 1749 139 1750 139 l 1744 139 l 1739 139 q 1732 142 1733 139 l 1732 158 m 1357 176 l 1357 192 q 1358 201 1357 197 l 1358 203 l 1378 203 l 1378 193 l 1379 193 q 1388 201 1382 196 q 1400 206 1393 206 q 1401 204 1400 206 l 1401 186 l 1400 185 q 1394 183 1399 185 q 1388 182 1389 182 q 1383 181 1386 181 q 1381 179 1382 181 l 1379 178 q 1378 163 1379 174 q 1378 149 1378 153 q 1376 142 1378 143 q 1375 140 1376 142 l 1358 140 l 1357 143 l 1357 157 l 1357 176 m 1444 226 l 1447 228 l 1453 228 q 1457 228 1456 228 q 1461 229 1458 229 q 1464 228 1461 229 l 1467 228 l 1481 172 l 1482 171 q 1483 174 1482 171 l 1483 176 q 1489 190 1486 182 q 1494 207 1492 199 q 1501 226 1499 217 l 1501 228 l 1521 229 q 1522 228 1522 229 l 1524 226 l 1524 225 l 1538 174 q 1539 171 1538 174 l 1540 171 l 1558 229 l 1576 229 q 1578 226 1576 229 l 1578 225 l 1578 224 l 1553 144 q 1547 140 1553 140 l 1533 140 q 1531 142 1532 140 l 1529 143 l 1511 197 l 1510 197 q 1508 193 1508 196 q 1507 185 1507 190 l 1506 181 q 1499 163 1503 176 q 1493 146 1494 149 q 1492 144 1493 144 q 1492 143 1492 144 q 1490 140 1490 142 l 1469 140 l 1444 226 m 1589 153 q 1586 161 1586 156 q 1586 169 1586 167 q 1592 198 1586 189 q 1618 207 1599 207 q 1649 176 1649 207 q 1647 157 1649 167 q 1635 143 1646 147 q 1631 142 1633 142 q 1628 140 1629 142 l 1606 140 l 1597 143 l 1589 153 m 1668 146 q 1669 173 1668 153 q 1669 200 1669 193 q 1671 203 1671 201 q 1672 206 1671 204 l 1678 206 q 1690 204 1685 206 l 1690 203 l 1690 194 q 1699 202 1694 197 q 1711 207 1704 207 l 1713 207 l 1714 206 l 1714 188 q 1703 184 1714 185 q 1690 179 1692 183 l 1689 142 l 1668 142 l 1668 144 l 1668 146 m 1771 167 q 1773 194 1771 181 q 1792 208 1775 208 q 1803 207 1800 208 q 1808 203 1806 206 q 1814 200 1811 200 q 1815 206 1815 201 q 1815 213 1815 211 l 1815 222 q 1816 226 1815 224 q 1817 229 1817 228 l 1818 231 l 1836 231 l 1836 229 q 1837 223 1836 228 q 1838 215 1838 218 q 1837 204 1838 213 q 1836 194 1836 196 l 1836 157 q 1836 149 1836 156 q 1835 143 1836 143 l 1817 143 q 1815 147 1814 143 q 1814 150 1817 150 q 1803 144 1807 146 q 1792 142 1800 142 q 1774 149 1776 142 q 1771 167 1771 156 m 1857 147 q 1860 155 1857 150 q 1867 160 1864 160 q 1874 157 1869 160 q 1881 154 1878 154 q 1889 158 1889 154 q 1884 163 1889 161 q 1873 168 1879 165 q 1862 175 1867 171 q 1857 186 1857 179 q 1865 203 1857 197 q 1885 208 1874 208 q 1897 208 1889 208 q 1907 200 1904 207 q 1903 196 1906 199 q 1899 193 1901 193 q 1891 194 1894 193 q 1885 196 1888 196 q 1878 190 1878 196 q 1883 185 1878 186 q 1894 181 1888 183 q 1905 175 1900 179 q 1910 163 1910 171 q 1899 146 1910 150 q 1878 142 1889 142 l 1871 142 q 1863 144 1868 142 q 1857 147 1857 146 m 394 151 q 403 165 403 151 l 403 169 q 394 176 399 175 q 382 176 389 176 q 379 175 381 175 l 376 175 l 375 174 l 375 151 l 394 151 m 654 190 q 649 185 649 190 l 649 157 q 650 154 649 156 q 653 153 651 153 l 656 153 q 663 153 657 153 q 668 157 668 154 l 668 185 q 663 190 668 189 q 654 190 657 190 m 1007 153 l 1014 153 q 1027 154 1019 153 q 1035 165 1035 156 q 1028 176 1035 174 q 1013 178 1021 178 q 1008 178 1011 178 q 1006 175 1006 178 l 1006 154 l 1007 153 m 1618 194 q 1608 186 1608 194 l 1608 160 q 1613 155 1608 157 q 1619 153 1617 153 q 1626 158 1621 153 q 1628 167 1628 165 q 1628 175 1628 168 q 1626 188 1628 182 q 1618 194 1625 194 m 867 172 q 868 161 867 167 q 878 156 869 156 q 886 160 882 156 q 888 178 888 167 l 888 183 q 876 188 883 188 q 868 183 869 188 q 867 172 867 178 m 1801 194 q 1794 186 1794 194 l 1794 163 q 1797 158 1794 158 q 1803 157 1800 157 q 1813 160 1811 157 q 1815 169 1815 165 q 1814 178 1814 172 l 1814 189 q 1809 193 1814 192 q 1801 194 1804 194 m 1108 194 q 1100 189 1101 194 q 1099 178 1099 183 l 1117 178 l 1118 179 l 1118 182 q 1108 194 1118 194 m 1299 179 q 1301 178 1300 178 l 1304 178 q 1311 178 1307 178 q 1317 179 1315 179 l 1317 182 q 1308 194 1317 194 q 1299 182 1299 194 l 1299 179 m 256 219 l 256 222 q 257 224 256 224 l 281 224 l 281 208 q 276 206 281 206 q 272 204 272 207 q 275 194 272 199 q 278 185 278 190 q 262 194 268 185 q 256 213 256 203 l 256 219 m 321 224 l 321 208 l 319 208 q 314 207 319 207 l 314 204 q 317 197 315 201 q 319 192 318 193 l 319 189 l 319 188 q 318 186 319 186 l 315 186 l 314 186 q 309 190 311 186 q 306 196 307 193 q 303 199 304 197 q 301 201 303 200 l 299 204 l 299 224 l 321 224 m 376 190 l 383 190 q 396 192 390 190 q 401 201 401 193 q 396 211 401 210 q 385 213 390 213 l 378 213 l 375 211 l 375 192 l 376 190 m 1006 200 q 1006 196 1006 199 q 1008 192 1006 193 l 1017 192 q 1027 193 1022 192 q 1032 201 1032 194 q 1024 213 1032 213 l 1007 213 q 1006 210 1006 211 l 1006 207 l 1006 200 m 1931 193 q 1933 201 1932 197 q 1935 211 1935 206 l 1935 213 q 1929 221 1929 213 l 1929 224 l 1929 228 q 1931 231 1929 229 l 1951 231 l 1953 229 l 1953 224 q 1953 215 1953 219 q 1950 208 1953 211 q 1945 201 1949 206 q 1940 196 1942 196 q 1933 192 1938 192 l 1931 193 m 1978 211 q 1974 213 1978 214 q 1968 214 1969 211 l 1968 221 l 1968 226 q 1969 229 1968 226 l 1969 231 l 1990 231 l 1993 226 l 1993 222 q 1992 210 1993 214 q 1987 201 1990 207 q 1981 194 1983 196 q 1979 192 1981 193 l 1971 192 q 1974 201 1971 197 q 1978 211 1978 204 m 539 224 l 540 225 l 546 225 q 551 226 549 225 q 557 226 554 226 l 558 226 q 560 225 558 225 l 563 225 l 563 221 l 563 215 q 561 213 563 214 l 539 213 l 539 224 m 715 214 q 715 217 714 215 q 715 221 715 219 l 715 224 q 718 226 715 226 l 726 226 q 738 225 733 226 l 739 224 l 738 214 l 736 213 l 732 213 q 715 214 721 213 m 501 440 q 480 462 490 451 q 457 483 469 472 q 451 489 453 488 q 444 497 449 490 l 311 629 l 311 632 q 296 647 304 639 q 281 663 288 654 q 276 666 278 665 q 274 669 275 667 l 235 707 l 232 710 l 75 868 q 71 878 71 872 l 71 879 l 72 882 l 71 888 l 71 899 l 71 907 q 72 910 72 908 q 72 913 72 913 q 71 917 71 914 q 72 922 71 919 q 72 926 72 924 q 71 929 72 926 l 71 931 l 71 932 l 72 942 l 71 947 l 71 963 l 71 971 l 74 971 l 72 972 q 74 974 72 974 q 76 975 74 974 l 78 975 l 318 975 l 658 631 q 679 619 668 619 q 690 622 686 619 l 1043 975 l 1228 975 l 1568 622 q 1573 621 1569 622 q 1579 619 1576 619 q 1586 621 1582 619 q 1593 624 1590 622 l 1938 975 l 2007 975 l 2104 975 l 2165 975 l 2176 975 l 2176 968 l 2176 951 l 2176 926 l 2176 896 q 2175 882 2175 889 q 2171 869 2175 875 l 1663 360 q 1642 358 1651 358 l 1608 358 q 1549 358 1578 358 q 1489 357 1521 357 q 1479 361 1481 357 l 1147 699 q 1131 708 1140 708 q 1117 700 1125 708 l 769 357 l 758 357 l 688 357 q 672 357 685 357 q 644 356 660 357 q 616 356 629 356 q 599 356 603 356 q 596 356 597 356 q 592 357 594 357 l 588 357 l 585 357 l 503 439 l 501 440 m 988 378 l 988 393 q 989 417 989 399 q 989 439 989 435 q 994 447 992 444 l 1131 581 l 1267 443 q 1269 438 1269 440 q 1269 432 1269 435 l 1269 431 q 1269 417 1269 426 q 1269 397 1269 407 q 1267 376 1268 386 q 1267 363 1267 367 q 1264 357 1267 357 l 990 357 l 988 361 l 988 378 m 539 883 q 535 890 539 886 q 533 893 535 892 q 529 896 531 894 l 529 899 l 529 975 l 769 975 l 840 901 l 840 899 l 681 742 l 539 883 m 1426 899 q 1428 903 1426 901 l 1500 975 l 1735 975 l 1735 971 l 1735 964 l 1735 954 l 1735 899 l 1733 897 l 1588 750 l 1581 743 l 1579 743 l 1578 744 l 1435 890 l 1426 899 m 74 960 q 72 958 72 960 q 74 957 72 957 q 75 958 75 957 q 74 960 75 960 m 72 965 l 74 965 l 74 967 q 72 969 74 967 l 72 965 m 1544 1136 q 1542 1135 1540 1136 q 1540 1110 1542 1129 q 1539 1085 1539 1090 q 1539 1080 1539 1083 q 1536 1076 1539 1076 l 1519 1076 l 1518 1078 l 1518 1083 q 1518 1125 1518 1104 q 1521 1165 1518 1146 q 1532 1175 1524 1175 q 1538 1174 1536 1175 l 1597 1115 q 1601 1114 1599 1114 l 1603 1114 q 1604 1115 1603 1114 l 1604 1171 l 1607 1174 l 1624 1174 l 1625 1172 l 1625 1164 q 1625 1123 1625 1143 q 1624 1083 1625 1103 q 1613 1076 1624 1076 q 1604 1079 1607 1076 l 1547 1135 q 1544 1136 1547 1136 m 1064 1079 q 1065 1096 1064 1083 q 1065 1111 1065 1108 l 1065 1113 q 1064 1119 1065 1117 q 1060 1124 1063 1121 q 1037 1147 1053 1129 q 1015 1171 1021 1165 l 1015 1172 q 1018 1175 1015 1175 l 1039 1175 l 1075 1138 l 1079 1138 q 1085 1144 1081 1140 q 1090 1149 1088 1147 q 1096 1154 1093 1151 q 1100 1160 1096 1156 q 1106 1165 1104 1164 q 1109 1170 1107 1167 q 1114 1174 1111 1174 l 1136 1174 l 1136 1167 l 1086 1117 l 1086 1079 q 1081 1076 1086 1076 q 1074 1076 1076 1076 l 1068 1076 q 1064 1079 1064 1076 m 1154 1101 q 1153 1122 1154 1106 q 1153 1142 1153 1138 l 1153 1157 l 1153 1169 q 1158 1174 1154 1174 q 1165 1175 1163 1175 q 1172 1174 1169 1175 q 1173 1138 1174 1156 q 1175 1104 1172 1121 q 1186 1099 1179 1099 l 1228 1099 q 1238 1107 1238 1099 l 1238 1168 q 1239 1172 1238 1171 q 1240 1174 1239 1172 l 1257 1174 l 1257 1101 q 1249 1085 1257 1090 q 1231 1078 1240 1079 q 1216 1077 1228 1078 q 1201 1076 1204 1076 l 1196 1076 q 1170 1081 1183 1076 q 1154 1101 1157 1085 m 1319 1153 l 1318 1153 l 1314 1153 l 1286 1153 l 1283 1154 q 1282 1156 1283 1156 l 1282 1171 l 1285 1174 l 1379 1174 l 1379 1156 l 1376 1153 l 1346 1153 q 1340 1149 1340 1153 l 1340 1096 q 1340 1085 1340 1092 q 1339 1079 1340 1079 l 1338 1076 l 1319 1076 l 1319 1153 m 1424 1164 q 1428 1171 1424 1167 q 1436 1175 1432 1175 q 1447 1168 1444 1175 q 1458 1151 1450 1165 q 1469 1132 1467 1136 q 1483 1110 1476 1121 q 1496 1089 1489 1100 q 1499 1083 1496 1086 q 1501 1079 1500 1081 l 1501 1078 q 1497 1076 1500 1076 l 1490 1076 l 1486 1076 q 1476 1081 1479 1076 q 1472 1090 1474 1085 q 1466 1099 1469 1094 q 1457 1103 1463 1103 l 1413 1103 l 1407 1101 q 1402 1092 1406 1099 q 1397 1083 1399 1086 q 1393 1078 1394 1081 q 1389 1076 1392 1076 l 1369 1076 q 1371 1081 1369 1079 l 1424 1164 m 1646 1081 q 1647 1098 1646 1086 q 1647 1123 1647 1110 q 1648 1148 1647 1136 q 1649 1164 1649 1160 q 1650 1172 1649 1169 l 1651 1174 l 1668 1174 q 1669 1171 1668 1174 l 1669 1167 q 1669 1123 1669 1146 q 1667 1081 1668 1100 q 1664 1076 1667 1076 l 1647 1076 l 1646 1078 l 1646 1081 m 1728 1150 q 1736 1167 1729 1160 q 1753 1174 1743 1174 l 1821 1175 q 1824 1171 1824 1175 q 1825 1164 1825 1167 l 1825 1160 q 1824 1158 1825 1158 q 1824 1156 1824 1157 l 1824 1154 l 1817 1153 q 1792 1154 1811 1154 q 1767 1153 1772 1154 l 1754 1153 q 1749 1149 1750 1153 q 1749 1142 1749 1144 q 1747 1129 1747 1135 l 1747 1108 l 1747 1107 q 1751 1099 1747 1101 q 1760 1097 1756 1097 l 1761 1097 q 1769 1097 1763 1097 q 1784 1098 1776 1097 q 1799 1099 1792 1099 q 1808 1099 1806 1099 l 1814 1099 q 1819 1099 1815 1099 q 1822 1096 1822 1099 l 1822 1079 q 1819 1076 1822 1076 l 1763 1076 q 1737 1083 1747 1076 q 1726 1107 1726 1090 l 1728 1150 m 1892 1175 q 1908 1174 1896 1175 q 1922 1174 1919 1174 q 1949 1143 1949 1169 q 1949 1123 1949 1133 q 1947 1103 1949 1113 q 1925 1078 1944 1081 q 1889 1076 1906 1076 q 1868 1078 1879 1076 q 1850 1089 1857 1081 q 1849 1093 1849 1089 l 1849 1096 l 1849 1143 q 1862 1169 1849 1163 q 1890 1175 1875 1175 l 1892 1175 m 1972 1150 l 1972 1163 q 1974 1171 1972 1167 l 1976 1174 l 2047 1174 q 2076 1143 2076 1174 q 2070 1123 2076 1132 q 2050 1111 2064 1114 q 2044 1110 2049 1111 q 2038 1110 2039 1110 q 2032 1107 2032 1110 q 2045 1097 2033 1103 q 2060 1089 2057 1092 q 2068 1083 2063 1088 q 2076 1079 2074 1079 l 2076 1078 l 2075 1076 l 2042 1076 q 2039 1078 2040 1076 q 2036 1079 2038 1078 q 2019 1092 2033 1082 q 2001 1104 2006 1101 q 1999 1106 1999 1106 q 1996 1107 1999 1107 q 1993 1103 1993 1107 q 1992 1092 1992 1100 q 1992 1081 1992 1083 q 1988 1076 1990 1076 q 1979 1076 1985 1076 l 1974 1076 l 1972 1078 l 1972 1107 l 1972 1150 m 2100 1117 l 2100 1165 q 2101 1170 2100 1167 q 2103 1174 2101 1174 l 2176 1174 q 2193 1168 2183 1174 q 2203 1154 2203 1163 l 2203 1132 q 2190 1113 2203 1118 q 2167 1108 2178 1108 l 2124 1108 q 2122 1108 2122 1108 q 2121 1107 2122 1107 q 2120 1094 2121 1104 q 2119 1081 2119 1085 l 2119 1079 q 2118 1078 2119 1078 q 2117 1076 2118 1078 l 2100 1076 l 2100 1078 l 2100 1093 l 2100 1117 m 99 1101 q 97 1107 97 1101 l 97 1108 q 96 1111 97 1110 q 93 1115 93 1114 q 89 1131 92 1119 q 86 1131 88 1132 q 85 1132 85 1131 l 85 1136 q 81 1143 85 1139 l 81 1150 l 78 1153 q 76 1158 76 1154 q 75 1164 76 1161 l 74 1164 l 74 1167 q 71 1167 74 1169 q 69 1168 69 1167 l 69 1171 l 69 1175 l 69 1176 q 76 1177 74 1176 q 83 1178 79 1178 q 93 1165 89 1178 q 100 1152 96 1164 q 107 1136 104 1140 q 110 1125 108 1133 q 117 1117 113 1117 q 126 1131 121 1117 q 133 1150 131 1144 q 136 1153 135 1150 q 140 1163 138 1157 q 144 1172 142 1168 q 151 1178 147 1176 q 160 1174 157 1178 q 164 1165 164 1169 q 174 1143 167 1161 q 185 1119 182 1125 q 186 1117 185 1117 q 194 1124 190 1117 q 201 1141 197 1132 q 208 1159 206 1150 q 213 1171 211 1168 q 215 1170 214 1171 q 217 1169 215 1169 q 217 1176 217 1176 q 224 1176 219 1176 q 231 1178 229 1176 l 233 1178 q 238 1175 238 1178 l 236 1175 q 223 1142 229 1158 q 208 1108 217 1125 q 204 1099 208 1107 q 199 1090 200 1092 q 196 1083 197 1088 q 189 1079 194 1079 l 181 1079 q 182 1081 181 1079 q 178 1087 182 1083 q 174 1092 174 1090 q 172 1099 174 1094 q 168 1104 169 1106 l 167 1107 l 167 1108 l 168 1108 q 165 1113 164 1111 q 165 1118 165 1114 q 163 1124 163 1118 l 161 1124 q 158 1131 160 1126 q 151 1136 156 1136 q 144 1127 147 1136 q 137 1108 140 1118 q 128 1088 133 1097 q 117 1079 124 1079 q 107 1088 110 1079 l 106 1089 q 101 1103 101 1092 l 99 1101 m 746 1092 l 746 1103 l 746 1164 q 757 1178 749 1178 q 762 1176 760 1178 q 767 1175 764 1175 l 819 1121 l 826 1117 l 826 1115 q 831 1118 831 1115 l 831 1172 l 832 1175 l 833 1176 q 838 1176 835 1176 q 842 1178 840 1176 l 843 1178 q 853 1175 851 1178 l 853 1158 l 853 1142 q 852 1115 853 1135 q 851 1089 851 1096 q 839 1079 850 1079 l 838 1079 q 833 1081 836 1079 q 829 1082 831 1082 l 772 1139 q 769 1140 772 1140 q 767 1138 767 1140 l 767 1086 q 764 1079 767 1081 l 750 1079 q 746 1081 746 1079 l 746 1092 m 267 1081 q 256 1085 260 1079 q 249 1094 251 1092 l 246 1097 l 244 1099 l 244 1101 q 246 1106 244 1104 q 244 1107 244 1106 l 246 1107 q 244 1108 246 1107 l 244 1142 l 246 1142 q 245 1146 246 1144 q 244 1150 244 1147 q 252 1169 244 1161 q 271 1176 260 1176 l 344 1176 l 344 1161 q 342 1157 344 1157 l 340 1157 l 276 1157 q 269 1156 275 1157 q 264 1153 264 1156 l 264 1139 l 267 1136 l 343 1136 l 344 1135 l 344 1119 l 344 1118 l 343 1118 l 272 1118 q 269 1117 271 1118 q 265 1117 267 1117 l 264 1115 l 264 1104 l 265 1103 q 272 1100 268 1100 q 286 1100 276 1100 q 306 1099 296 1100 q 326 1099 317 1099 q 340 1099 336 1099 q 344 1097 344 1099 l 344 1081 l 343 1079 l 340 1079 q 336 1080 338 1079 q 332 1081 335 1081 q 329 1079 331 1079 l 274 1079 l 264 1081 l 267 1081 m 407 1082 q 408 1099 407 1090 q 408 1114 408 1107 l 408 1119 q 406 1123 407 1122 q 403 1126 404 1124 q 397 1133 400 1129 q 390 1139 393 1136 l 388 1142 q 379 1151 386 1143 q 369 1160 372 1158 q 358 1175 364 1164 l 356 1175 q 357 1176 356 1175 q 367 1177 364 1176 q 375 1178 371 1178 q 383 1175 381 1178 l 418 1140 q 422 1142 421 1140 q 429 1147 425 1142 q 436 1153 433 1153 q 446 1167 439 1158 q 457 1176 453 1176 l 482 1176 l 483 1175 l 481 1172 q 456 1147 468 1160 q 432 1122 443 1133 l 428 1118 l 428 1083 q 424 1079 428 1079 q 418 1079 421 1079 l 413 1079 q 407 1082 410 1082 m 503 1099 q 500 1122 500 1110 q 501 1144 500 1135 q 500 1146 500 1144 l 500 1149 q 501 1152 500 1151 q 501 1156 501 1153 q 499 1161 500 1160 q 499 1165 499 1163 l 499 1167 q 500 1169 499 1169 l 501 1171 l 501 1172 l 500 1174 l 500 1175 l 501 1176 q 509 1176 504 1176 q 517 1178 514 1176 l 518 1178 l 518 1176 q 521 1168 521 1174 l 521 1107 q 528 1101 521 1103 q 538 1100 535 1100 l 585 1100 q 589 1099 586 1100 q 592 1096 592 1099 l 592 1079 l 538 1079 q 519 1083 529 1079 q 504 1093 508 1086 q 503 1099 504 1099 m 638 1140 q 644 1148 642 1142 q 651 1161 647 1154 q 658 1173 654 1168 q 668 1178 663 1178 q 676 1175 674 1178 l 733 1083 q 735 1081 735 1083 q 733 1079 735 1079 l 711 1079 q 710 1081 710 1079 q 709 1082 710 1082 q 708 1083 708 1082 q 702 1094 706 1086 q 696 1106 699 1103 q 677 1107 685 1107 q 660 1107 669 1107 l 642 1107 q 636 1100 638 1106 q 631 1092 633 1099 q 625 1082 628 1085 l 624 1081 q 622 1079 624 1079 l 601 1079 q 603 1084 601 1082 q 606 1089 604 1086 l 638 1140 m 869 1165 q 870 1171 869 1168 q 871 1175 871 1174 l 872 1176 l 950 1176 q 966 1171 957 1176 q 975 1157 975 1165 l 975 1107 q 967 1088 975 1096 q 949 1079 958 1079 l 872 1079 l 869 1081 l 869 1165 m 176 1085 q 178 1083 178 1085 q 176 1082 178 1082 q 175 1083 175 1082 q 176 1085 175 1085 m 104 1089 q 106 1088 106 1089 q 104 1086 106 1086 q 103 1088 103 1086 q 104 1089 103 1089 m 507 1092 q 508 1092 508 1092 q 507 1093 508 1093 l 507 1092 m 1894 1154 q 1878 1153 1888 1154 q 1868 1142 1868 1153 l 1868 1104 q 1871 1100 1868 1101 q 1876 1099 1874 1099 l 1919 1099 q 1925 1101 1922 1099 q 1928 1107 1928 1103 q 1928 1118 1928 1108 q 1929 1131 1929 1128 l 1929 1135 q 1928 1149 1929 1142 q 1913 1155 1924 1156 q 1894 1154 1901 1154 m 890 1107 q 891 1106 890 1106 q 892 1104 892 1106 l 892 1101 l 893 1100 l 947 1100 q 952 1102 949 1100 q 956 1107 956 1104 l 956 1153 q 952 1156 956 1156 q 947 1156 949 1156 q 944 1156 946 1156 q 942 1157 943 1157 l 938 1157 l 917 1157 l 897 1157 q 892 1154 893 1157 q 890 1138 890 1144 q 890 1121 890 1132 l 890 1107 m 249 1108 q 247 1108 247 1108 q 249 1107 247 1107 l 249 1108 m 993 1117 q 993 1124 993 1119 q 997 1129 993 1129 l 1031 1128 l 1031 1110 l 1029 1108 l 1021 1108 l 993 1108 l 993 1117 m 410 1118 q 408 1117 408 1118 q 410 1117 408 1117 q 411 1117 411 1117 q 410 1118 411 1118 m 1424 1126 q 1425 1122 1424 1122 l 1447 1122 l 1447 1126 q 1443 1136 1447 1129 q 1436 1143 1439 1143 q 1428 1136 1432 1143 q 1424 1126 1424 1129 m 654 1129 q 657 1126 654 1126 l 678 1126 l 681 1129 q 676 1140 681 1132 q 667 1147 671 1147 q 659 1140 664 1147 q 654 1129 654 1132 m 2122 1131 q 2138 1129 2131 1129 q 2154 1129 2146 1129 q 2161 1130 2156 1129 q 2169 1131 2167 1131 q 2178 1131 2172 1131 q 2183 1135 2183 1132 l 2183 1147 q 2178 1151 2183 1149 q 2174 1153 2175 1153 l 2133 1153 l 2132 1153 q 2126 1153 2129 1153 q 2122 1151 2122 1154 q 2122 1144 2122 1149 q 2121 1139 2121 1140 l 2121 1138 q 2122 1133 2121 1135 q 2122 1131 2122 1132 m 1996 1132 q 2007 1131 2003 1131 q 2017 1131 2011 1131 q 2032 1131 2024 1131 q 2049 1132 2040 1132 l 2050 1132 q 2051 1133 2051 1132 q 2053 1133 2051 1133 l 2056 1135 l 2056 1150 q 2052 1152 2056 1151 q 2047 1153 2049 1153 l 2022 1153 l 2018 1153 q 2014 1153 2015 1153 q 2011 1154 2013 1154 q 2005 1153 2010 1154 q 1999 1153 2000 1153 q 1994 1149 1994 1153 q 1993 1142 1993 1144 q 1993 1136 1993 1139 q 1996 1132 1993 1133 m 104 1135 q 103 1133 103 1135 q 104 1132 103 1132 q 106 1133 106 1132 q 104 1135 106 1135 m 275 1132 q 276 1133 276 1132 q 275 1135 276 1135 l 275 1132 m 503 1164 q 501 1163 501 1164 q 503 1163 501 1163 l 503 1164 m 501 1165 q 500 1165 500 1165 q 501 1164 500 1164 l 501 1165 m 503 1175 q 501 1174 501 1175 q 503 1174 501 1174 l 503 1175 z "},"¦":{"ha":4594,"x_min":71,"x_max":4525,"o":"m 631 365 q 640 372 631 371 l 992 476 l 1011 476 q 1119 453 1064 463 q 1226 435 1174 443 q 1238 426 1238 438 l 1236 425 q 1207 411 1228 421 q 1163 391 1186 401 q 1118 371 1139 381 q 1089 357 1097 361 q 1010 336 1049 342 q 931 331 971 331 q 794 337 861 331 q 658 353 726 343 q 643 356 656 354 q 631 365 631 357 m 1315 426 l 1575 426 l 1575 419 l 1471 357 q 1435 343 1456 349 q 1397 335 1414 338 q 1349 334 1383 335 q 1274 333 1314 333 q 1200 331 1235 332 q 1151 331 1165 331 l 1143 331 q 1128 331 1139 331 q 1118 335 1118 332 l 1118 343 l 1315 426 m 2317 401 q 2317 411 2317 406 q 2322 419 2318 417 q 2378 425 2349 425 q 2432 425 2407 425 l 2503 425 q 2519 410 2508 421 q 2539 386 2529 399 q 2556 361 2549 374 q 2564 340 2564 349 q 2563 338 2564 339 q 2563 335 2563 336 q 2544 334 2557 335 q 2515 333 2531 333 q 2485 331 2499 332 q 2465 331 2471 331 l 2436 331 q 2396 333 2417 331 q 2357 342 2375 335 q 2328 363 2339 349 q 2317 401 2317 376 m 1508 346 q 1563 383 1535 364 q 1619 417 1592 401 q 1628 422 1622 418 q 1635 425 1633 425 l 1821 425 l 1821 419 q 1815 414 1821 419 q 1803 402 1810 408 q 1788 388 1796 396 q 1775 376 1779 381 q 1742 349 1761 363 q 1700 335 1722 335 l 1500 335 q 1503 342 1500 338 q 1508 346 1506 346 m 1782 343 l 1868 425 l 1876 426 q 1883 427 1876 426 q 1899 428 1890 428 q 1918 428 1908 428 q 1933 428 1928 428 q 1956 428 1942 428 q 1983 428 1969 428 q 2008 427 1997 428 q 2021 426 2018 426 q 2039 426 2024 426 q 2058 425 2054 426 l 2058 422 q 2060 419 2058 421 q 2053 410 2060 415 q 2009 357 2032 379 q 1946 335 1986 335 l 1788 335 q 1785 336 1786 335 l 1782 339 l 1782 340 l 1782 343 m 2046 346 q 2056 360 2049 350 q 2072 382 2064 371 q 2088 403 2081 393 q 2099 417 2096 413 q 2102 422 2100 418 q 2106 425 2104 425 l 2285 425 q 2294 418 2292 425 q 2296 404 2296 411 q 2278 356 2296 378 q 2232 335 2260 335 l 2050 335 q 2044 343 2044 335 l 2046 346 m 2738 425 q 2743 421 2740 424 q 2753 413 2750 414 q 2773 394 2761 406 q 2796 373 2785 383 q 2815 354 2807 363 q 2822 346 2822 346 l 2822 335 l 2656 335 q 2603 353 2624 335 q 2567 394 2583 371 q 2557 406 2564 397 q 2550 425 2550 415 l 2738 425 m 2792 418 l 2792 419 l 2797 425 q 2828 425 2806 425 q 2875 426 2850 425 q 2922 426 2900 426 q 2951 426 2943 426 l 2958 426 q 2967 427 2964 426 q 2975 425 2969 428 l 3101 346 l 3101 335 l 2908 335 q 2875 344 2892 335 q 2843 366 2858 353 q 2815 393 2828 379 q 2792 417 2801 407 l 2792 418 m 3039 425 q 3042 426 3039 426 q 3049 426 3046 426 l 3296 426 l 3492 339 l 3492 335 l 3226 335 q 3131 360 3176 335 q 3046 413 3086 386 q 3042 416 3044 414 q 3039 419 3039 418 l 3039 422 l 3039 425 m 3371 426 q 3383 437 3371 435 q 3399 440 3396 439 q 3408 442 3400 440 q 3426 444 3417 443 q 3443 446 3435 444 q 3454 447 3451 447 q 3475 451 3458 447 q 3512 458 3492 454 q 3551 466 3532 463 q 3581 472 3571 469 q 3589 474 3588 474 q 3591 476 3590 475 q 3593 476 3592 476 q 3601 476 3594 476 l 3610 476 l 3954 372 q 3962 369 3957 371 q 3967 363 3967 367 q 3824 337 3903 340 q 3679 333 3746 333 q 3664 333 3675 333 q 3641 334 3653 333 q 3618 335 3629 335 q 3603 335 3607 335 q 3569 342 3592 338 q 3532 353 3546 347 q 3501 367 3524 357 q 3452 388 3478 376 q 3403 410 3426 400 q 3372 425 3381 421 l 3371 426 m 282 503 q 290 514 282 513 q 304 517 297 515 l 729 589 l 761 589 q 844 540 804 560 q 936 499 885 519 q 940 494 936 499 l 940 493 l 940 492 q 936 490 939 492 q 932 486 933 488 l 619 394 q 587 391 607 392 q 556 390 567 390 q 525 391 540 390 q 494 394 510 392 q 471 402 489 397 q 446 410 453 407 q 435 414 443 411 q 419 420 428 417 q 401 426 410 424 q 389 432 393 429 q 365 444 382 435 q 329 463 347 453 q 297 485 311 474 q 282 503 282 496 m 3669 494 q 3671 497 3669 494 q 3672 499 3671 499 q 3692 508 3678 501 q 3723 523 3707 515 q 3753 538 3739 531 q 3774 547 3768 544 q 3785 554 3776 549 q 3805 566 3794 560 q 3824 578 3815 572 q 3836 585 3833 583 q 3842 588 3842 588 q 3850 589 3843 589 l 3860 589 l 4293 515 l 4313 506 l 4313 503 q 4303 490 4313 496 q 4289 481 4293 483 q 4169 417 4233 443 q 4033 390 4104 390 q 4008 391 4022 390 q 3982 394 3993 392 l 3696 481 q 3687 484 3694 482 q 3676 486 3679 486 q 3672 489 3675 486 l 3669 492 q 3668 493 3669 492 l 3669 494 m 2465 483 q 2493 519 2481 501 q 2518 558 2506 538 q 2519 560 2518 558 q 2522 561 2521 560 l 2596 561 l 2678 483 l 2678 476 q 2613 472 2646 472 q 2549 472 2579 472 l 2471 472 q 2465 481 2465 475 l 2465 483 m 2649 561 l 2757 561 l 2763 558 q 2771 556 2768 556 q 2791 542 2776 551 q 2821 523 2806 533 q 2851 503 2836 513 q 2871 492 2865 494 l 2882 481 l 2883 478 l 2882 476 q 2833 474 2853 475 q 2790 472 2814 472 q 2745 479 2765 472 q 2708 497 2725 486 q 2676 524 2692 508 q 2644 558 2661 540 l 2649 561 m 1772 565 l 1788 561 l 1788 560 q 1782 550 1788 551 q 1763 539 1776 547 q 1734 521 1750 531 q 1705 503 1718 511 q 1686 492 1692 494 q 1679 486 1679 492 q 1659 481 1672 485 q 1644 476 1646 476 l 1426 476 q 1429 483 1426 481 q 1435 486 1432 486 l 1613 561 q 1630 564 1614 563 q 1653 565 1646 565 l 1724 565 l 1772 565 m 1899 565 q 1911 565 1901 565 q 1931 563 1921 564 q 1951 562 1942 563 q 1965 561 1961 561 l 1965 558 q 1959 552 1965 558 q 1944 538 1953 546 q 1927 520 1936 529 q 1913 506 1918 511 q 1890 488 1904 499 q 1864 476 1876 476 l 1725 476 q 1732 486 1725 485 q 1767 511 1749 497 q 1806 537 1786 525 q 1847 557 1826 549 q 1890 565 1868 565 l 1899 565 m 1932 481 q 1933 483 1932 481 q 1935 486 1933 485 q 1949 499 1939 490 q 1969 519 1958 508 q 1988 538 1979 529 q 2001 550 1997 546 q 2005 553 2003 553 q 2010 557 2007 554 q 2015 561 2013 558 l 2088 561 q 2096 555 2092 561 q 2104 541 2100 549 q 2112 526 2108 533 q 2117 517 2115 518 q 2131 499 2119 513 q 2147 481 2143 485 l 2147 476 l 1935 476 q 1933 478 1933 476 q 1932 481 1932 479 m 2133 644 q 2148 708 2133 679 q 2187 758 2163 738 q 2242 791 2211 779 q 2307 803 2274 803 q 2370 791 2339 803 q 2426 758 2401 779 q 2465 707 2450 736 q 2481 643 2481 678 q 2466 573 2481 604 q 2427 520 2451 542 q 2370 488 2403 499 q 2301 476 2338 476 q 2235 490 2265 476 q 2181 525 2204 503 q 2146 578 2158 547 q 2133 644 2133 608 m 2826 558 q 2828 560 2826 558 q 2831 561 2829 560 l 2997 561 q 3082 524 3038 538 q 3168 486 3126 510 q 3172 476 3172 486 l 2967 476 q 2959 478 2965 476 q 2945 482 2953 479 q 2931 487 2938 485 q 2922 492 2925 489 l 2833 547 q 2829 550 2832 547 q 2826 556 2826 553 l 2826 558 m 1129 501 q 1122 510 1122 501 q 1129 517 1122 515 l 1413 603 l 1435 603 q 1483 584 1464 590 q 1531 569 1501 578 q 1532 568 1531 568 q 1533 567 1533 568 q 1535 567 1533 567 q 1538 565 1536 565 l 1538 564 l 1538 561 q 1510 550 1529 558 q 1470 532 1492 542 q 1430 514 1449 522 q 1404 501 1411 506 q 1378 492 1397 499 q 1347 483 1360 486 l 1297 483 l 1244 483 q 1222 487 1238 485 q 1188 492 1206 489 q 1153 498 1169 496 q 1129 501 1136 500 m 3075 564 q 3093 574 3075 572 q 3119 581 3111 576 q 3147 592 3126 583 q 3175 603 3168 600 l 3199 603 l 3488 515 l 3488 513 q 3481 505 3488 507 q 3472 501 3475 503 q 3449 498 3465 500 q 3413 492 3432 496 q 3377 487 3394 489 q 3354 483 3360 485 l 3307 483 l 3261 483 q 3215 497 3246 486 q 3153 522 3185 508 q 3099 547 3122 535 q 3075 564 3075 560 m 858 594 q 853 603 853 596 q 863 611 853 610 l 1300 681 l 1338 681 l 1386 633 l 1386 631 q 1388 628 1386 629 q 1378 621 1388 625 l 1092 536 q 1069 532 1085 533 q 1047 529 1053 531 l 1046 529 q 948 551 997 529 q 858 594 899 572 m 3222 628 q 3224 629 3224 628 q 3225 632 3224 631 q 3226 635 3226 633 l 3271 681 l 3301 681 l 3732 611 q 3742 609 3735 610 q 3751 603 3749 608 q 3739 592 3747 596 q 3725 585 3731 588 q 3646 548 3685 565 q 3563 531 3607 531 q 3538 531 3547 531 q 3514 536 3528 532 l 3231 621 q 3227 624 3231 622 q 3222 625 3224 625 l 3222 626 l 3222 628 m 3888 611 l 3888 621 q 3982 733 3940 674 l 3983 736 l 4067 736 l 4449 710 l 4474 707 l 4474 703 l 4474 700 q 4475 699 4474 699 q 4471 679 4475 688 q 4460 660 4467 671 q 4431 615 4446 636 q 4399 578 4417 594 q 4360 553 4382 563 q 4310 543 4338 543 q 4269 545 4292 543 q 4224 551 4247 547 q 4181 559 4201 554 q 4144 569 4160 564 l 3888 611 m 107 699 q 113 710 107 706 q 122 714 118 714 l 551 740 l 610 740 q 615 736 611 740 q 619 729 618 732 q 665 674 643 701 q 714 621 686 646 l 714 619 q 706 612 714 613 q 694 611 697 611 l 488 575 l 472 575 l 301 547 l 288 547 q 229 555 251 547 q 191 577 207 563 q 161 613 175 592 q 131 663 147 635 q 116 679 125 671 q 107 699 107 688 m 2538 614 q 2478 780 2535 722 q 2314 853 2421 838 q 2310 854 2310 853 q 2314 863 2310 858 q 2360 895 2336 889 q 2418 904 2385 901 l 2579 904 l 2742 904 q 2804 903 2761 904 q 2901 902 2847 903 q 3015 901 2956 901 q 3129 901 3075 901 q 3226 900 3183 900 q 3290 900 3269 900 l 3290 876 q 3273 783 3290 826 q 3226 706 3256 740 q 3155 649 3196 672 q 3068 614 3114 625 q 3051 611 3064 611 q 3035 611 3038 611 q 2994 610 3024 611 q 2933 608 2965 608 q 2871 606 2900 607 q 2831 606 2842 606 l 2710 606 l 2599 606 q 2583 606 2593 606 q 2564 608 2574 607 q 2547 610 2554 608 q 2540 611 2540 611 l 2538 614 m 2228 904 q 2273 890 2250 904 q 2303 854 2296 876 q 2289 851 2300 853 q 2265 847 2278 849 q 2239 842 2251 844 q 2221 836 2226 839 q 2115 757 2146 806 q 2075 633 2085 708 q 2074 619 2075 626 q 2072 611 2074 611 l 1575 611 q 1488 631 1532 611 q 1407 682 1443 650 q 1347 755 1371 714 q 1318 840 1322 796 q 1317 853 1318 844 q 1317 872 1317 861 q 1316 891 1317 882 q 1315 904 1315 900 l 2228 904 m 3301 718 q 3304 733 3301 724 q 3312 753 3307 743 q 3322 772 3317 764 q 3331 779 3326 779 l 3335 779 q 3360 778 3340 779 q 3401 776 3379 778 q 3444 774 3424 775 q 3469 774 3464 774 l 3479 774 l 3907 743 q 3911 736 3911 743 q 3904 721 3911 729 q 3843 663 3875 692 q 3768 635 3811 635 l 3754 635 l 3310 710 q 3306 713 3308 710 q 3301 718 3303 715 m 690 747 l 1240 779 q 1249 780 1243 779 q 1258 781 1256 781 q 1273 781 1264 781 q 1286 778 1282 782 q 1295 755 1289 772 q 1303 733 1301 738 q 1307 724 1306 726 q 1308 717 1308 722 q 1299 710 1308 713 q 1278 706 1290 708 q 1253 703 1265 704 q 1233 699 1240 701 l 867 640 l 839 640 q 815 640 825 640 q 792 643 804 639 q 764 658 781 647 q 731 684 747 669 q 702 713 714 699 q 690 740 690 728 l 690 747 m 4011 779 q 4013 789 4011 782 q 4018 803 4015 796 q 4023 817 4021 811 q 4025 825 4025 824 q 4029 840 4026 829 q 4035 864 4032 851 q 4040 888 4038 876 q 4044 904 4043 900 l 4051 907 q 4090 908 4051 907 q 4183 909 4129 908 q 4294 910 4238 910 q 4389 911 4351 911 l 4465 911 l 4513 911 l 4515 907 l 4515 900 q 4516 894 4515 897 q 4517 890 4517 892 q 4516 851 4517 872 q 4511 811 4515 831 q 4496 776 4507 792 q 4464 751 4485 760 q 4428 747 4450 746 q 4399 747 4407 747 l 4356 747 l 4018 769 l 4015 772 q 4011 778 4011 776 l 4011 779 m 78 808 q 74 851 76 829 q 71 897 71 874 q 72 906 71 904 q 78 915 72 908 q 101 915 85 915 q 137 916 118 915 q 172 917 156 917 q 196 917 189 917 q 226 917 207 917 q 263 916 244 917 q 296 915 282 915 q 313 915 310 915 q 358 915 325 915 q 426 913 390 914 q 496 912 463 913 q 542 911 529 911 q 554 904 549 910 q 586 785 564 844 l 586 782 q 588 779 586 781 l 588 776 q 583 774 588 774 l 554 769 q 509 767 547 769 q 423 761 471 764 q 327 756 375 758 q 253 751 279 753 q 231 751 250 751 q 201 750 211 750 q 187 750 196 750 q 169 751 178 750 q 153 751 160 751 q 146 751 146 751 q 103 768 115 751 q 78 808 92 785 m 3339 814 l 3339 825 l 3339 840 q 3343 874 3340 853 q 3346 897 3346 896 l 3350 900 q 3429 901 3392 900 q 3496 902 3461 901 q 3554 904 3531 903 q 3761 906 3658 906 q 3967 907 3864 907 q 3976 907 3972 907 q 3983 904 3981 907 l 3983 897 q 3985 892 3983 894 q 3878 778 3985 778 l 3874 778 l 3346 811 l 3339 814 m 613 904 q 617 907 613 907 l 1251 907 l 1264 897 q 1265 890 1264 897 q 1266 872 1265 882 q 1268 851 1267 861 q 1269 832 1269 840 l 1269 829 q 1270 826 1269 828 q 1271 824 1271 825 q 1261 814 1271 815 q 1244 811 1251 813 l 750 779 l 722 779 q 640 808 668 779 q 613 892 613 838 l 613 904 m 2254 947 q 2128 948 2210 947 q 1942 949 2047 949 q 1716 951 1838 950 q 1469 952 1594 951 q 1222 953 1344 953 q 995 955 1100 954 q 809 956 890 956 q 683 956 728 956 l 636 956 q 578 956 618 956 q 490 958 539 957 q 387 960 442 958 q 283 963 332 961 q 195 965 235 964 q 138 967 156 965 q 88 985 106 969 q 71 1035 71 1000 q 72 1047 71 1042 q 82 1056 72 1053 l 178 1056 l 275 1056 q 428 1055 329 1056 q 656 1053 528 1054 q 932 1051 783 1051 q 1233 1049 1081 1050 q 1535 1046 1386 1047 q 1811 1044 1683 1044 q 2038 1042 1939 1043 q 2192 1040 2138 1042 q 2257 1018 2226 1038 q 2303 967 2288 999 l 2307 967 q 2322 980 2318 967 q 2333 1000 2325 993 q 2385 1032 2357 1021 q 2447 1040 2414 1043 q 3432 1044 2942 1038 q 4418 1051 3922 1051 l 4515 1051 q 4524 1040 4521 1050 q 4507 984 4525 1003 q 4453 960 4489 965 q 4335 958 4411 958 q 4161 956 4260 957 q 3949 954 4063 956 q 3717 952 3835 953 q 3486 951 3600 951 q 3274 949 3372 950 q 3099 948 3175 949 q 2982 947 3024 947 l 2365 947 q 2350 942 2358 947 q 2333 932 2342 938 q 2318 922 2325 926 q 2307 918 2311 918 l 2303 918 q 2281 937 2292 929 q 2254 947 2269 944 z "},"|":{"ha":289,"x_min":69,"x_max":219,"o":"m 219 1388 l 219 0 l 69 0 l 69 1388 l 219 1388 z "},"A":{"ha":1961,"x_min":69,"x_max":1892,"o":"m 982 1386 l 1892 1 l 1714 1 l 1306 622 l 656 622 l 247 1 l 69 1 l 982 1386 m 1201 782 l 982 1121 l 760 782 l 1201 782 z "},"B":{"ha":974,"x_min":46,"x_max":914,"o":"m 46 143 l 415 143 q 528 156 469 143 q 633 198 586 169 q 711 272 681 226 q 742 381 742 317 q 704 497 742 451 q 606 568 667 542 q 469 606 544 594 q 315 619 393 617 q 167 621 238 622 q 46 621 96 619 l 46 779 q 164 779 93 781 q 312 781 235 778 q 466 794 389 783 q 604 829 543 804 q 703 898 665 854 q 742 1011 742 942 q 712 1122 742 1076 q 635 1197 682 1168 q 529 1240 588 1226 q 415 1253 471 1253 l 46 1253 l 46 1396 l 551 1396 q 696 1366 629 1396 q 811 1285 763 1336 q 887 1165 860 1233 q 914 1022 914 1097 q 895 928 914 972 q 847 845 876 885 q 780 770 817 806 q 707 701 743 735 l 707 694 q 780 626 743 661 q 847 551 817 590 q 895 467 876 511 q 914 374 914 424 q 886 231 914 299 q 810 112 858 163 q 695 31 761 61 q 551 0 629 0 l 46 0 l 46 143 z "},"C":{"ha":1546,"x_min":69,"x_max":1519,"o":"m 69 692 q 128 967 69 840 q 288 1188 188 1094 q 519 1335 388 1282 q 796 1389 651 1389 q 1013 1358 908 1389 q 1205 1268 1117 1326 q 1363 1127 1293 1210 q 1479 942 1433 1044 q 1493 901 1486 925 q 1506 853 1500 878 q 1515 804 1511 828 q 1518 763 1518 781 l 1360 763 l 1353 783 q 1273 971 1324 885 q 1151 1120 1222 1057 q 991 1219 1081 1183 q 796 1254 901 1254 q 578 1211 681 1254 q 399 1092 476 1168 q 277 915 322 1017 q 232 694 232 813 q 277 476 232 578 q 399 299 322 374 q 578 180 476 224 q 796 136 681 136 q 981 178 890 136 q 1146 288 1071 219 q 1275 444 1221 357 q 1353 625 1329 532 l 1519 625 q 1509 558 1519 599 q 1484 476 1499 518 q 1453 397 1469 435 q 1426 336 1438 358 q 1310 190 1381 254 q 1156 83 1240 126 q 980 17 1072 39 q 796 -6 888 -6 q 519 47 651 -6 q 288 194 388 100 q 128 415 188 288 q 69 692 69 543 z "},"D":{"ha":1044,"x_min":69,"x_max":975,"o":"m 69 142 q 237 160 150 142 q 406 212 324 178 q 563 295 489 246 q 691 407 636 344 q 778 544 746 469 q 811 703 811 618 q 778 859 811 786 q 690 994 746 932 q 559 1104 633 1056 q 402 1186 485 1153 q 234 1238 319 1219 q 69 1256 149 1256 l 69 1392 q 283 1371 175 1392 q 491 1309 390 1350 q 680 1208 592 1268 q 833 1072 768 1149 q 937 900 899 994 q 975 696 975 806 q 937 492 975 586 q 833 319 899 397 q 680 182 768 242 q 491 81 592 122 q 283 19 390 40 q 69 -1 175 -1 l 69 142 l 69 142 z "},"G":{"ha":1546,"x_min":69,"x_max":1517,"o":"m 69 693 q 126 974 69 846 q 281 1193 183 1101 q 512 1336 379 1285 q 794 1388 644 1388 q 1048 1341 925 1388 q 1269 1211 1171 1294 q 1434 1014 1368 1128 q 1517 765 1500 900 l 1354 765 l 1346 772 q 1273 957 1324 869 q 1150 1110 1222 1044 q 987 1215 1078 1176 q 794 1253 896 1253 q 581 1209 682 1253 q 401 1090 479 1165 q 278 914 324 1014 q 232 701 232 814 q 277 484 232 586 q 399 306 322 382 q 577 184 475 229 q 794 139 679 139 q 978 182 892 139 q 1137 294 1065 225 q 1263 451 1208 364 q 1349 628 1317 539 l 1511 628 l 1503 -1 l 1335 -1 l 1335 214 q 1084 54 1214 110 q 794 -1 954 -1 q 512 50 644 -1 q 281 193 379 101 q 126 413 183 285 q 69 693 69 540 z "},"J":{"ha":854,"x_min":69,"x_max":785,"o":"m 785 1390 l 785 607 q 776 542 785 575 q 757 481 768 508 q 647 283 715 372 q 488 132 578 194 q 292 35 399 69 q 69 0 186 0 l 69 136 q 85 142 69 139 q 122 148 101 144 q 163 154 143 151 q 189 158 182 157 q 353 233 274 183 q 492 351 432 282 q 589 503 553 419 q 625 681 625 586 l 625 1390 l 785 1390 z "},"K":{"ha":796,"x_min":69,"x_max":726,"o":"m 69 594 l 69 817 l 532 1389 l 726 1389 l 156 707 l 725 0 l 568 0 l 69 594 z "},"L":{"ha":868,"x_min":38,"x_max":822,"o":"m 822 143 l 822 0 l 38 0 l 38 143 l 822 143 m 188 1389 l 188 7 l 38 7 l 38 1389 l 188 1389 z "},"N":{"ha":1453,"x_min":69,"x_max":1383,"o":"m 69 1389 l 264 1389 l 1231 201 l 1231 1389 l 1383 1389 l 1383 -1 l 1231 -1 l 69 1389 z "},"Q":{"ha":1589,"x_min":69,"x_max":1519,"o":"m 69 694 q 126 975 69 847 q 281 1194 183 1103 q 512 1338 379 1286 q 794 1389 644 1389 q 1076 1338 944 1389 q 1307 1194 1208 1286 q 1463 975 1406 1103 q 1519 694 1519 847 q 1503 544 1519 615 q 1458 410 1488 474 q 1385 287 1428 346 q 1288 171 1342 228 l 1288 163 q 1304 135 1292 154 q 1331 93 1317 115 q 1358 51 1346 71 q 1376 22 1371 31 q 1381 15 1379 21 q 1383 8 1383 10 l 1206 8 l 1153 82 q 978 19 1064 39 q 794 0 893 0 q 512 51 644 0 q 281 194 379 103 q 126 414 183 286 q 69 694 69 542 m 232 703 q 277 485 232 588 q 399 307 322 383 q 577 185 475 231 q 794 140 679 140 q 855 147 811 140 q 946 163 899 153 q 1029 188 993 174 q 1065 218 1065 201 q 1065 220 1065 219 q 1064 222 1064 221 l 1064 224 l 976 364 l 1153 364 l 1192 311 q 1264 391 1233 344 q 1315 490 1294 438 q 1344 597 1335 542 q 1354 703 1354 651 q 1309 915 1354 815 q 1187 1091 1264 1015 q 1008 1210 1110 1167 q 794 1254 907 1254 q 581 1210 682 1254 q 401 1091 479 1167 q 278 915 324 1015 q 232 703 232 815 z "},"V":{"ha":1960,"x_min":69,"x_max":1890,"o":"m 254 1389 l 968 297 q 971 293 968 296 q 975 289 974 290 l 979 289 l 983 289 q 987 293 985 290 q 992 297 989 296 q 1022 345 1000 311 q 1069 417 1044 379 q 1117 490 1094 456 q 1149 539 1139 525 q 1160 553 1151 542 q 1171 568 1168 565 l 1704 1389 l 1890 1389 l 979 4 l 69 1389 l 254 1389 z "},"W":{"ha":2874,"x_min":69,"x_max":2804,"o":"m 254 1388 l 968 297 q 970 293 968 296 q 974 289 972 290 l 979 289 l 982 289 l 990 297 q 1021 344 999 310 q 1068 417 1043 378 q 1115 490 1093 456 q 1147 538 1138 524 q 1158 552 1150 540 q 1169 567 1167 564 l 1425 967 q 1429 971 1426 968 q 1433 974 1432 974 l 1435 974 q 1437 974 1436 974 q 1439 975 1438 975 l 1442 974 l 1638 672 l 1643 665 l 1885 297 l 1893 289 l 1896 289 l 1900 289 q 1904 293 1901 290 q 1907 297 1907 296 l 2621 1388 l 2804 1388 l 1896 4 l 1436 701 l 979 4 l 69 1388 l 254 1388 z "},"X":{"ha":1457,"x_min":69,"x_max":1388,"o":"m 639 706 l 69 1388 l 264 1388 l 718 828 q 722 824 719 826 q 725 821 724 821 q 726 819 725 819 l 729 819 l 732 821 q 736 824 733 821 q 740 828 739 826 l 1194 1388 l 1388 1388 l 818 706 l 1386 0 l 1229 0 l 754 568 l 732 590 l 729 590 l 725 590 q 714 579 722 588 q 703 568 706 571 l 228 0 l 71 0 l 639 706 z "},"Y":{"ha":1467,"x_min":69,"x_max":1397,"o":"m 640 706 l 69 1389 l 265 1389 l 722 825 q 726 822 724 824 q 731 819 729 819 l 732 818 q 733 817 732 817 l 736 819 q 740 822 738 819 q 744 825 743 824 l 1201 1389 l 1397 1389 l 815 693 l 815 0 l 657 0 l 657 683 l 640 706 z "},"Z":{"ha":1457,"x_min":69,"x_max":1388,"o":"m 1083 1254 l 76 1254 l 76 1388 l 1388 1388 l 361 157 l 354 139 l 1388 139 l 1388 0 l 69 0 l 1083 1254 z "},"%":{"ha":1167,"x_min":69,"x_max":1097,"o":"m 183 182 l 69 182 l 946 1264 l 1083 1264 l 183 182 m 69 1021 q 88 1122 69 1075 q 139 1203 107 1169 q 213 1257 171 1238 q 301 1276 256 1276 q 389 1257 347 1276 q 463 1203 431 1238 q 513 1122 494 1169 q 532 1021 532 1075 q 513 920 532 967 q 463 840 494 874 q 389 786 431 806 q 301 767 347 767 q 213 786 256 767 q 139 840 171 806 q 88 920 107 874 q 69 1021 69 967 m 121 1022 q 135 943 121 981 q 175 878 150 906 q 233 834 200 850 q 301 818 265 818 q 370 834 338 818 q 427 878 403 850 q 466 943 451 906 q 481 1022 481 981 q 466 1103 481 1065 q 427 1168 451 1140 q 370 1212 403 1196 q 301 1228 338 1228 q 233 1212 265 1228 q 175 1168 200 1196 q 135 1103 150 1140 q 121 1022 121 1065 m 635 435 q 653 535 635 489 q 704 616 672 582 q 778 669 736 650 q 867 689 821 689 q 955 669 913 689 q 1028 616 997 650 q 1078 535 1060 582 q 1097 435 1097 489 q 1078 333 1097 381 q 1028 252 1060 286 q 955 199 997 218 q 867 179 913 179 q 778 199 821 179 q 704 252 736 218 q 653 333 672 286 q 635 435 635 381 m 688 436 q 702 356 688 393 q 741 290 717 318 q 798 247 765 263 q 867 231 831 231 q 935 247 903 231 q 992 290 968 263 q 1031 356 1017 318 q 1046 436 1046 393 q 1031 516 1046 479 q 992 581 1017 553 q 935 624 968 608 q 867 640 903 640 q 798 624 831 640 q 741 581 765 608 q 702 516 717 553 q 688 436 688 479 z "},"P":{"ha":958,"x_min":60,"x_max":928,"o":"m 67 760 q 130 760 85 760 q 226 760 175 760 q 322 762 276 761 q 385 763 367 763 q 516 772 450 764 q 635 806 582 781 q 722 881 689 832 q 756 1011 756 929 q 726 1122 756 1076 q 649 1197 696 1168 q 543 1240 601 1226 q 429 1253 485 1253 l 60 1253 l 60 1396 l 565 1396 q 710 1366 643 1396 q 825 1285 776 1336 q 901 1165 874 1233 q 928 1022 928 1097 q 902 879 928 949 q 829 756 876 810 q 717 670 782 703 q 574 638 653 638 l 222 638 l 222 0 l 67 0 l 67 760 l 67 760 z "},"R":{"ha":1156,"x_min":22,"x_max":1111,"o":"m 444 761 l 438 776 q 463 789 447 783 q 494 799 478 794 q 526 808 511 804 q 550 815 542 811 q 665 888 621 839 q 710 1015 710 936 q 677 1135 710 1079 q 581 1215 644 1192 q 553 1225 569 1219 q 519 1235 536 1231 q 490 1244 503 1240 q 475 1249 476 1249 l 22 1249 l 22 1389 l 483 1389 q 494 1387 485 1389 q 516 1383 504 1385 q 540 1378 528 1381 q 558 1374 551 1375 q 684 1326 626 1357 q 782 1250 742 1294 q 845 1147 822 1206 q 868 1014 868 1088 q 815 833 868 907 q 671 701 763 758 l 671 686 l 1111 7 l 932 7 l 444 761 z "},"O":{"ha":1585,"x_min":51,"x_max":1525,"o":"m 51 699 q 112 978 51 849 q 274 1203 172 1108 q 508 1351 375 1297 q 789 1406 642 1406 q 1069 1351 936 1406 q 1304 1203 1203 1297 q 1465 978 1406 1108 q 1525 699 1525 849 q 1465 419 1525 549 q 1304 194 1406 289 q 1069 46 1203 100 q 789 -8 936 -8 q 508 46 642 -8 q 274 194 375 100 q 112 419 172 289 q 51 699 51 549 m 218 703 q 263 481 218 585 q 387 301 308 378 q 569 181 465 225 q 789 136 672 136 q 1009 181 906 136 q 1191 301 1113 225 q 1315 481 1269 378 q 1360 703 1360 585 q 1315 924 1360 821 q 1191 1104 1269 1028 q 1009 1225 1113 1181 q 789 1269 906 1269 q 569 1225 672 1269 q 387 1104 465 1181 q 263 924 308 1028 q 218 703 218 821 z "},"M":{"ha":1451,"x_min":69,"x_max":1382,"o":"m 1203 1103 l 753 556 l 749 556 l 744 556 l 722 578 l 69 1381 l 76 1388 l 249 1388 q 262 1383 256 1388 q 272 1374 268 1378 l 722 804 q 733 792 725 800 q 744 781 742 783 l 749 781 l 753 781 q 756 785 753 782 q 760 789 758 788 l 1215 1388 l 1382 1388 l 1382 0 l 1229 0 l 1229 1125 l 1203 1103 z "},"E":{"ha":868,"x_min":38,"x_max":822,"o":"m 822 143 l 822 0 l 38 0 l 38 143 l 822 143 m 822 769 l 822 626 l 38 626 l 38 769 l 822 769 m 822 1396 l 822 1253 l 38 1253 l 38 1396 l 822 1396 z "},"T":{"ha":1268,"x_min":38,"x_max":1231,"o":"m 38 1249 l 38 1396 l 1231 1396 l 1231 1249 l 728 1249 l 728 0 l 569 0 l 569 1249 l 38 1249 z "},"H":{"ha":874,"x_min":-192,"x_max":804,"o":"m -192 622 l -192 767 l 650 767 l 650 1389 l 804 1389 l 804 0 l 650 0 l 650 622 l -192 622 z "},"U":{"ha":1283,"x_min":60,"x_max":1215,"o":"m 200 1389 l 200 536 q 203 517 200 532 q 210 483 206 501 q 219 448 214 465 q 226 422 224 431 q 289 304 247 357 q 385 214 331 251 q 503 156 439 176 q 633 135 567 135 q 761 153 699 135 q 878 205 824 171 q 974 288 932 239 q 1042 400 1017 338 q 1049 422 1044 408 q 1058 448 1054 435 q 1065 471 1063 461 q 1068 483 1068 481 l 1068 1389 l 1215 1389 l 1215 468 q 1188 344 1215 406 q 1124 233 1160 282 q 905 46 1033 108 q 622 -17 776 -17 q 409 24 511 -17 q 229 138 307 65 q 106 308 151 210 q 60 521 60 406 l 60 1389 l 200 1389 z "},"S":{"ha":921,"x_min":58,"x_max":861,"o":"m 82 294 q 169 238 125 265 q 259 190 213 211 q 355 156 306 169 q 457 143 404 143 q 552 161 508 143 q 628 211 596 179 q 677 287 660 243 q 694 381 694 331 l 694 438 q 669 490 686 467 q 630 531 651 513 q 583 566 608 550 q 535 596 558 582 q 520 604 532 599 q 506 611 508 610 q 325 683 407 650 q 184 763 243 715 q 92 882 125 810 q 58 1072 58 954 q 87 1186 58 1132 q 160 1285 115 1240 q 260 1360 206 1329 q 369 1404 315 1392 l 464 1404 q 622 1393 547 1404 q 769 1336 697 1382 q 788 1319 776 1331 q 800 1306 800 1308 l 800 1147 l 792 1147 q 640 1220 718 1186 q 478 1254 563 1254 q 385 1241 429 1254 q 307 1201 342 1228 q 252 1136 272 1175 q 232 1046 232 1097 q 259 938 232 981 q 331 863 286 894 q 431 810 375 832 q 547 764 488 788 q 662 711 606 740 q 763 638 718 682 q 834 532 807 594 q 861 378 861 469 q 828 210 861 283 q 738 86 796 136 q 601 10 679 36 q 431 -17 522 -17 q 274 9 347 -17 q 128 75 200 35 q 99 93 117 82 q 82 106 82 104 l 82 294 l 82 294 z "},"F":{"ha":868,"x_min":38,"x_max":822,"o":"m 822 769 l 822 626 l 38 626 l 38 769 l 822 769 m 822 1396 l 822 1253 l 38 1253 l 38 1396 l 822 1396 z "},"I":{"ha":293,"x_min":68,"x_max":218,"o":"m 218 1388 l 218 0 l 68 0 l 68 1388 l 218 1388 z "},"¿":{"ha":949,"x_min":0,"x_max":947,"o":"m 160 154 q 195 238 160 207 q 276 288 231 269 l 422 343 q 439 369 436 349 q 442 400 442 389 q 429 451 442 426 q 407 499 417 475 q 397 558 397 524 q 406 630 397 594 q 425 700 414 665 l 425 714 q 423 738 425 726 q 406 750 421 750 q 372 745 389 750 q 339 740 356 740 q 298 753 311 740 q 285 796 285 765 q 294 837 285 815 q 326 858 303 858 q 340 856 333 858 q 354 854 347 854 q 358 858 358 854 q 354 863 358 863 q 347 863 350 863 q 289 861 319 863 q 232 849 258 860 q 192 826 207 838 q 150 818 176 815 q 110 799 131 810 q 76 771 89 789 q 67 751 74 765 q 50 736 61 736 q 38 749 38 736 q 44 781 38 769 q 63 799 51 792 q 88 811 74 806 q 115 825 101 817 q 142 844 131 832 q 171 858 154 856 q 190 862 175 860 q 208 865 204 864 l 350 914 q 341 926 344 924 q 328 932 338 929 q 161 944 244 946 q 150 948 154 947 q 139 949 146 949 l 131 949 q 119 947 128 949 q 101 944 111 946 q 83 940 92 942 q 72 938 74 938 q 41 934 56 935 q 10 928 26 933 q 0 943 0 931 q 1 949 0 946 q 17 956 4 951 q 32 964 29 961 q 40 969 35 965 q 49 972 46 972 l 131 972 q 146 978 139 972 q 161 985 153 985 l 163 985 q 176 983 167 985 q 197 978 186 981 q 218 973 208 975 q 232 971 228 971 q 246 969 235 969 q 260 968 257 968 q 269 966 261 968 q 279 964 276 964 l 288 964 q 314 968 301 964 q 340 972 326 972 q 346 981 346 978 q 342 990 346 986 q 335 996 338 993 q 319 1006 331 999 q 294 1022 307 1014 q 271 1038 282 1031 q 256 1047 260 1044 q 222 1063 239 1058 q 189 1078 204 1068 q 176 1089 181 1083 q 165 1101 172 1094 q 129 1117 147 1111 q 94 1132 111 1124 q 74 1137 88 1135 q 61 1150 61 1139 q 74 1165 61 1164 q 97 1165 88 1165 q 123 1155 111 1165 q 146 1138 135 1144 q 178 1128 161 1129 q 208 1117 194 1126 q 242 1091 224 1106 q 280 1063 260 1076 q 322 1041 300 1050 q 364 1032 343 1032 q 371 1035 365 1032 l 371 1043 q 368 1065 371 1054 q 364 1086 365 1075 l 331 1150 q 327 1155 329 1151 q 324 1160 325 1158 q 315 1169 321 1163 q 303 1182 310 1175 q 291 1195 297 1189 q 283 1204 285 1201 q 274 1222 279 1213 q 261 1239 269 1232 q 240 1255 254 1243 q 222 1268 225 1267 q 196 1276 213 1275 q 179 1293 179 1278 q 191 1311 179 1306 q 213 1317 203 1317 q 231 1310 225 1317 q 244 1294 238 1303 q 260 1278 249 1290 q 274 1263 271 1265 q 298 1247 285 1251 q 321 1231 311 1243 q 328 1215 322 1226 q 340 1192 333 1204 q 351 1170 346 1181 q 360 1156 357 1160 q 381 1120 368 1142 q 407 1078 394 1099 q 430 1041 419 1057 q 442 1024 440 1025 l 444 1022 q 454 1034 447 1029 q 468 1039 461 1039 l 472 1039 q 479 1037 474 1039 q 486 1035 485 1035 l 488 1035 q 494 1042 489 1035 q 505 1059 500 1050 q 515 1077 510 1068 q 521 1089 519 1086 q 528 1101 524 1093 q 539 1117 533 1108 q 549 1132 544 1125 q 556 1142 554 1139 q 573 1183 567 1161 q 590 1226 579 1206 q 603 1241 594 1236 q 618 1254 611 1246 q 667 1342 649 1294 q 674 1349 668 1346 q 688 1353 681 1351 q 701 1356 694 1356 q 711 1357 708 1357 q 722 1352 718 1357 q 725 1340 725 1347 q 719 1329 725 1335 q 704 1317 713 1324 q 688 1304 696 1311 q 675 1292 679 1297 q 667 1282 672 1289 q 657 1267 663 1275 q 646 1251 651 1258 q 639 1240 640 1243 q 635 1222 636 1232 q 628 1203 633 1211 q 615 1186 622 1193 q 600 1169 607 1179 q 594 1160 597 1167 q 590 1150 592 1154 q 583 1135 588 1146 q 574 1113 579 1125 q 565 1090 569 1101 q 560 1075 561 1079 q 555 1064 557 1071 q 553 1050 553 1057 q 560 1044 553 1047 q 569 1042 567 1042 q 617 1055 592 1042 q 657 1082 642 1068 q 666 1090 658 1083 q 682 1104 674 1097 q 698 1118 690 1111 q 708 1126 706 1125 q 742 1146 722 1139 q 776 1160 761 1153 q 783 1163 778 1160 l 789 1165 q 807 1179 793 1168 q 824 1193 821 1190 q 839 1200 828 1197 q 856 1203 850 1203 q 869 1189 869 1203 q 858 1174 869 1182 q 833 1159 847 1167 q 806 1146 819 1151 q 788 1138 792 1140 q 775 1131 783 1135 q 765 1125 767 1126 q 758 1119 763 1124 q 748 1109 753 1114 q 738 1099 743 1104 q 732 1093 733 1094 q 715 1085 724 1088 q 697 1078 706 1083 q 659 1047 676 1064 q 622 1014 642 1029 q 603 1003 615 1007 q 592 990 592 1000 q 608 976 592 978 q 633 975 624 975 l 638 975 q 653 978 642 976 q 676 984 664 981 q 701 990 689 988 q 717 994 713 993 q 740 1003 729 997 q 763 1010 750 1010 q 793 1007 778 1010 q 824 1004 808 1004 q 858 1009 842 1004 q 893 1014 875 1014 l 897 1014 l 942 1003 q 947 992 947 1001 q 933 976 947 981 l 900 976 q 865 978 882 976 q 828 981 847 981 q 795 975 810 981 q 764 967 781 969 q 756 966 763 967 q 742 964 750 965 q 728 962 735 963 q 721 961 722 961 q 706 959 717 961 q 684 954 696 957 q 660 949 672 951 q 643 944 649 946 q 628 940 640 944 q 610 933 615 936 q 600 919 600 932 q 604 914 600 917 l 728 872 q 747 869 738 868 q 765 863 757 869 q 773 853 772 860 q 779 842 774 846 q 799 829 788 833 q 822 819 811 825 q 842 808 831 815 q 865 790 854 800 q 883 767 875 779 q 890 744 890 756 q 883 736 890 739 q 874 733 876 733 q 862 741 867 733 q 854 751 857 749 l 811 794 q 772 818 794 811 q 755 822 763 821 q 738 826 747 822 q 698 849 715 838 q 651 861 681 861 l 643 861 q 658 833 654 844 q 663 803 663 822 q 649 756 663 768 q 597 744 635 744 q 570 749 583 744 q 543 754 557 754 q 528 744 532 754 q 524 713 525 729 q 519 681 522 696 q 517 673 518 678 q 515 665 515 668 q 511 654 514 663 q 504 635 508 646 q 497 616 500 625 q 493 606 494 607 q 489 579 489 593 q 489 551 489 565 q 494 510 489 531 q 506 471 500 490 q 518 431 513 451 q 524 390 524 411 q 512 339 524 360 q 481 304 500 318 q 437 281 461 290 q 388 264 413 271 l 279 215 q 249 188 264 208 q 233 150 233 167 q 257 106 233 119 q 307 92 281 92 q 379 115 349 92 q 442 163 410 139 q 556 201 492 201 q 621 193 588 201 q 682 168 654 185 q 687 164 683 167 q 690 158 690 161 l 690 157 q 686 153 690 153 l 685 153 l 596 176 q 585 178 592 178 q 574 178 579 178 q 499 156 532 178 q 436 107 467 133 q 373 58 406 81 q 297 36 340 36 q 200 65 240 36 q 160 154 160 93 z "},"™":{"ha":896,"x_min":50,"x_max":951,"o":"m 50 1033 l 50 1083 l 464 1083 l 464 1033 l 289 1033 l 289 600 l 235 600 l 235 1033 l 50 1033 m 889 985 l 732 794 l 731 794 l 729 794 q 726 798 728 796 q 721 801 724 800 l 493 1082 l 496 1085 l 556 1085 q 564 1081 560 1085 l 721 881 q 725 876 722 879 q 729 874 728 874 l 731 874 l 732 874 l 735 876 l 893 1085 l 951 1085 l 951 600 l 897 600 l 897 993 l 889 985 z "},"-":{"ha":924,"x_min":69,"x_max":854,"o":"m 854 767 l 854 624 l 69 624 l 69 767 l 854 767 z "},"\\":{"ha":1442,"x_min":69,"x_max":1372,"o":"m 69 1389 l 247 1389 l 1372 0 l 1226 0 l 69 1389 z "},"/":{"ha":1442,"x_min":69,"x_max":1372,"o":"m 215 0 l 69 0 l 1194 1389 l 1372 1389 l 215 0 z "},"£":{"ha":1890,"x_min":69,"x_max":1821,"o":"m 74 -156 l 71 -156 l 71 -153 l 74 -156 m 71 -143 q 71 -144 72 -144 q 69 -144 69 -146 q 71 -143 69 -143 m 446 249 l 446 251 q 447 256 446 256 l 1560 256 q 1564 250 1564 256 q 1563 244 1564 247 q 1479 153 1526 192 q 1377 87 1432 115 q 1263 40 1322 58 q 1143 11 1203 22 q 1125 8 1138 10 q 1100 5 1113 7 q 1076 1 1088 3 q 1061 0 1065 0 l 933 0 q 922 1 932 0 q 900 5 913 3 q 875 8 888 7 q 856 11 863 10 q 626 87 735 29 q 446 244 518 144 l 446 249 m 900 76 q 937 38 915 57 q 983 19 958 19 l 983 88 q 946 87 961 88 q 908 83 931 86 q 902 82 904 82 q 900 79 900 82 l 900 76 m 1000 19 q 1022 27 1008 19 q 1048 44 1035 35 q 1071 65 1061 54 q 1081 82 1081 75 l 1081 83 q 1061 85 1076 83 q 1040 88 1046 88 l 1021 88 l 1000 88 l 1000 19 m 1038 24 q 1040 20 1038 21 q 1044 19 1043 19 l 1049 19 q 1083 27 1068 24 q 1115 38 1097 31 q 1126 44 1118 39 q 1143 53 1135 49 q 1158 61 1151 57 q 1165 67 1165 65 l 1165 68 q 1134 77 1150 74 q 1103 81 1118 81 q 1084 65 1094 81 q 1065 43 1074 50 q 1038 24 1051 29 m 1133 24 q 1138 19 1135 19 q 1143 24 1140 19 l 1133 24 m 831 64 q 844 56 833 61 q 857 49 854 50 q 894 33 872 42 q 933 24 917 24 q 922 36 933 28 q 907 49 910 44 q 895 63 904 51 q 885 76 886 75 q 881 79 882 79 q 868 77 876 79 q 851 72 860 75 q 837 67 843 69 q 831 64 831 65 m 1151 26 q 1157 25 1154 25 l 1158 25 q 1172 27 1163 25 q 1191 31 1181 29 q 1211 35 1201 33 q 1225 38 1221 38 q 1231 41 1228 40 q 1236 44 1233 42 q 1231 48 1233 47 q 1225 49 1228 49 l 1222 49 q 1201 42 1215 47 q 1179 35 1186 36 q 1164 31 1176 33 q 1151 26 1151 28 m 832 26 q 833 25 832 25 q 835 26 835 25 l 832 26 m 776 38 q 797 32 786 35 q 819 29 808 29 l 819 31 l 814 33 q 808 35 811 35 q 803 36 806 35 q 782 43 793 43 q 776 40 776 43 l 776 38 m 799 50 l 800 49 l 853 33 l 860 33 q 858 36 860 36 q 853 38 856 36 q 844 42 850 39 q 831 49 838 46 q 819 56 825 53 q 813 61 814 60 q 805 56 811 58 q 799 51 799 54 l 799 50 m 1186 63 q 1172 57 1178 63 q 1158 49 1165 51 q 1147 42 1157 47 q 1136 36 1138 38 l 1135 35 l 1143 35 l 1204 53 l 1204 54 q 1197 61 1204 60 q 1186 63 1189 63 m 578 132 q 585 126 582 132 q 663 83 624 103 q 746 49 701 64 q 756 47 750 47 q 763 49 763 47 q 756 53 763 53 q 747 57 750 54 q 723 69 740 61 q 703 81 706 78 q 610 149 647 107 q 608 149 608 149 q 606 150 607 150 q 589 144 600 150 q 578 133 578 138 l 578 132 m 1244 53 q 1252 51 1250 51 q 1257 50 1254 50 l 1260 50 q 1272 54 1263 51 q 1285 57 1282 57 q 1364 92 1325 72 q 1438 136 1403 111 q 1439 138 1438 136 q 1431 143 1438 140 q 1417 149 1425 146 q 1403 153 1410 151 q 1393 154 1396 154 q 1390 153 1392 154 q 1320 102 1353 125 q 1246 61 1288 79 q 1244 54 1244 58 l 1244 53 m 622 157 q 626 150 622 154 q 635 142 629 147 q 644 136 642 136 q 778 57 706 88 q 788 62 782 60 q 799 68 794 64 l 797 69 q 785 79 794 71 q 772 89 775 88 q 733 129 750 108 q 699 172 715 150 q 690 176 694 176 q 656 170 675 176 q 624 160 638 164 l 622 157 m 1200 69 q 1212 66 1203 68 q 1224 64 1221 64 l 1225 64 l 1226 64 q 1236 67 1231 64 q 1263 80 1249 74 q 1289 94 1276 86 q 1304 104 1294 97 q 1315 111 1314 111 q 1325 118 1318 113 q 1340 130 1332 124 q 1353 141 1347 136 q 1363 147 1360 146 q 1367 151 1364 149 q 1372 157 1371 154 l 1372 160 q 1367 163 1372 163 l 1296 178 l 1293 178 q 1286 174 1288 178 q 1271 150 1283 167 q 1254 129 1258 133 q 1249 122 1254 128 q 1236 109 1243 117 q 1222 94 1229 101 q 1210 83 1214 88 q 1203 79 1207 82 q 1197 75 1200 76 l 1197 71 l 1200 69 m 713 179 q 726 155 713 172 q 758 120 740 138 q 793 89 776 103 q 815 75 810 75 l 818 75 q 843 81 825 76 q 868 88 861 85 q 874 92 871 88 q 852 142 861 115 q 833 194 843 168 l 824 194 l 713 181 l 713 179 m 1106 93 q 1107 92 1107 93 q 1108 92 1107 92 l 1174 79 l 1185 79 q 1193 86 1189 82 q 1199 92 1196 89 q 1206 97 1203 94 q 1223 114 1213 103 q 1240 132 1233 125 q 1251 147 1242 135 q 1264 164 1260 158 q 1268 171 1265 167 q 1271 178 1271 175 l 1271 179 l 1269 181 l 1154 194 l 1151 194 q 1149 190 1150 194 q 1128 142 1138 163 q 1106 94 1119 122 l 1106 93 m 851 193 q 864 154 858 169 q 879 117 869 139 q 885 102 882 111 q 896 93 889 93 l 899 93 q 916 94 904 93 q 941 97 928 96 q 966 99 954 97 q 983 101 978 100 l 983 199 l 982 200 l 958 200 q 908 199 931 200 q 853 196 885 199 l 851 194 l 851 193 m 1000 101 q 1015 99 1004 100 q 1038 97 1025 99 q 1061 95 1050 96 q 1076 94 1072 94 l 1085 94 l 1090 94 q 1091 96 1090 96 q 1092 97 1092 96 q 1118 150 1106 124 q 1122 160 1119 154 q 1126 174 1124 167 q 1132 188 1129 181 l 1132 196 q 1065 199 1100 199 q 1000 200 1031 200 l 1000 101 m 465 242 l 467 238 q 474 228 469 235 q 481 221 479 222 q 490 211 483 218 q 499 201 496 204 q 507 192 500 199 q 522 178 514 186 q 538 164 531 171 q 549 154 544 157 q 557 148 551 151 q 567 144 563 144 q 582 153 569 144 q 594 163 594 161 l 594 164 q 562 203 576 182 q 535 244 547 224 l 533 247 l 469 247 q 467 246 468 246 q 465 244 465 246 l 465 242 m 1401 165 q 1408 163 1404 163 q 1413 161 1411 161 q 1431 155 1417 160 q 1447 149 1444 150 l 1450 149 q 1460 152 1457 149 q 1468 161 1464 156 q 1509 198 1488 179 q 1544 240 1531 217 l 1544 242 q 1543 247 1544 247 l 1468 247 l 1464 244 q 1433 203 1450 224 q 1401 165 1417 183 m 554 242 q 555 240 554 240 q 556 238 556 239 l 557 235 q 569 219 561 231 q 578 204 576 207 q 589 191 579 203 q 606 174 599 179 q 613 167 608 167 l 614 167 q 626 171 618 168 q 642 176 633 174 q 657 180 650 178 q 667 182 664 182 q 677 185 669 185 q 685 190 685 186 l 685 193 q 671 219 678 206 q 656 244 664 233 q 637 245 650 244 q 608 246 624 246 q 578 247 593 246 q 558 247 564 247 l 557 247 q 554 244 554 244 l 554 242 m 1297 188 l 1381 168 l 1383 168 q 1393 177 1386 168 q 1406 190 1400 186 q 1415 201 1408 193 q 1428 217 1421 208 q 1440 233 1435 225 q 1446 244 1446 240 q 1443 247 1443 247 l 1324 247 q 1318 240 1322 247 q 1309 222 1314 232 q 1301 202 1304 211 q 1297 189 1297 193 l 1297 188 m 675 242 q 678 229 675 238 q 688 213 682 221 q 697 197 693 204 q 704 190 701 190 l 707 190 l 826 204 q 831 210 828 204 l 831 213 q 828 224 829 215 q 824 236 826 233 q 822 243 824 239 q 817 247 819 247 l 679 247 q 675 242 675 247 m 1154 210 q 1156 204 1154 204 l 1269 193 l 1274 193 q 1278 192 1276 193 q 1282 196 1281 192 q 1292 215 1285 200 q 1301 235 1299 231 q 1303 242 1303 238 q 1299 247 1303 247 l 1165 247 q 1161 244 1164 247 q 1154 210 1154 228 m 839 236 q 842 222 839 233 q 844 213 843 217 l 849 206 l 857 206 l 872 206 q 903 207 885 206 q 939 210 921 208 q 982 213 960 211 l 983 214 l 983 247 l 843 247 q 839 240 839 247 l 839 236 m 1003 213 q 1044 210 1025 211 q 1079 207 1061 208 q 1110 206 1097 206 l 1122 206 l 1135 206 q 1142 223 1140 208 q 1144 242 1144 238 q 1140 247 1144 247 l 1000 247 l 1000 214 l 1003 213 m 754 296 l 754 317 q 744 315 747 317 q 732 313 742 313 l 721 313 l 718 314 l 707 325 l 707 374 q 708 376 707 375 q 708 381 708 378 q 714 385 711 382 q 718 388 717 388 l 746 388 q 749 385 747 388 q 754 383 751 383 q 763 385 760 383 q 769 388 765 388 q 775 386 775 388 l 775 292 q 769 281 775 288 q 760 275 764 275 l 721 275 q 712 282 717 275 q 707 296 707 289 l 754 296 m 260 410 l 314 410 q 318 406 315 407 q 322 403 321 404 q 325 401 324 401 l 328 399 l 328 368 q 321 358 321 364 q 328 350 321 354 l 328 317 l 314 304 l 260 304 l 260 410 m 358 389 q 361 388 360 388 q 364 386 363 388 l 364 326 l 369 324 l 390 324 l 390 385 l 392 388 l 397 388 q 401 388 400 388 q 404 389 403 389 q 411 385 411 389 l 411 308 q 407 304 411 304 q 399 307 404 304 q 392 313 394 310 q 387 308 389 310 q 382 304 385 306 l 358 304 q 356 306 358 304 l 350 311 q 346 315 347 313 l 346 388 l 350 388 q 354 388 353 388 q 357 389 356 389 l 358 389 m 428 386 q 431 390 428 390 q 438 389 435 389 l 443 389 q 446 388 444 389 l 446 304 l 428 304 l 428 386 m 465 410 q 472 417 465 414 l 481 419 l 482 419 l 483 417 l 483 304 l 465 304 l 465 410 m 503 374 q 509 385 503 381 q 521 389 515 389 l 522 389 q 535 387 526 389 q 549 385 544 385 l 549 410 q 556 417 549 414 q 565 419 563 419 q 568 415 568 419 l 568 306 q 564 304 568 304 q 557 307 560 304 q 549 310 554 310 q 539 304 543 310 l 515 304 l 503 317 l 503 374 m 589 388 q 592 389 589 388 l 596 389 q 603 388 599 389 q 607 385 607 388 l 607 304 l 589 304 l 589 388 m 624 386 q 625 388 624 386 l 626 388 q 634 385 632 388 q 642 383 636 383 q 650 386 646 383 q 664 389 654 389 q 670 390 667 389 q 676 388 674 390 q 683 382 681 383 l 688 378 l 688 304 l 667 304 l 667 369 l 642 369 l 642 304 l 624 304 l 624 386 m 833 410 l 889 410 q 893 406 890 407 q 897 403 896 404 q 899 401 897 401 q 900 399 900 400 l 900 368 q 897 364 899 365 q 896 358 896 363 q 898 354 896 356 q 900 350 900 353 l 900 317 l 888 304 l 833 304 l 833 410 m 938 389 q 956 388 943 389 q 972 388 969 388 q 984 377 982 382 q 986 364 986 372 q 985 350 986 353 q 978 342 982 347 q 972 338 975 338 l 940 338 q 938 333 938 338 l 938 331 q 938 326 938 329 q 940 322 938 322 l 983 322 q 985 317 985 322 l 985 315 l 972 304 l 933 304 l 931 304 q 929 306 929 304 q 922 311 924 308 q 919 315 921 313 l 919 378 l 924 382 q 928 385 926 385 q 931 388 929 386 l 933 388 q 935 388 935 388 q 936 389 935 389 l 938 389 m 1007 368 q 1002 371 1007 371 q 997 372 997 371 l 997 374 q 1002 387 997 381 q 1007 410 1007 393 q 1015 417 1010 414 q 1022 419 1019 419 q 1026 415 1026 419 q 1026 406 1026 411 q 1026 395 1026 400 q 1031 389 1026 390 q 1039 390 1033 389 q 1044 385 1044 392 q 1044 381 1044 383 q 1043 376 1043 379 l 1043 371 l 1025 371 l 1025 322 l 1043 322 l 1043 304 l 1019 304 l 1007 315 l 1007 368 m 1058 368 q 1054 370 1058 371 q 1050 374 1050 369 q 1053 383 1050 381 q 1058 389 1057 385 q 1059 399 1058 392 q 1060 410 1060 407 q 1067 417 1061 414 q 1075 419 1072 419 q 1079 415 1079 419 q 1079 406 1079 411 q 1080 395 1079 400 q 1085 389 1081 390 q 1094 388 1090 388 q 1099 382 1099 389 q 1098 376 1099 381 q 1094 371 1097 371 l 1078 371 l 1078 326 q 1082 324 1078 324 q 1089 322 1085 322 q 1094 322 1093 322 l 1094 304 l 1072 304 l 1058 315 l 1058 368 m 1158 389 q 1169 385 1164 389 q 1175 374 1175 381 l 1175 351 l 1161 338 l 1132 338 q 1129 334 1129 338 q 1129 329 1129 331 l 1129 325 q 1132 322 1129 322 l 1174 322 l 1175 317 l 1161 304 l 1121 304 l 1110 315 q 1108 322 1108 317 l 1108 371 q 1113 381 1108 376 q 1121 388 1118 386 q 1133 390 1125 390 q 1143 389 1142 389 l 1158 389 m 1192 385 q 1197 388 1192 388 q 1204 385 1201 388 q 1211 383 1207 383 q 1221 386 1217 383 q 1229 389 1225 389 q 1241 387 1236 389 q 1246 378 1246 385 l 1246 374 q 1244 371 1246 372 l 1214 371 l 1213 368 l 1213 304 l 1193 304 l 1192 385 m 1311 410 l 1314 408 q 1317 388 1314 404 q 1321 368 1319 372 q 1321 363 1321 367 q 1324 358 1321 358 q 1327 374 1325 363 q 1329 388 1329 385 q 1333 398 1332 394 q 1340 401 1333 401 q 1347 393 1344 401 q 1351 379 1349 390 q 1356 365 1354 368 l 1357 365 q 1361 369 1361 365 q 1364 389 1363 374 q 1365 408 1365 404 l 1367 410 l 1383 410 l 1383 397 q 1382 386 1383 396 q 1379 363 1381 376 q 1376 336 1378 350 q 1372 314 1374 322 q 1372 312 1372 313 q 1371 310 1371 311 l 1371 306 q 1367 304 1369 304 l 1356 304 q 1351 308 1353 304 q 1349 314 1350 313 q 1346 328 1349 317 q 1342 343 1343 340 q 1338 338 1338 343 l 1328 308 l 1325 304 l 1311 304 l 1310 306 l 1308 310 l 1293 410 l 1311 410 m 1396 374 q 1403 384 1396 379 q 1413 389 1410 389 l 1447 389 q 1457 384 1450 389 q 1464 374 1464 379 l 1464 317 l 1450 304 l 1410 304 l 1396 317 l 1396 374 m 1479 385 q 1485 388 1479 388 q 1493 385 1490 388 q 1501 383 1496 383 q 1510 386 1506 383 q 1519 389 1514 389 q 1536 371 1536 389 l 1506 371 l 1501 368 l 1501 304 l 1482 304 l 1479 385 m 1547 410 q 1553 417 1547 414 q 1563 419 1560 419 q 1567 417 1567 419 l 1567 304 l 1547 304 l 1547 410 m 1615 389 q 1626 385 1622 389 l 1628 385 q 1629 386 1628 385 l 1629 388 l 1629 408 q 1637 417 1629 414 q 1647 419 1644 419 q 1651 411 1651 419 l 1651 308 q 1646 303 1651 303 q 1632 313 1638 303 q 1626 308 1629 310 q 1619 304 1624 306 l 1599 304 q 1590 309 1596 304 q 1585 317 1585 314 l 1585 378 q 1590 383 1585 381 q 1597 388 1594 386 l 1604 388 q 1610 388 1607 388 q 1615 389 1613 389 m 1669 322 l 1708 322 q 1710 325 1708 322 q 1709 331 1710 326 q 1708 338 1708 336 l 1682 338 l 1667 353 l 1667 374 q 1672 380 1667 375 q 1681 388 1678 385 l 1683 389 l 1685 389 q 1694 388 1689 389 q 1704 388 1699 388 l 1717 388 l 1729 378 l 1729 372 l 1693 372 q 1687 369 1688 372 q 1686 364 1686 365 q 1688 358 1686 358 l 1693 356 l 1717 356 l 1729 343 l 1729 317 q 1724 309 1729 314 q 1715 304 1719 304 l 1681 304 l 1669 315 l 1669 322 m 307 324 l 307 346 l 303 350 l 294 350 l 288 350 q 285 349 286 350 q 283 349 285 349 q 279 347 282 347 l 279 324 l 307 324 m 549 324 l 549 369 l 524 369 l 524 324 l 549 324 m 881 324 l 881 350 l 854 350 l 854 324 l 881 324 m 1417 325 l 1421 324 l 1431 324 l 1439 324 l 1442 324 q 1443 325 1443 324 l 1443 369 l 1417 369 l 1417 325 m 1626 324 l 1629 326 l 1629 369 l 1604 369 l 1604 324 l 1626 324 m 731 331 l 754 332 l 754 369 l 728 369 l 728 333 l 731 331 m 938 364 q 940 356 938 356 l 965 356 q 967 364 967 356 l 967 367 q 965 369 967 368 l 940 369 q 938 367 938 369 l 938 364 m 1129 360 q 1132 356 1129 356 l 1156 356 l 1156 369 l 1132 369 q 1129 364 1129 369 l 1129 360 m 217 410 l 217 369 q 213 367 217 367 q 208 367 210 367 q 203 372 206 367 q 198 385 200 378 q 194 400 196 393 q 193 410 193 407 l 217 410 m 221 408 q 222 410 221 410 l 240 410 l 240 368 q 236 367 240 367 q 226 378 229 367 q 224 392 226 381 q 221 407 222 404 l 221 408 m 1768 410 l 1768 403 l 1760 368 q 1757 366 1760 365 q 1753 367 1754 367 l 1750 367 q 1749 368 1749 367 l 1749 410 l 1768 410 m 1797 410 l 1788 369 q 1781 367 1785 367 l 1778 367 q 1776 368 1776 367 l 1776 410 l 1797 410 m 307 369 l 307 392 l 279 392 l 279 369 l 307 369 m 881 369 l 881 392 l 854 392 l 854 369 l 881 369 m 428 408 q 439 421 428 421 l 443 421 q 446 419 444 421 l 446 400 l 429 400 q 428 403 429 400 l 428 408 m 592 421 q 597 420 593 421 q 606 419 601 419 q 607 408 607 415 q 607 403 607 407 q 606 400 607 400 l 589 400 l 589 419 q 592 421 589 419 m 190 917 l 190 921 l 421 921 l 649 608 q 650 606 649 607 q 653 604 651 604 l 656 604 l 888 921 l 1122 921 l 1353 607 q 1356 604 1353 604 l 1357 604 l 1358 606 l 1588 921 l 1819 921 l 1821 919 l 1444 456 l 1233 456 l 1008 771 l 1006 774 l 1004 774 l 772 456 l 544 456 l 190 917 m 906 536 l 907 539 l 1000 682 l 1004 686 l 1006 686 l 1007 682 l 1157 457 l 1156 456 l 854 456 l 854 460 l 906 536 m 504 915 l 504 919 l 806 919 l 653 690 l 504 915 m 1508 919 l 1357 692 l 1356 692 q 1355 694 1356 694 q 1354 696 1354 694 l 1204 919 l 1508 919 m 189 1068 q 192 1072 189 1072 q 200 1072 196 1072 q 211 1067 208 1072 q 214 1051 211 1064 q 218 1033 217 1038 q 218 1028 218 1032 q 221 1022 218 1025 q 226 1047 225 1031 q 239 1063 228 1063 q 247 1057 244 1063 q 252 1045 250 1051 q 256 1033 254 1039 q 261 1028 257 1028 q 264 1038 263 1031 q 267 1052 265 1044 q 269 1066 268 1060 q 274 1072 271 1072 l 290 1072 q 292 1067 292 1072 l 292 1063 l 274 978 l 256 978 l 253 981 q 247 996 250 988 q 240 1011 244 1004 q 240 1013 240 1013 q 239 1014 239 1013 l 238 1014 q 231 994 236 1010 q 224 978 226 978 l 207 978 l 206 979 q 200 1007 203 993 q 194 1030 197 1018 q 190 1050 192 1042 q 190 1058 190 1054 q 189 1068 189 1063 m 303 1069 l 307 1072 l 374 1072 q 379 1063 379 1072 l 379 1058 q 376 1056 379 1056 l 328 1056 l 324 1033 l 357 1033 l 361 1032 l 361 1015 l 328 1015 l 325 1011 l 328 993 l 375 993 q 378 990 378 993 q 379 985 379 986 q 378 981 379 983 q 375 978 378 978 l 303 978 l 303 1069 m 419 1017 l 418 1019 q 404 1041 414 1025 q 390 1063 394 1057 q 389 1072 389 1068 l 406 1072 q 410 1072 407 1072 q 413 1069 413 1071 l 428 1040 l 429 1039 l 431 1039 q 436 1044 433 1039 q 442 1055 439 1049 q 448 1067 444 1061 q 456 1072 451 1072 l 471 1072 q 474 1068 474 1072 l 474 1067 l 442 1017 l 442 978 l 419 978 l 419 1017 m 486 1069 q 492 1072 486 1072 q 499 1072 497 1072 l 504 1072 l 508 1071 l 508 997 l 511 993 l 556 993 l 556 992 q 556 990 556 990 q 557 989 557 990 l 557 985 l 557 979 q 556 978 557 978 l 486 978 l 486 1069 m 593 1063 q 606 1072 594 1072 q 618 1067 614 1072 q 624 1055 622 1061 q 628 1043 625 1049 q 632 1031 629 1040 q 638 1013 635 1022 q 645 994 642 1003 q 649 985 649 986 l 650 981 l 650 979 q 649 978 650 978 l 632 978 q 631 979 632 978 q 626 988 628 981 q 624 997 624 994 q 622 998 622 997 q 619 999 622 999 l 617 1000 l 594 1000 q 588 989 588 1000 q 581 978 588 978 l 564 978 l 564 985 l 593 1063 m 663 1069 q 665 1072 663 1072 q 669 1072 668 1072 q 685 1067 681 1072 l 710 1028 l 715 1022 l 715 1069 q 721 1072 715 1072 q 728 1072 726 1072 l 732 1072 q 735 1071 732 1072 l 736 1071 l 736 978 l 718 978 l 686 1026 l 685 1021 l 685 981 l 681 978 l 663 978 l 663 1069 m 758 1069 q 760 1071 758 1069 l 763 1072 l 814 1072 q 825 1067 817 1072 q 833 1057 833 1063 l 833 989 q 826 983 831 986 l 818 978 l 758 978 l 758 1069 m 951 1017 q 940 1033 949 1019 q 929 1050 932 1047 q 923 1058 926 1054 q 919 1068 919 1063 l 919 1069 q 922 1072 919 1072 l 938 1072 q 945 1067 942 1072 q 951 1055 949 1061 q 957 1044 954 1049 q 964 1039 960 1039 l 965 1039 q 974 1061 969 1050 q 993 1072 979 1072 q 1000 1072 996 1072 q 1004 1069 1004 1072 q 1003 1063 1004 1067 q 990 1042 1000 1057 q 975 1019 979 1026 l 972 1015 l 972 978 l 951 978 l 951 1017 m 1025 1072 q 1033 1072 1026 1072 q 1039 1069 1039 1072 l 1039 994 l 1071 994 l 1071 1069 q 1076 1072 1071 1072 q 1082 1072 1081 1072 l 1088 1072 q 1090 1071 1088 1072 l 1092 1071 l 1092 988 q 1089 986 1090 988 l 1086 983 l 1082 979 q 1078 978 1081 978 l 1032 978 q 1023 982 1028 978 q 1018 989 1018 986 l 1018 1069 q 1021 1072 1018 1072 q 1025 1072 1024 1072 m 1136 1054 l 1132 1056 l 1106 1056 l 1104 1060 l 1104 1064 q 1105 1069 1104 1067 q 1108 1072 1106 1072 l 1189 1072 l 1189 1056 l 1161 1056 l 1158 1054 l 1158 978 l 1136 978 l 1136 1054 m 1179 983 q 1183 985 1182 983 q 1185 986 1183 986 q 1198 1027 1190 1007 q 1213 1067 1206 1047 q 1225 1072 1217 1072 q 1231 1072 1226 1072 q 1236 1071 1236 1072 l 1269 981 l 1269 979 q 1268 978 1269 978 l 1251 978 q 1244 989 1244 978 q 1238 1000 1243 1000 l 1211 1000 q 1206 989 1206 1000 q 1200 978 1206 978 l 1185 978 q 1179 981 1179 978 l 1179 983 m 1281 1069 q 1284 1072 1281 1071 q 1289 1072 1288 1072 q 1303 1067 1297 1072 l 1331 1021 l 1336 1028 l 1336 1069 q 1339 1072 1336 1072 q 1343 1072 1342 1072 l 1349 1072 q 1351 1072 1350 1072 q 1353 1071 1351 1071 l 1356 1071 l 1356 978 l 1338 978 q 1331 985 1335 978 q 1322 1002 1326 993 q 1311 1019 1317 1011 q 1301 1026 1306 1026 l 1301 978 l 1281 978 l 1281 1069 m 1376 1069 l 1379 1072 l 1383 1072 l 1393 1072 l 1396 1071 l 1396 978 l 1376 978 l 1376 1069 m 1500 1072 q 1510 1072 1503 1072 q 1524 1070 1517 1072 q 1535 1065 1531 1068 q 1540 1056 1540 1061 l 1492 1056 l 1489 1054 l 1489 993 l 1535 993 q 1540 989 1533 993 q 1533 982 1540 986 q 1524 978 1526 978 l 1478 978 q 1475 979 1476 978 q 1472 983 1472 982 q 1467 986 1469 983 l 1465 988 l 1465 1060 q 1472 1067 1465 1063 q 1482 1072 1479 1071 l 1500 1072 m 1564 979 q 1561 983 1563 981 q 1557 986 1560 985 l 1551 989 l 1551 1057 q 1560 1067 1551 1063 q 1571 1072 1568 1072 l 1611 1072 q 1615 1071 1613 1072 q 1618 1069 1617 1069 q 1625 1064 1621 1068 q 1628 1060 1626 1061 l 1628 988 l 1624 983 l 1615 978 l 1568 978 l 1565 978 q 1564 979 1564 978 m 1647 1069 l 1653 1072 l 1703 1072 q 1716 1067 1710 1072 q 1722 1060 1722 1063 l 1722 1026 l 1713 1015 l 1713 1008 l 1726 983 l 1726 978 l 1703 978 l 1688 1006 q 1683 1013 1685 1013 q 1679 1014 1682 1014 l 1674 1014 q 1671 1006 1671 1013 l 1671 981 l 1669 978 l 1647 978 l 1647 1069 m 1799 1072 q 1810 1067 1803 1072 q 1818 1057 1818 1063 l 1818 1028 q 1817 1025 1817 1026 q 1815 1022 1817 1024 q 1808 1017 1811 1018 q 1804 1014 1806 1015 l 1767 1014 l 1764 1011 l 1764 978 l 1742 978 l 1742 1072 l 1799 1072 m 811 994 l 811 1056 l 783 1056 l 779 1053 l 779 994 l 811 994 m 1604 994 l 1604 1056 l 1581 1056 l 1576 1053 l 1576 994 l 1604 994 m 851 1026 l 854 1028 l 906 1028 q 908 1024 908 1028 q 908 1019 908 1021 l 908 1017 q 907 1014 908 1015 l 853 1014 q 851 1017 853 1014 l 851 1021 l 851 1026 m 599 1017 l 613 1017 q 608 1039 613 1028 q 607 1036 607 1039 q 606 1035 607 1035 q 599 1025 600 1029 q 597 1018 597 1021 l 599 1017 m 1225 1039 q 1219 1028 1219 1039 q 1218 1015 1218 1018 q 1226 1015 1221 1015 q 1231 1019 1231 1015 l 1231 1021 q 1228 1031 1231 1025 q 1226 1039 1226 1036 l 1225 1039 m 1669 1040 q 1671 1036 1669 1038 q 1672 1033 1671 1035 q 1674 1032 1672 1032 l 1700 1032 l 1700 1056 l 1675 1056 l 1671 1053 q 1669 1050 1669 1051 l 1669 1046 l 1669 1040 m 1793 1032 q 1794 1035 1793 1032 l 1794 1039 q 1795 1043 1794 1042 q 1796 1046 1796 1044 q 1794 1047 1794 1046 l 1794 1050 l 1794 1053 l 1790 1056 l 1765 1056 l 1765 1032 l 1793 1032 m 446 1139 q 447 1149 446 1144 q 558 1258 494 1213 q 693 1333 621 1304 q 842 1376 765 1363 q 997 1389 919 1389 q 1260 1351 1131 1389 q 1294 1339 1276 1346 q 1326 1325 1311 1332 q 1444 1260 1389 1297 q 1544 1169 1500 1222 q 1556 1156 1547 1167 q 1564 1139 1564 1146 l 1564 1138 l 1561 1135 l 447 1135 q 446 1136 446 1135 l 446 1139 m 465 1146 q 467 1144 465 1144 l 533 1144 l 539 1150 q 549 1166 540 1153 q 558 1182 557 1179 q 565 1190 560 1183 q 577 1203 571 1196 q 588 1217 583 1211 q 594 1225 593 1222 l 594 1229 q 583 1236 592 1232 q 572 1242 575 1240 q 569 1244 572 1242 l 567 1247 l 565 1247 l 564 1247 q 559 1243 563 1247 q 554 1239 556 1239 q 543 1230 550 1236 q 528 1217 536 1224 q 514 1203 521 1210 q 504 1193 507 1196 q 492 1180 503 1192 q 476 1164 482 1168 q 469 1154 474 1160 q 465 1146 465 1149 m 554 1146 q 556 1144 554 1144 l 653 1144 l 658 1149 q 671 1173 664 1161 q 685 1196 678 1185 l 685 1199 q 675 1206 685 1204 q 664 1207 665 1207 q 638 1214 657 1208 q 613 1222 618 1219 l 611 1222 l 594 1206 q 588 1196 593 1203 q 579 1186 582 1189 q 567 1169 576 1183 q 556 1151 558 1154 l 554 1146 m 707 1199 q 697 1191 703 1199 q 687 1174 692 1183 q 678 1156 682 1165 q 675 1144 675 1147 l 818 1144 q 822 1148 821 1144 q 824 1153 824 1151 q 828 1165 826 1156 q 831 1179 829 1175 l 831 1181 q 826 1184 831 1183 q 819 1185 821 1185 l 710 1197 l 707 1199 m 839 1146 q 840 1144 839 1144 l 983 1144 l 983 1174 l 982 1176 q 972 1178 982 1178 q 949 1180 963 1179 q 920 1181 935 1181 q 896 1182 906 1182 l 871 1182 l 847 1182 q 842 1165 844 1181 q 839 1149 839 1150 l 839 1146 m 1000 1144 l 1142 1144 q 1143 1149 1143 1144 q 1136 1182 1143 1164 l 1117 1182 l 1094 1182 q 1076 1181 1089 1182 q 1047 1180 1063 1181 q 1019 1178 1032 1179 q 1000 1176 1006 1178 l 1000 1144 m 1154 1179 q 1157 1161 1156 1168 q 1160 1149 1158 1154 q 1165 1144 1163 1144 l 1303 1144 q 1301 1153 1303 1150 l 1289 1178 q 1282 1193 1285 1185 l 1281 1196 l 1260 1196 l 1156 1185 q 1154 1179 1154 1185 m 1324 1144 l 1446 1144 q 1440 1153 1446 1149 q 1425 1174 1435 1160 q 1413 1190 1415 1188 q 1405 1199 1411 1192 q 1396 1208 1399 1206 q 1392 1215 1394 1211 q 1388 1219 1389 1218 l 1382 1219 l 1378 1219 l 1299 1201 q 1297 1197 1297 1200 l 1297 1196 l 1301 1188 q 1309 1169 1303 1185 q 1319 1150 1315 1153 l 1324 1144 m 1401 1222 q 1433 1185 1419 1204 q 1461 1149 1447 1167 q 1465 1144 1463 1144 l 1544 1144 q 1532 1165 1544 1149 q 1503 1197 1519 1181 q 1471 1227 1486 1214 q 1450 1240 1456 1240 q 1440 1238 1447 1240 q 1425 1232 1433 1235 q 1410 1226 1417 1229 q 1401 1222 1403 1224 m 851 1193 l 864 1192 q 876 1192 865 1192 q 903 1191 888 1192 q 933 1190 918 1190 q 958 1188 949 1189 l 972 1188 l 982 1188 l 983 1190 l 983 1288 l 982 1289 q 938 1294 961 1290 q 894 1297 914 1297 q 883 1283 890 1297 q 869 1250 876 1268 q 856 1216 861 1232 q 851 1196 851 1200 l 851 1193 m 1003 1188 l 1010 1188 l 1024 1188 q 1054 1190 1036 1189 q 1090 1192 1072 1190 q 1132 1193 1110 1193 l 1133 1196 q 1129 1207 1133 1197 q 1122 1224 1125 1217 q 1110 1256 1117 1242 q 1094 1285 1103 1269 q 1088 1294 1093 1289 q 1045 1291 1067 1292 q 1000 1289 1024 1290 l 1000 1190 l 1003 1188 m 713 1213 q 718 1207 713 1207 l 831 1193 q 834 1196 833 1193 q 835 1200 835 1199 q 840 1213 835 1201 q 844 1226 844 1224 q 854 1251 847 1233 q 864 1275 861 1269 q 869 1286 865 1278 q 874 1297 872 1294 l 874 1299 l 871 1301 l 821 1315 l 817 1315 q 792 1301 808 1315 q 757 1269 775 1288 q 726 1235 739 1251 q 713 1213 713 1218 m 1106 1294 q 1115 1278 1108 1292 q 1122 1261 1121 1265 q 1128 1251 1124 1260 q 1133 1239 1132 1242 q 1135 1231 1133 1238 q 1140 1216 1138 1224 q 1146 1202 1143 1208 q 1150 1196 1149 1196 l 1157 1196 q 1172 1197 1165 1196 q 1189 1197 1179 1197 q 1209 1200 1197 1199 q 1233 1203 1221 1201 q 1253 1206 1244 1204 q 1264 1207 1263 1207 l 1271 1208 l 1271 1210 q 1269 1215 1271 1214 q 1263 1226 1268 1218 q 1256 1235 1257 1233 q 1245 1249 1253 1239 q 1236 1261 1238 1260 q 1217 1278 1232 1264 q 1197 1299 1203 1292 q 1190 1306 1194 1301 q 1178 1311 1185 1311 l 1175 1311 q 1166 1308 1172 1310 q 1151 1306 1160 1307 q 1135 1303 1143 1304 q 1124 1301 1128 1301 q 1117 1300 1122 1301 q 1110 1299 1113 1299 l 1106 1294 m 624 1232 l 625 1231 q 626 1229 625 1229 l 632 1226 q 636 1225 635 1225 q 648 1223 640 1225 q 664 1219 656 1221 q 680 1215 672 1217 q 690 1213 688 1213 l 692 1213 q 705 1228 699 1219 q 717 1242 711 1236 q 745 1274 729 1260 q 778 1304 761 1289 q 789 1313 783 1308 q 799 1321 794 1317 q 788 1328 796 1324 q 776 1332 781 1332 l 775 1332 q 764 1327 771 1331 q 749 1319 757 1324 q 735 1312 742 1315 q 726 1307 728 1308 q 712 1300 721 1306 q 700 1293 703 1294 q 683 1282 693 1289 q 663 1268 672 1275 q 645 1256 653 1261 q 636 1249 638 1250 l 624 1233 l 622 1233 l 624 1232 m 1200 1314 q 1203 1311 1203 1311 q 1208 1306 1203 1310 q 1217 1299 1214 1301 q 1231 1284 1221 1294 q 1244 1269 1242 1274 q 1265 1245 1256 1258 q 1285 1219 1274 1232 q 1288 1213 1288 1214 q 1294 1213 1289 1213 q 1329 1217 1310 1213 q 1364 1225 1349 1222 q 1369 1226 1367 1225 q 1372 1232 1372 1228 l 1372 1233 q 1308 1282 1343 1261 q 1238 1321 1274 1303 q 1229 1324 1231 1324 q 1225 1324 1228 1324 q 1211 1322 1218 1324 q 1197 1318 1204 1321 l 1197 1317 l 1200 1314 m 1388 1238 q 1394 1235 1390 1235 l 1397 1235 q 1414 1239 1403 1236 q 1429 1243 1425 1242 q 1431 1246 1431 1244 q 1435 1249 1432 1247 q 1439 1250 1436 1250 l 1439 1251 q 1429 1258 1435 1254 q 1419 1264 1425 1261 q 1411 1269 1414 1267 q 1383 1288 1397 1279 q 1354 1303 1368 1296 q 1344 1306 1351 1303 q 1328 1313 1336 1310 q 1311 1320 1319 1317 q 1301 1324 1303 1324 q 1280 1333 1292 1328 q 1257 1339 1268 1339 q 1249 1338 1254 1339 q 1244 1333 1244 1336 l 1244 1332 q 1319 1288 1285 1311 q 1388 1238 1353 1265 m 578 1253 q 590 1244 582 1250 q 607 1239 599 1239 l 608 1239 q 615 1245 610 1240 q 624 1251 621 1250 q 634 1259 626 1253 q 649 1272 642 1265 q 665 1283 657 1278 q 675 1290 672 1289 q 688 1299 678 1293 q 701 1307 699 1306 q 732 1322 717 1317 q 763 1338 747 1328 l 763 1339 q 756 1342 763 1342 q 734 1337 744 1342 q 713 1328 724 1332 q 581 1260 643 1301 l 578 1256 l 578 1254 l 578 1253 m 903 1306 q 915 1305 907 1306 q 933 1303 924 1304 q 952 1302 943 1303 q 965 1301 961 1301 l 975 1301 l 982 1301 l 983 1303 l 983 1369 q 979 1371 983 1371 q 940 1354 958 1371 q 911 1324 922 1338 q 904 1319 908 1322 q 900 1308 900 1315 q 903 1306 900 1307 m 1000 1301 l 1032 1301 q 1040 1302 1033 1301 q 1054 1303 1047 1303 q 1068 1303 1061 1303 q 1076 1304 1075 1304 l 1078 1304 l 1081 1306 l 1081 1307 q 1044 1346 1068 1329 q 1026 1361 1038 1353 q 1004 1369 1015 1369 l 1000 1369 l 1000 1301 m 1038 1369 q 1047 1360 1042 1363 q 1058 1353 1053 1357 q 1079 1331 1069 1342 q 1099 1308 1089 1321 l 1106 1308 l 1117 1308 q 1140 1314 1121 1310 q 1165 1319 1158 1318 l 1165 1321 q 1155 1330 1161 1326 q 1143 1336 1149 1333 q 1131 1342 1142 1338 q 1117 1350 1119 1347 q 1110 1351 1115 1350 q 1101 1356 1104 1353 q 1084 1360 1094 1357 q 1072 1363 1074 1363 q 1060 1367 1071 1365 q 1043 1371 1049 1369 l 1040 1371 l 1038 1369 m 831 1324 q 839 1319 832 1321 q 854 1315 846 1317 q 870 1311 863 1313 q 881 1310 878 1310 q 885 1310 885 1310 q 888 1318 885 1311 q 895 1327 890 1321 q 900 1335 900 1333 q 910 1344 903 1336 q 922 1356 918 1353 q 926 1358 922 1357 q 931 1363 931 1360 l 924 1363 q 911 1360 922 1363 q 894 1356 900 1358 q 876 1347 890 1353 q 856 1339 863 1342 q 841 1333 849 1336 q 831 1324 833 1331 m 1157 1342 q 1167 1334 1158 1339 q 1178 1328 1176 1329 q 1186 1325 1183 1325 q 1197 1328 1190 1325 q 1206 1335 1203 1331 q 1192 1340 1203 1336 q 1170 1347 1182 1343 q 1148 1353 1158 1350 q 1135 1356 1138 1356 l 1135 1353 l 1157 1342 m 799 1338 q 813 1329 799 1329 l 814 1332 l 857 1353 l 857 1356 l 849 1356 l 799 1339 l 799 1338 m 1151 1361 q 1168 1358 1157 1361 q 1178 1356 1171 1358 q 1195 1349 1186 1353 q 1212 1343 1204 1346 q 1224 1339 1219 1340 l 1225 1339 q 1232 1340 1226 1339 q 1238 1344 1238 1342 l 1236 1344 l 1228 1350 l 1165 1363 l 1151 1363 l 1151 1361 m 776 1346 q 779 1344 776 1346 q 787 1347 781 1344 q 800 1351 793 1349 q 813 1356 807 1353 q 819 1358 819 1358 l 815 1358 q 808 1357 814 1358 q 794 1354 801 1356 q 782 1351 788 1353 q 776 1349 776 1350 l 776 1346 m 835 1361 q 832 1363 835 1363 q 831 1361 829 1363 l 835 1361 m 1133 1369 q 1138 1366 1135 1367 q 1142 1365 1140 1365 l 1142 1369 l 1133 1369 z "},"_":{"ha":1522,"x_min":69,"x_max":1453,"o":"m 1453 -169 l 69 -168 l 71 -18 l 1453 -19 l 1453 -169 z "},"*":{"ha":1343,"x_min":69,"x_max":1274,"o":"m 660 7 q 662 26 660 15 q 664 44 664 36 q 658 51 664 51 q 650 47 653 51 q 645 37 647 42 q 641 27 643 32 q 633 22 639 22 q 623 30 625 22 q 621 43 621 38 q 628 56 621 46 q 636 72 635 67 q 644 108 640 90 q 651 143 649 125 q 654 167 654 153 q 660 192 654 181 q 672 206 665 201 q 675 207 672 206 q 676 208 676 207 q 688 226 688 214 q 688 247 688 238 q 686 265 688 257 q 685 281 685 272 q 688 302 685 292 q 694 324 690 313 q 701 335 697 329 q 704 347 704 340 q 701 364 704 358 l 701 403 q 704 418 704 407 q 704 433 704 429 l 704 436 q 703 453 704 439 q 701 471 701 468 q 696 476 701 476 l 688 476 q 669 483 676 476 q 651 489 663 489 q 642 483 646 489 q 636 474 639 476 q 625 469 632 471 q 614 464 618 467 q 611 460 611 461 q 608 460 611 460 l 608 458 q 618 460 614 458 q 628 461 622 461 l 636 461 q 651 443 647 454 q 656 419 656 432 q 654 407 656 413 q 649 380 651 393 q 644 351 646 367 q 644 344 644 350 q 642 333 643 339 q 641 320 642 326 q 640 313 640 314 q 640 303 640 310 q 639 296 639 297 l 639 290 q 644 276 639 279 q 650 264 650 272 q 636 250 650 250 q 625 255 629 250 q 618 265 621 260 q 613 276 615 271 q 606 281 610 281 q 603 276 603 281 q 605 267 603 271 q 607 257 607 263 q 593 243 607 243 l 589 243 q 585 244 588 243 q 582 247 582 246 q 574 260 579 254 q 568 272 568 265 l 568 275 q 569 279 568 279 l 569 281 q 565 286 569 282 q 548 290 557 286 q 539 304 539 293 q 544 322 539 314 q 549 336 549 329 q 544 343 549 343 q 529 337 536 343 q 515 328 522 331 q 498 319 506 324 q 481 313 490 315 q 475 307 478 310 q 469 303 472 304 q 458 299 464 300 q 446 294 451 297 q 439 287 444 293 q 432 279 433 281 q 410 270 422 272 q 386 268 397 268 q 353 288 363 268 q 344 326 344 307 l 344 331 q 351 343 347 336 q 358 354 354 350 q 363 357 360 354 q 368 361 367 360 l 374 365 q 397 397 386 383 q 419 426 408 411 q 426 436 421 431 q 440 461 433 447 q 454 489 447 475 l 478 524 q 489 536 483 526 q 494 542 492 539 q 499 549 497 546 l 524 571 q 529 576 526 574 q 535 582 532 579 q 553 594 544 589 q 564 611 561 600 q 565 618 565 614 q 567 625 565 622 q 573 635 569 631 q 576 643 576 639 q 567 658 576 647 q 554 675 558 669 q 533 697 542 688 q 519 724 525 707 q 510 731 515 731 q 500 725 504 731 q 492 717 496 719 q 482 715 489 715 q 472 711 475 714 l 463 711 q 444 717 451 711 q 431 726 438 724 q 401 735 415 732 q 374 743 388 738 q 367 745 372 743 q 360 747 361 747 l 357 747 q 353 744 354 747 q 350 735 351 740 q 346 727 349 731 q 336 724 343 724 q 322 728 331 724 q 303 740 313 733 q 287 755 294 747 q 276 767 279 763 q 274 779 274 772 q 271 789 274 786 q 263 798 267 794 q 257 804 260 801 q 249 819 250 811 q 244 836 247 826 q 240 842 242 839 q 235 847 238 844 q 231 871 231 857 q 233 883 231 878 q 235 896 235 889 q 233 907 235 901 q 228 930 232 913 q 222 953 224 947 q 218 963 221 958 q 213 972 215 967 q 208 981 210 975 q 203 989 206 986 q 191 995 197 993 q 181 1001 185 997 q 168 1011 176 1006 q 163 1015 167 1013 q 157 1018 158 1017 q 139 1030 147 1024 q 119 1036 131 1036 q 102 1035 110 1036 q 86 1033 94 1033 q 76 1032 85 1032 q 72 1032 75 1032 q 69 1035 69 1032 l 69 1040 q 81 1063 69 1057 q 108 1072 93 1069 q 134 1074 122 1074 q 146 1078 146 1074 q 142 1084 146 1081 q 136 1090 139 1088 q 133 1098 133 1094 q 132 1106 133 1101 q 124 1118 129 1115 q 110 1128 118 1121 q 106 1133 108 1129 q 100 1136 104 1136 q 95 1135 97 1136 q 90 1133 93 1133 q 81 1142 83 1133 q 78 1153 78 1150 q 84 1165 78 1160 q 97 1169 90 1169 q 115 1166 106 1169 q 132 1160 125 1163 q 144 1149 143 1157 q 153 1135 146 1142 q 169 1122 160 1128 q 188 1111 179 1117 q 188 1124 186 1118 q 189 1138 189 1131 q 183 1157 189 1151 q 176 1178 176 1163 q 178 1190 176 1185 q 189 1196 181 1196 q 208 1188 200 1196 q 219 1169 217 1179 q 222 1153 219 1158 q 232 1145 228 1149 q 239 1135 236 1142 q 244 1122 243 1128 q 247 1107 246 1115 q 249 1104 247 1107 q 250 1103 249 1103 q 251 1100 250 1101 q 256 1088 251 1097 q 260 1075 260 1078 q 274 1067 267 1067 q 292 1067 282 1067 l 301 1067 q 318 1073 313 1068 q 331 1078 324 1078 q 346 1069 340 1078 q 351 1053 351 1060 q 345 1042 351 1046 q 333 1038 339 1038 l 311 1038 q 299 1028 308 1038 q 288 1017 290 1019 q 288 1004 289 1010 q 286 992 286 999 q 297 956 286 976 q 319 921 308 935 q 326 914 322 918 q 333 906 331 910 q 346 886 342 897 q 358 868 350 875 q 362 859 360 865 q 364 850 364 853 q 366 847 365 849 q 368 844 367 846 q 399 839 386 842 q 426 836 411 836 l 438 836 l 440 838 q 461 853 446 847 q 483 860 468 858 q 497 871 497 861 q 497 884 497 878 q 496 897 496 890 q 497 918 496 908 q 501 939 499 928 q 524 964 508 958 q 533 966 529 965 q 536 974 536 967 q 536 975 536 976 q 535 976 536 974 q 531 990 533 979 q 528 1000 529 996 q 524 1018 526 1004 q 519 1035 521 1032 q 512 1063 518 1042 q 503 1092 506 1085 q 487 1109 499 1106 q 464 1114 475 1113 q 444 1120 453 1115 q 435 1140 435 1125 q 440 1151 435 1149 q 450 1154 444 1154 q 507 1144 483 1154 q 528 1132 519 1138 q 549 1126 536 1126 q 560 1143 554 1126 q 568 1165 565 1160 q 588 1184 576 1176 q 613 1199 599 1192 q 626 1201 615 1201 q 643 1201 638 1201 q 650 1199 647 1201 q 656 1196 653 1197 q 666 1191 658 1194 q 675 1188 674 1188 q 696 1165 686 1181 q 710 1135 706 1149 q 711 1126 710 1133 q 715 1118 713 1119 q 715 1114 715 1117 q 718 1111 715 1111 q 725 1115 722 1111 q 733 1122 728 1119 q 740 1125 735 1124 q 746 1128 744 1126 q 756 1131 750 1131 q 764 1135 761 1132 q 770 1142 765 1136 q 776 1149 775 1147 q 808 1164 789 1160 q 844 1172 828 1168 l 847 1172 q 858 1169 851 1172 q 865 1161 865 1167 q 861 1145 865 1154 q 849 1133 857 1136 l 811 1122 q 800 1113 804 1119 q 794 1100 796 1106 q 790 1076 793 1093 q 786 1056 786 1058 q 785 1048 786 1054 q 783 1034 783 1042 q 781 1020 782 1026 q 781 1013 781 1014 q 776 997 779 1006 q 774 982 774 989 q 780 973 774 975 q 789 964 786 971 q 791 960 790 963 q 793 956 792 957 q 793 949 793 954 q 794 938 793 943 q 797 927 794 932 q 803 922 799 922 q 811 924 806 922 q 817 929 817 926 q 811 941 817 936 q 806 953 806 946 q 808 960 806 960 q 813 967 810 961 q 814 971 813 968 q 815 974 815 972 q 817 976 815 975 l 817 978 q 818 979 817 978 q 827 985 821 983 q 833 989 833 986 q 830 996 833 993 q 826 1006 826 999 q 828 1013 826 1010 q 832 1017 829 1015 q 838 1021 835 1018 q 841 1031 840 1024 q 844 1039 842 1039 l 857 1043 q 861 1047 860 1043 q 864 1053 863 1051 q 867 1058 864 1054 q 872 1063 871 1061 q 884 1078 882 1074 q 904 1082 886 1082 q 914 1094 908 1086 q 924 1103 919 1103 l 936 1103 q 946 1109 942 1103 q 957 1117 950 1115 q 963 1117 958 1117 q 969 1118 968 1118 q 978 1120 974 1118 q 985 1122 982 1122 q 1008 1125 996 1124 q 1032 1129 1021 1126 q 1038 1129 1033 1129 q 1046 1131 1043 1129 q 1050 1133 1049 1132 q 1052 1135 1051 1135 q 1054 1136 1053 1135 l 1063 1136 q 1066 1138 1064 1138 q 1069 1140 1068 1139 l 1071 1144 q 1077 1147 1072 1146 q 1082 1150 1082 1149 q 1088 1154 1083 1150 q 1094 1161 1092 1158 q 1099 1171 1099 1165 q 1101 1181 1099 1176 q 1106 1188 1103 1186 q 1108 1194 1108 1190 q 1108 1201 1108 1197 q 1107 1207 1107 1204 q 1109 1214 1107 1210 q 1111 1222 1111 1218 q 1108 1229 1110 1225 q 1106 1236 1107 1233 l 1106 1247 q 1104 1253 1106 1251 q 1101 1260 1103 1254 q 1096 1282 1099 1269 q 1086 1301 1093 1294 q 1077 1313 1083 1306 q 1069 1326 1071 1319 q 1066 1338 1067 1333 q 1061 1349 1065 1342 q 1046 1360 1054 1356 q 1038 1371 1038 1364 q 1043 1382 1038 1378 q 1054 1386 1049 1386 q 1078 1376 1068 1386 q 1097 1358 1089 1365 q 1099 1356 1099 1357 q 1100 1354 1099 1356 q 1108 1342 1103 1351 q 1117 1331 1114 1333 q 1120 1322 1119 1325 q 1124 1313 1121 1319 q 1128 1305 1126 1308 q 1132 1297 1131 1301 q 1138 1283 1133 1292 q 1140 1271 1140 1276 q 1143 1261 1140 1265 q 1149 1249 1146 1258 q 1153 1236 1151 1239 l 1153 1217 q 1154 1209 1153 1215 q 1156 1201 1156 1203 l 1156 1199 q 1151 1192 1156 1194 q 1147 1185 1147 1189 q 1150 1172 1150 1179 q 1147 1163 1150 1165 q 1138 1157 1144 1160 l 1138 1138 l 1135 1135 q 1132 1133 1133 1133 q 1131 1132 1131 1133 q 1125 1124 1126 1129 q 1121 1117 1124 1119 q 1116 1114 1119 1117 q 1113 1110 1113 1111 q 1106 1103 1108 1107 q 1100 1097 1103 1100 q 1096 1094 1099 1097 q 1093 1093 1094 1093 l 1090 1090 q 1084 1084 1088 1088 q 1076 1079 1081 1081 q 1072 1078 1076 1078 q 1067 1073 1069 1076 q 1061 1067 1064 1069 q 1053 1065 1057 1064 q 1046 1063 1049 1065 l 1042 1058 q 1039 1056 1039 1056 l 1038 1054 q 1031 1053 1035 1053 q 1024 1054 1026 1054 l 1021 1051 q 994 1046 1010 1044 q 986 1040 992 1040 q 975 1039 981 1039 q 969 1035 974 1039 q 964 1032 965 1032 q 956 1028 961 1028 q 947 1026 950 1029 q 937 1017 940 1022 q 925 1011 933 1011 q 922 1012 922 1011 q 919 1013 922 1013 q 917 1010 917 1013 q 914 1007 917 1008 q 900 988 908 993 q 894 983 897 985 q 888 978 890 981 q 880 968 883 975 q 876 958 876 961 q 881 944 881 951 q 876 934 881 938 q 868 928 872 931 q 860 922 864 925 q 856 914 856 919 q 862 902 856 907 q 868 890 868 897 q 862 878 868 881 q 856 871 856 876 q 861 867 856 871 l 868 860 q 873 847 872 854 q 881 838 874 840 q 897 834 890 835 q 911 833 903 833 q 929 836 922 833 q 957 838 936 836 q 985 839 978 839 l 988 839 q 1010 838 999 839 q 1035 836 1022 836 q 1044 844 1042 836 q 1050 858 1047 851 q 1074 889 1060 875 q 1078 891 1075 889 q 1082 894 1082 893 q 1105 923 1093 901 q 1117 957 1117 944 q 1108 967 1117 965 q 1090 969 1100 968 q 1071 975 1079 971 q 1063 992 1063 979 q 1068 1005 1063 999 q 1081 1011 1074 1011 q 1090 1010 1085 1011 q 1099 1008 1094 1008 q 1107 1010 1101 1008 q 1117 1014 1113 1013 q 1124 1015 1121 1015 q 1132 1018 1128 1015 q 1141 1035 1139 1025 q 1150 1054 1143 1046 q 1159 1067 1154 1065 q 1167 1081 1164 1068 q 1189 1099 1171 1099 q 1208 1092 1197 1099 q 1221 1075 1218 1085 q 1222 1071 1222 1074 q 1224 1065 1222 1065 q 1225 1063 1224 1063 q 1233 1064 1231 1063 q 1240 1065 1236 1065 q 1262 1053 1256 1065 q 1268 1025 1268 1040 q 1268 1017 1268 1019 q 1267 1008 1268 1015 q 1260 1000 1265 1006 q 1256 993 1256 994 q 1260 985 1256 989 q 1267 978 1264 981 q 1272 965 1269 971 q 1274 951 1274 958 q 1272 939 1274 947 q 1265 922 1269 931 q 1256 908 1261 914 q 1246 903 1251 903 q 1244 910 1244 906 q 1244 917 1244 914 q 1245 926 1244 922 q 1246 938 1246 931 q 1242 951 1246 943 q 1235 958 1239 958 q 1219 957 1224 958 q 1207 951 1217 954 q 1194 946 1197 947 q 1192 943 1194 943 l 1185 929 q 1181 908 1181 921 q 1172 883 1178 896 q 1167 857 1167 871 q 1167 849 1167 853 q 1168 840 1168 844 q 1165 828 1168 832 q 1156 817 1163 824 q 1151 802 1153 810 q 1143 788 1150 794 q 1135 779 1139 782 q 1126 771 1131 776 q 1124 760 1124 765 q 1121 751 1124 754 q 1112 744 1115 747 q 1101 739 1108 740 q 1092 738 1100 739 q 1083 736 1085 738 q 1061 733 1078 736 q 1040 729 1044 731 l 1038 729 q 1024 735 1026 729 q 1014 740 1021 740 l 1011 740 q 1001 738 1008 739 q 990 738 993 738 l 924 738 q 867 728 899 728 q 856 728 861 728 q 846 729 851 729 q 841 719 842 729 q 833 706 840 710 q 818 693 818 700 q 826 678 818 683 q 833 664 833 672 q 822 650 833 653 q 811 640 811 647 l 811 639 q 828 607 828 622 l 828 599 q 827 596 828 597 q 826 592 826 594 q 825 588 825 589 l 825 558 q 816 486 825 521 q 797 415 807 451 l 797 413 q 793 398 794 407 q 789 381 792 389 q 785 360 786 371 l 785 328 q 782 320 785 324 q 779 313 779 317 q 771 255 779 276 q 742 206 763 233 q 726 187 735 196 q 718 164 718 178 q 719 135 718 151 q 722 107 721 119 q 731 90 724 96 q 739 75 739 85 q 734 68 739 69 q 726 63 729 67 l 726 57 q 727 47 726 51 q 728 39 728 43 q 710 19 728 19 q 701 21 704 19 q 699 29 699 22 q 701 38 699 35 q 703 43 703 40 q 697 50 703 50 q 694 47 694 50 q 692 42 693 44 q 685 13 690 32 q 669 -6 681 -6 q 662 -1 664 -6 q 660 7 660 3 m 575 424 q 578 422 575 422 q 588 430 581 422 q 594 440 594 438 l 589 440 l 583 435 l 581 432 l 578 429 q 576 427 578 428 q 575 424 575 426 z "},":":{"ha":543,"x_min":43,"x_max":242,"o":"m 113 6 q 106 8 110 7 q 100 10 103 8 q 62 44 75 24 q 44 93 49 65 q 44 103 44 99 q 43 114 43 108 q 44 135 43 125 q 46 157 44 146 l 46 164 q 49 177 47 167 q 53 193 51 188 q 60 219 56 207 q 72 243 65 231 q 81 258 78 254 q 83 262 82 258 q 86 265 85 265 l 86 267 q 102 286 93 276 q 124 299 111 296 q 140 301 135 301 q 167 297 154 301 q 191 278 182 290 q 207 253 200 265 l 207 251 q 208 249 207 250 q 211 247 210 249 l 213 243 q 217 232 214 240 q 222 221 221 224 q 235 181 231 203 l 236 178 q 238 172 236 175 q 239 165 238 168 q 242 144 242 156 q 242 124 242 133 q 240 93 242 108 q 235 63 239 78 q 233 59 235 60 q 232 56 232 58 q 224 40 229 49 q 213 26 219 32 q 204 22 208 24 q 196 17 200 19 q 185 10 190 13 q 172 6 179 8 l 171 6 q 140 1 156 1 l 131 1 q 124 3 128 3 q 117 4 121 3 q 113 6 115 6 m 113 381 q 106 383 110 382 q 100 385 103 383 q 62 419 75 399 q 44 468 49 440 q 44 478 44 474 q 43 489 43 483 q 44 510 43 500 q 46 532 44 521 l 46 539 q 49 552 47 542 q 53 568 51 563 q 60 594 56 582 q 72 618 65 606 q 81 633 78 629 q 83 637 82 633 q 86 640 85 640 l 86 642 q 102 661 93 651 q 124 674 111 671 q 140 676 135 676 q 167 672 154 676 q 191 653 182 665 q 207 628 200 640 l 207 626 q 208 624 207 625 q 211 622 210 624 l 213 618 q 217 607 214 615 q 222 596 221 599 q 235 556 231 578 l 236 553 q 238 547 236 550 q 239 540 238 543 q 242 519 242 531 q 242 499 242 508 q 240 468 242 483 q 235 438 239 453 q 233 434 235 435 q 232 431 232 433 q 224 415 229 424 q 213 401 219 407 q 204 397 208 399 q 196 392 200 394 q 185 385 190 388 q 172 381 179 383 l 171 381 q 140 376 156 376 l 131 376 q 124 378 128 378 q 117 379 121 378 q 113 381 115 381 z "},";":{"ha":357,"x_min":68,"x_max":288,"o":"m 106 7 q 96 15 97 13 q 72 62 76 38 q 74 114 68 86 q 77 123 76 118 q 81 133 78 128 q 90 153 85 143 q 99 172 94 163 q 101 179 101 175 q 110 190 104 181 q 119 203 117 199 q 135 224 126 214 q 156 243 144 233 q 168 254 164 251 q 172 256 169 253 q 176 258 175 258 l 176 260 q 199 272 186 267 q 224 275 211 278 q 240 272 232 275 q 253 266 247 269 q 263 258 258 263 q 278 232 274 247 q 285 201 282 217 l 285 200 q 283 197 285 199 q 286 196 285 197 l 286 190 l 286 167 q 283 125 288 149 l 283 121 q 283 115 282 118 q 282 108 282 113 q 276 88 279 99 q 269 69 272 78 q 256 40 263 54 q 240 15 250 26 q 238 13 239 13 q 235 10 236 13 q 206 -11 222 -4 q 196 -12 200 -12 q 188 -14 192 -11 q 174 -16 181 -17 q 161 -15 168 -15 l 160 -15 q 129 -7 146 -14 q 125 -6 128 -7 q 121 -4 122 -4 q 115 0 118 -1 q 108 4 113 1 q 106 7 108 7 m 154 381 q 148 383 151 382 q 142 385 144 383 q 103 419 117 399 q 86 468 90 440 q 85 478 86 474 q 85 489 85 483 q 85 510 85 500 q 88 532 86 521 l 88 539 q 91 552 89 542 q 94 568 93 563 q 102 594 97 582 q 114 618 107 606 q 122 633 119 629 q 125 637 124 633 q 128 640 126 640 l 128 642 q 144 661 135 651 q 165 674 153 671 q 182 676 176 676 q 208 672 196 676 q 233 653 224 665 q 249 628 242 640 l 249 626 q 250 624 249 625 q 253 622 251 624 l 254 618 q 259 607 256 615 q 264 596 263 599 q 276 556 272 578 l 278 553 q 279 547 278 550 q 281 540 279 543 q 283 519 283 531 q 283 499 283 508 q 282 468 283 483 q 276 438 281 453 q 275 434 276 435 q 274 431 274 433 q 266 415 271 424 q 254 401 261 407 q 246 397 250 399 q 238 392 242 394 q 226 385 232 388 q 214 381 221 383 l 213 381 q 182 376 197 376 l 172 376 q 166 378 169 378 q 158 379 163 378 q 154 381 157 381 z "},"$":{"ha":663,"x_min":69,"x_max":593,"o":"m 89 414 q 131 385 107 401 q 182 356 156 369 q 235 333 208 343 q 286 324 261 324 l 289 324 q 293 326 290 324 q 296 329 296 328 l 296 653 q 276 665 296 654 q 233 688 257 675 q 185 712 208 700 q 153 731 161 724 q 85 826 101 772 q 69 944 69 879 q 91 1023 69 989 q 144 1083 113 1057 q 215 1128 176 1110 q 289 1163 254 1147 q 295 1166 292 1164 q 299 1169 299 1168 l 299 1292 l 369 1292 l 369 1163 q 399 1157 369 1163 q 462 1142 428 1151 q 525 1121 496 1133 q 554 1092 554 1108 l 554 994 l 547 994 q 524 1005 540 997 q 490 1021 508 1013 q 454 1036 471 1029 q 431 1046 438 1043 q 408 1052 428 1047 q 379 1060 389 1057 l 376 1060 q 367 1054 368 1060 q 367 1043 367 1049 l 367 1028 q 367 971 367 1011 q 369 885 368 931 q 371 800 369 840 q 372 743 372 760 q 460 700 419 724 q 530 645 500 676 q 576 573 560 614 q 593 478 593 532 q 563 347 593 407 q 464 251 532 286 q 444 245 460 250 q 412 234 429 240 q 381 222 394 228 q 367 213 367 217 l 367 97 l 299 97 l 299 207 q 276 217 299 208 q 224 235 253 225 q 170 253 196 244 q 140 265 144 263 q 126 274 135 268 q 108 284 117 279 q 94 293 100 289 q 89 297 89 297 l 89 414 m 367 326 q 419 341 396 326 q 458 377 443 356 q 482 426 474 399 q 490 478 490 453 q 488 515 490 500 q 478 543 485 531 q 460 567 472 556 q 431 594 449 579 q 422 601 428 596 q 406 613 415 607 q 388 624 397 619 q 372 628 379 628 q 371 627 371 628 q 369 626 371 626 l 367 626 l 367 326 m 178 921 q 187 873 178 899 q 211 825 196 847 q 249 788 226 803 q 296 774 271 774 l 296 1056 q 248 1043 269 1056 q 210 1011 226 1031 q 186 967 194 992 q 178 921 178 943 z "},"‘":{"ha":357,"x_min":68,"x_max":288,"o":"m 106 1040 q 96 1049 97 1046 q 72 1095 76 1071 q 74 1147 68 1119 q 77 1156 76 1151 q 81 1167 78 1161 q 90 1186 85 1176 q 99 1206 94 1196 q 101 1213 101 1208 q 110 1223 104 1214 q 119 1236 117 1232 q 135 1257 126 1247 q 156 1276 144 1267 q 168 1288 164 1285 q 172 1289 169 1286 q 176 1292 175 1292 l 176 1293 q 199 1306 186 1300 q 224 1308 211 1311 q 240 1306 232 1308 q 253 1299 247 1303 q 263 1292 258 1296 q 278 1265 274 1281 q 285 1235 282 1250 l 285 1233 q 283 1231 285 1232 q 286 1229 285 1231 l 286 1224 l 286 1200 q 283 1158 288 1182 l 283 1154 q 283 1149 282 1151 q 282 1142 282 1146 q 276 1122 279 1132 q 269 1103 272 1111 q 256 1074 263 1088 q 240 1049 250 1060 q 238 1046 239 1046 q 235 1043 236 1046 q 206 1022 222 1029 q 196 1022 200 1021 q 188 1019 192 1022 q 174 1017 181 1017 q 161 1018 168 1018 l 160 1018 q 129 1026 146 1019 q 125 1028 128 1026 q 121 1029 122 1029 q 115 1033 118 1032 q 108 1038 113 1035 q 106 1040 108 1040 z "},"’":{"ha":357,"x_min":68,"x_max":288,"o":"m 106 1286 q 108 1289 108 1286 q 115 1293 113 1292 q 121 1297 118 1294 q 125 1299 122 1297 q 129 1300 128 1300 q 160 1308 146 1307 l 161 1308 q 174 1309 168 1308 q 188 1307 181 1310 q 196 1305 192 1304 q 206 1304 200 1306 q 235 1283 222 1297 q 238 1281 236 1281 q 240 1278 239 1281 q 256 1253 250 1267 q 269 1224 263 1239 q 276 1205 272 1215 q 282 1185 279 1194 q 283 1178 282 1181 q 283 1172 282 1175 l 283 1168 q 286 1126 288 1144 l 286 1103 l 286 1097 q 283 1096 285 1096 q 284 1094 283 1094 q 285 1093 285 1094 l 285 1092 q 278 1061 282 1076 q 263 1035 274 1046 q 253 1027 258 1031 q 240 1021 247 1024 q 224 1018 232 1018 q 199 1021 211 1015 q 176 1033 186 1026 l 176 1035 q 172 1038 175 1035 q 168 1039 169 1040 q 156 1050 164 1042 q 135 1069 144 1060 q 119 1090 126 1079 q 110 1103 117 1094 q 101 1114 104 1113 q 99 1121 101 1118 q 90 1140 94 1131 q 81 1160 85 1150 q 77 1170 78 1165 q 74 1179 76 1175 q 72 1231 68 1207 q 96 1278 76 1256 q 106 1286 97 1281 z "},"¼":{"ha":1447,"x_min":69,"x_max":1378,"o":"m 1257 393 l 1257 1 l 1378 1 l 1378 551 l 1257 551 l 1257 496 l 1061 496 l 1372 969 q 1375 976 1374 972 q 1378 982 1376 979 l 1378 986 l 1260 986 l 1256 976 l 914 454 q 905 425 904 439 q 906 393 906 411 l 1257 393 m 108 1385 l 108 403 l 215 403 l 215 1385 l 108 1385 m 215 0 l 69 0 l 1194 1389 l 1372 1389 l 215 0 z "},"½":{"ha":1771,"x_min":69,"x_max":1701,"o":"m 215 1385 l 215 403 l 108 403 l 108 1385 l 215 1385 m 215 0 l 69 0 l 1194 1389 l 1372 1389 l 215 0 m 1143 60 q 1162 85 1155 69 q 1181 109 1168 100 l 1556 594 q 1570 616 1564 603 q 1580 642 1575 628 q 1586 669 1584 656 q 1588 695 1588 683 q 1584 723 1588 708 q 1578 749 1580 738 q 1559 800 1572 776 q 1525 840 1545 823 q 1481 866 1506 856 q 1428 876 1456 876 q 1367 870 1396 876 q 1314 851 1338 864 q 1271 816 1290 838 q 1243 762 1253 794 q 1239 737 1242 754 q 1230 710 1236 720 q 1229 709 1230 709 q 1228 709 1228 709 l 1221 709 l 1212 709 q 1196 709 1207 709 q 1172 709 1185 709 q 1148 710 1159 709 q 1132 710 1136 710 q 1131 719 1132 712 q 1131 728 1131 726 q 1144 801 1131 766 q 1178 865 1156 836 q 1230 918 1200 894 q 1293 957 1260 941 q 1345 973 1317 968 q 1397 982 1373 978 l 1418 982 q 1499 970 1459 982 q 1572 937 1538 958 q 1635 886 1607 916 q 1679 818 1663 855 q 1692 764 1690 793 q 1695 708 1695 736 q 1693 671 1695 692 q 1688 629 1692 651 q 1676 588 1683 608 q 1660 556 1669 569 l 1307 108 l 1702 108 l 1702 1 l 1143 1 l 1143 60 l 1143 60 z "},"¾":{"ha":1719,"x_min":69,"x_max":1650,"o":"m 1178 393 q 1177 425 1178 411 q 1186 454 1176 439 l 1528 976 l 1532 986 l 1650 986 l 1650 982 q 1647 976 1649 979 q 1644 969 1646 972 l 1333 496 l 1529 496 l 1529 551 l 1650 551 l 1650 1 l 1529 1 l 1529 393 l 1178 393 m 69 504 q 105 505 79 504 q 159 506 131 506 q 213 506 188 506 q 249 507 239 507 q 349 513 296 508 q 447 534 403 517 q 522 586 492 551 q 551 683 551 621 q 513 794 551 757 q 419 845 475 831 q 300 860 364 860 q 185 863 236 861 l 185 943 l 478 1290 l 69 1290 l 69 1393 l 688 1393 l 313 963 l 301 947 q 440 936 374 946 q 558 898 507 926 q 638 817 608 869 q 668 676 668 764 q 646 558 668 607 q 583 476 624 508 q 488 428 543 443 q 367 413 432 413 l 340 413 q 287 413 325 413 q 205 415 249 414 q 123 416 161 415 q 69 418 85 417 l 69 504 m 488 0 l 342 0 l 1467 1389 l 1644 1389 l 488 0 z "},"®":{"ha":1468,"x_min":49,"x_max":1419,"o":"m 428 379 l 428 0 l 49 0 l 49 379 l 428 379 m 538 47 l 538 0 l 488 0 l 488 47 l 538 47 m 649 53 l 649 107 l 703 107 l 703 215 l 649 215 l 649 111 l 597 111 l 597 158 l 540 158 l 540 111 l 488 111 l 488 161 l 540 161 l 540 218 l 593 218 l 593 328 l 485 328 l 485 438 l 265 438 l 265 492 l 210 492 l 210 549 l 49 549 l 49 600 l 207 600 l 207 657 l 156 657 l 156 714 l 103 714 l 103 771 l 265 771 l 265 876 l 319 876 l 319 822 l 428 822 l 428 771 l 376 771 l 376 714 l 322 714 l 322 660 l 376 660 l 376 714 l 485 714 l 485 879 l 540 879 l 540 989 l 593 989 l 593 1040 l 540 1040 l 540 993 l 488 993 l 488 1100 l 540 1100 l 540 1154 l 597 1154 l 597 1211 l 647 1211 l 647 1260 l 597 1260 l 597 1214 l 488 1214 l 488 1265 l 597 1265 l 597 1319 l 649 1319 l 649 1371 l 760 1371 l 760 1319 l 706 1319 l 706 1211 l 649 1211 l 649 1154 l 600 1154 l 600 1103 l 649 1103 l 649 1154 l 706 1154 l 706 1211 l 763 1211 l 763 1265 l 871 1265 l 871 1371 l 981 1371 l 981 1265 l 871 1265 l 871 1211 l 819 1211 l 819 1154 l 708 1154 l 708 1103 l 819 1103 l 819 1150 l 868 1150 l 868 989 l 819 989 l 819 939 l 767 939 l 767 989 l 814 989 l 814 1040 l 763 1040 l 763 989 l 706 989 l 706 935 l 653 935 l 653 879 l 706 879 l 706 775 l 763 775 l 763 822 l 871 822 l 871 932 l 981 932 l 981 879 l 928 879 l 928 771 l 875 771 l 875 718 l 928 718 l 928 771 l 982 771 l 982 879 l 1092 879 l 1092 932 l 1144 932 l 1144 822 l 1038 822 l 1038 714 l 988 714 l 988 660 l 1038 660 l 1038 711 l 1144 711 l 1144 600 l 1096 600 l 1096 494 l 1149 494 l 1149 549 l 1203 549 l 1203 600 l 1313 600 l 1313 657 l 1368 657 l 1368 711 l 1419 711 l 1419 551 l 1368 551 l 1368 599 l 1313 599 l 1313 549 l 1206 549 l 1206 385 l 1260 385 l 1260 438 l 1313 438 l 1313 489 l 1364 489 l 1364 438 l 1313 438 l 1313 382 l 1260 382 l 1260 328 l 1206 328 l 1206 271 l 1260 271 l 1260 218 l 1308 218 l 1308 161 l 1203 161 l 1203 53 l 1092 53 l 1092 0 l 1042 0 l 1042 53 l 1092 53 l 1092 107 l 1144 107 l 1144 215 l 1038 215 l 1038 107 l 982 107 l 982 0 l 767 0 l 767 53 l 814 53 l 814 103 l 763 103 l 763 53 l 649 53 l 649 0 l 600 0 l 600 53 l 649 53 m 1256 47 l 1256 0 l 1206 0 l 1206 47 l 1256 47 m 1419 47 l 1419 0 l 1372 0 l 1372 47 l 1419 47 m 103 56 l 374 56 l 374 326 l 103 326 l 103 56 m 871 56 l 928 56 l 928 107 l 981 107 l 981 161 l 928 161 l 928 218 l 875 218 l 875 328 l 928 328 l 928 549 l 1035 549 l 1035 599 l 928 599 l 928 551 l 871 551 l 871 654 l 819 654 l 819 549 l 763 549 l 763 492 l 649 492 l 649 438 l 600 438 l 600 382 l 703 382 l 703 328 l 653 328 l 653 275 l 763 275 l 763 326 l 814 326 l 814 218 l 767 218 l 767 161 l 871 161 l 871 56 m 317 269 l 317 111 l 160 111 l 160 269 l 317 269 m 1419 158 l 1419 111 l 1315 111 l 1315 158 l 1419 158 m 988 275 l 1144 275 l 1144 433 l 988 433 l 988 275 m 1368 328 l 1368 433 l 1419 433 l 1419 275 l 1315 275 l 1315 328 l 1368 328 m 1088 379 l 1088 332 l 1042 332 l 1042 379 l 1088 379 m 868 489 l 868 438 l 819 438 l 819 385 l 767 385 l 767 489 l 868 489 m 151 489 l 151 439 l 49 439 l 49 489 l 151 489 m 322 494 l 649 494 l 649 549 l 703 549 l 703 657 l 649 657 l 649 711 l 485 711 l 485 657 l 379 657 l 379 600 l 428 600 l 428 549 l 322 549 l 322 494 m 269 551 l 317 551 l 317 599 l 269 599 l 269 551 m 593 599 l 593 551 l 543 551 l 543 599 l 593 599 m 767 660 l 814 660 l 814 767 l 767 767 l 767 660 m 1151 771 l 1151 822 l 1203 822 l 1203 879 l 1260 879 l 1260 932 l 1308 932 l 1308 879 l 1263 879 l 1263 826 l 1313 826 l 1313 879 l 1368 879 l 1368 932 l 1419 932 l 1419 775 l 1368 775 l 1368 819 l 1313 819 l 1313 771 l 1260 771 l 1260 718 l 1203 718 l 1203 771 l 1151 771 m 543 775 l 647 775 l 647 822 l 597 822 l 597 876 l 543 876 l 543 775 m 101 932 l 101 883 l 156 883 l 156 932 l 207 932 l 207 826 l 49 826 l 49 932 l 101 932 m 482 932 l 482 883 l 379 883 l 379 932 l 482 932 m 428 1371 l 428 993 l 49 993 l 49 1371 l 428 1371 m 653 993 l 703 993 l 703 1040 l 653 1040 l 653 993 m 981 1040 l 981 993 l 931 993 l 931 1040 l 981 1040 m 1419 1371 l 1419 993 l 1042 993 l 1042 1371 l 1419 1371 m 103 1047 l 374 1047 l 374 1317 l 103 1317 l 103 1047 m 1096 1047 l 1364 1047 l 1364 1317 l 1096 1317 l 1096 1047 m 317 1260 l 317 1103 l 160 1103 l 160 1260 l 317 1260 m 981 1207 l 981 1103 l 931 1103 l 931 1207 l 981 1207 m 1308 1260 l 1308 1103 l 1151 1103 l 1151 1260 l 1308 1260 m 593 1371 l 593 1324 l 488 1324 l 488 1371 l 593 1371 z "},"©":{"ha":2153,"x_min":69,"x_max":2083,"o":"m 1874 394 q 1869 392 1872 394 q 1867 388 1867 390 q 1833 342 1849 360 q 1782 325 1818 325 q 1758 325 1769 325 q 1735 332 1746 325 q 1748 333 1739 332 q 1767 335 1757 333 q 1785 338 1776 336 q 1797 340 1794 339 q 1838 369 1828 347 q 1860 417 1849 390 l 1857 419 l 1854 422 q 1844 426 1851 424 q 1829 433 1838 429 q 1814 440 1821 438 q 1806 444 1807 443 q 1788 451 1801 446 q 1769 465 1775 457 q 1774 466 1771 465 q 1781 467 1778 467 q 1783 466 1782 467 q 1786 465 1783 465 l 1790 465 q 1812 458 1794 465 q 1833 451 1829 451 l 1835 451 l 1840 451 q 1836 454 1838 451 q 1833 458 1835 457 q 1822 466 1831 460 q 1805 479 1814 472 q 1787 492 1796 486 q 1776 499 1778 497 q 1767 508 1775 500 q 1750 524 1760 515 q 1730 542 1740 533 q 1714 556 1719 551 q 1704 564 1711 558 q 1697 578 1697 569 l 1707 578 q 1717 569 1710 575 q 1731 556 1724 563 q 1746 542 1739 549 q 1756 535 1753 536 q 1767 526 1757 533 q 1789 510 1776 519 q 1814 492 1801 501 q 1833 479 1826 483 q 1844 471 1836 476 q 1854 465 1853 465 q 1865 471 1857 465 q 1874 479 1872 476 q 1874 501 1874 485 q 1875 521 1875 517 q 1868 582 1875 554 q 1846 639 1861 610 q 1842 647 1846 640 q 1835 660 1839 653 q 1829 673 1832 667 q 1825 681 1826 679 l 1825 689 q 1844 675 1838 689 q 1854 654 1850 661 q 1860 640 1856 650 q 1869 620 1864 631 q 1877 601 1874 610 q 1882 590 1881 593 q 1894 537 1893 563 q 1896 479 1894 511 l 1901 472 q 1908 490 1903 478 q 1917 517 1913 503 q 1925 544 1921 532 q 1931 563 1929 557 q 1931 570 1931 564 q 1933 583 1932 576 q 1935 597 1935 590 q 1936 604 1936 603 q 1940 608 1938 607 q 1943 611 1943 610 l 1943 597 q 1931 526 1943 558 q 1918 460 1918 494 q 1954 464 1935 460 q 1990 478 1974 468 q 2019 501 2007 488 q 2035 535 2032 515 q 2035 528 2035 533 q 2036 521 2036 522 q 2026 488 2036 500 q 2001 467 2015 475 q 1968 455 1986 460 q 1936 444 1950 450 q 1933 441 1936 443 q 1931 438 1931 439 q 1981 410 1954 424 q 2028 375 2008 396 q 2065 335 2047 353 q 2083 288 2083 317 l 2083 278 q 2066 310 2078 293 q 2040 342 2054 326 q 2008 372 2025 358 q 1978 394 1992 386 l 1975 396 l 1972 394 q 1970 376 1972 388 q 1963 356 1968 365 q 1951 339 1958 346 q 1933 332 1944 332 q 1908 342 1922 332 q 1888 361 1894 351 l 1888 354 q 1904 258 1888 304 q 1950 174 1921 213 l 1949 171 q 1944 172 1946 171 q 1943 174 1943 172 q 1908 215 1922 188 q 1885 276 1893 243 q 1874 341 1876 308 q 1874 394 1871 374 m 429 465 q 413 490 419 476 q 404 521 406 504 q 415 525 410 522 q 426 535 426 531 l 426 688 l 385 736 l 385 743 q 398 744 388 743 q 413 744 408 744 q 424 745 415 744 q 444 747 433 746 q 463 749 454 749 q 475 750 472 750 q 497 751 481 750 q 530 752 513 751 q 563 753 547 753 q 586 753 579 753 q 583 726 586 744 q 576 690 581 708 q 565 659 571 672 q 554 646 560 646 l 551 646 q 541 667 549 653 q 522 688 533 682 q 517 686 522 689 q 510 683 513 683 l 510 535 q 530 531 514 533 q 551 528 546 528 q 563 524 556 526 q 572 521 569 522 l 572 518 l 572 514 q 546 481 557 490 q 507 465 535 472 l 507 197 q 475 214 483 197 q 462 238 469 222 q 447 267 454 253 q 434 292 439 282 q 429 304 429 303 l 429 465 m 1388 222 q 1401 235 1392 226 q 1422 256 1411 244 q 1443 277 1433 267 q 1456 292 1453 288 q 1465 303 1460 296 q 1477 318 1471 310 q 1488 335 1483 326 q 1492 350 1492 343 q 1488 360 1492 357 q 1483 372 1483 364 q 1492 388 1483 381 q 1513 403 1501 394 q 1533 422 1524 411 q 1542 444 1542 432 q 1534 463 1542 451 q 1519 479 1526 474 q 1506 490 1515 483 q 1487 505 1497 497 q 1468 519 1476 513 q 1456 528 1460 525 q 1450 531 1454 528 q 1443 535 1446 533 q 1432 538 1440 535 q 1421 542 1424 540 q 1403 559 1417 546 q 1388 578 1390 572 q 1385 582 1386 578 q 1385 588 1385 586 q 1385 594 1385 590 q 1388 597 1386 597 q 1401 603 1390 600 q 1415 604 1411 607 l 1526 715 q 1556 728 1538 728 q 1589 736 1575 728 q 1595 744 1589 738 q 1603 750 1601 750 q 1614 753 1606 751 q 1625 754 1622 754 q 1615 699 1625 726 q 1596 646 1606 671 l 1592 646 q 1576 660 1583 646 q 1561 681 1568 675 l 1483 597 q 1509 574 1494 585 q 1538 554 1524 564 q 1567 533 1553 544 q 1589 507 1581 522 q 1592 497 1589 504 q 1596 486 1594 489 q 1603 469 1597 482 q 1611 451 1608 456 l 1492 278 q 1479 264 1489 275 q 1464 250 1469 253 q 1457 246 1463 249 q 1450 242 1451 243 q 1422 216 1432 226 q 1388 206 1411 206 l 1388 222 m 892 674 q 885 696 886 688 q 885 715 885 704 l 885 731 q 897 723 892 724 q 911 722 903 722 q 921 726 918 722 q 926 733 924 729 q 930 741 928 738 q 938 744 932 744 l 942 744 l 956 731 l 1018 528 q 1032 507 1021 514 q 1040 513 1035 508 q 1046 521 1044 518 l 1046 524 l 1046 528 q 1035 593 1038 564 q 1032 660 1032 622 l 1032 731 q 1046 723 1039 724 q 1061 722 1053 722 q 1077 726 1071 722 q 1089 736 1083 731 q 1101 746 1094 742 q 1118 750 1107 750 q 1116 720 1118 735 q 1104 694 1114 706 l 1104 233 q 1088 237 1093 233 q 1079 246 1082 240 q 1074 260 1076 251 q 1067 278 1072 268 q 1044 314 1058 293 q 1018 346 1029 335 q 1009 371 1015 353 q 997 409 1003 389 q 984 447 990 429 q 975 472 978 465 q 967 498 972 483 q 951 521 961 513 l 951 226 q 935 235 940 226 q 917 269 925 250 q 899 304 910 288 q 897 308 897 306 q 894 313 896 310 l 892 318 l 892 674 m 1231 654 q 1213 667 1215 663 q 1199 688 1210 672 q 1190 698 1196 690 q 1177 713 1183 706 q 1165 727 1171 721 q 1157 736 1158 733 l 1157 744 l 1360 744 l 1360 722 q 1346 707 1360 719 q 1325 688 1332 694 q 1313 683 1322 686 q 1299 681 1303 681 l 1299 225 q 1280 232 1286 225 q 1271 248 1274 239 q 1267 267 1268 257 q 1261 285 1265 278 q 1247 306 1258 290 q 1231 326 1235 321 l 1231 654 m 794 747 q 806 730 796 747 q 822 703 817 713 q 826 694 824 700 q 831 688 829 689 l 831 686 l 831 681 q 829 626 831 665 q 826 542 828 586 q 824 458 825 497 q 822 403 822 418 q 807 388 818 399 q 784 364 796 376 q 761 341 772 351 q 746 326 750 331 q 739 321 744 325 q 728 313 733 317 q 717 304 722 308 q 713 299 713 300 q 698 284 710 296 q 683 269 686 272 l 678 269 q 663 276 669 269 q 653 290 657 282 q 646 307 649 299 q 642 318 643 315 q 639 322 642 319 q 636 326 636 325 q 631 334 633 329 q 628 340 628 339 l 628 694 q 633 715 628 708 q 647 725 639 721 q 663 733 654 729 q 675 747 671 738 l 794 747 m 704 358 q 724 367 714 358 q 741 390 733 376 q 753 416 749 403 q 760 438 758 429 q 761 481 760 450 q 764 545 763 511 q 766 610 765 579 q 767 654 767 642 l 767 668 q 754 692 767 688 q 726 696 742 696 q 715 695 724 696 q 704 694 707 694 l 704 358 m 1749 472 q 1746 468 1749 468 q 1742 472 1743 468 q 1745 475 1742 475 q 1749 472 1749 475 m 1693 590 q 1699 584 1699 590 q 1693 578 1699 578 q 1689 584 1689 578 q 1693 590 1689 590 m 1672 715 l 1714 715 q 1711 709 1714 713 q 1707 703 1708 706 q 1706 688 1707 699 q 1703 664 1704 676 q 1701 641 1701 651 q 1700 626 1700 631 q 1692 635 1696 629 q 1688 646 1688 640 q 1685 658 1686 649 q 1683 677 1683 667 q 1681 697 1682 688 q 1679 708 1679 706 l 1672 715 m 1725 718 q 1745 713 1740 718 q 1756 694 1750 708 q 1765 713 1758 704 q 1783 721 1772 721 l 1783 626 l 1776 626 q 1765 649 1774 638 q 1746 668 1757 661 l 1746 626 q 1734 634 1739 628 q 1729 646 1729 640 q 1727 660 1728 650 q 1726 681 1726 669 q 1725 703 1725 693 q 1725 718 1725 714 m 1185 744 q 1190 738 1190 744 q 1185 731 1190 731 q 1179 738 1179 731 q 1185 744 1179 744 m 924 1031 q 912 1047 917 1036 q 907 1068 907 1057 l 907 1072 q 913 1074 908 1072 q 921 1078 918 1076 l 921 1217 l 879 1267 l 1039 1267 l 1046 1260 l 1046 1258 q 1047 1256 1046 1257 q 1047 1254 1047 1256 l 1046 1253 q 1025 1230 1038 1242 q 997 1217 1013 1218 l 997 1078 q 1022 1075 1004 1078 q 1046 1072 1040 1072 q 1049 1067 1047 1069 q 1051 1064 1051 1065 q 1031 1035 1039 1044 q 997 1022 1022 1025 l 997 851 l 1049 851 l 1049 847 q 1046 840 1049 843 q 1031 826 1038 825 q 1011 821 1025 828 q 1001 813 1008 819 q 990 807 993 807 q 979 806 988 806 q 969 807 971 807 q 955 797 967 806 q 942 785 943 788 l 938 785 l 935 785 q 928 792 932 788 q 924 799 924 797 l 924 1031 m 76 807 q 91 827 81 813 q 113 858 101 842 q 133 890 124 875 q 147 911 143 904 q 153 921 151 917 q 155 929 154 925 q 157 939 156 933 q 161 953 158 944 q 169 969 164 961 q 181 983 175 976 q 192 998 188 990 q 197 1015 197 1006 q 188 1032 197 1022 q 168 1051 179 1042 q 144 1067 157 1060 q 126 1078 132 1075 q 116 1081 124 1079 q 106 1085 108 1083 q 87 1101 100 1088 q 71 1119 74 1115 q 69 1122 69 1121 l 69 1126 q 81 1148 69 1136 q 99 1154 92 1160 l 175 1239 q 196 1247 182 1242 q 210 1267 210 1253 l 286 1267 q 282 1251 285 1263 q 276 1228 279 1240 q 271 1204 274 1215 q 267 1189 268 1193 q 263 1182 264 1186 q 260 1175 261 1178 l 256 1175 l 251 1175 q 244 1185 249 1178 q 238 1196 239 1193 q 236 1197 236 1196 q 235 1199 236 1199 q 235 1200 235 1199 l 232 1203 q 220 1192 228 1200 q 203 1176 213 1185 q 186 1160 194 1168 q 175 1149 178 1151 q 171 1141 174 1146 q 168 1133 168 1136 l 168 1131 l 168 1126 q 203 1101 185 1113 q 235 1076 221 1089 q 258 1046 249 1063 q 267 1006 267 1029 l 267 993 q 249 967 261 986 q 222 928 236 949 q 194 888 207 907 q 175 863 181 869 q 160 846 172 860 q 140 826 147 832 q 133 824 139 826 q 126 821 128 821 q 104 801 113 810 q 76 792 96 792 l 76 807 m 1806 807 q 1819 827 1810 813 q 1840 858 1829 842 q 1860 890 1850 875 q 1874 911 1869 904 q 1882 929 1882 924 q 1888 953 1882 935 q 1897 969 1890 961 q 1909 983 1903 976 q 1919 998 1915 990 q 1924 1015 1924 1006 q 1915 1032 1924 1022 q 1896 1051 1907 1042 q 1873 1067 1885 1060 q 1854 1078 1861 1075 q 1843 1081 1851 1079 q 1833 1085 1835 1083 q 1826 1091 1831 1086 q 1815 1101 1821 1096 q 1803 1112 1808 1107 q 1797 1119 1799 1117 l 1797 1126 q 1808 1148 1797 1136 q 1825 1154 1818 1160 l 1901 1239 q 1922 1247 1908 1242 q 1936 1267 1936 1253 l 2014 1267 q 2009 1251 2013 1263 q 2003 1228 2006 1240 q 1997 1204 2000 1215 q 1993 1189 1994 1193 q 1990 1182 1993 1186 q 1986 1175 1988 1178 l 1982 1175 l 1978 1175 q 1972 1185 1978 1178 q 1964 1196 1965 1193 q 1962 1200 1964 1197 q 1958 1203 1960 1203 q 1947 1192 1954 1200 q 1930 1176 1939 1185 q 1913 1160 1921 1168 q 1901 1149 1904 1151 q 1899 1141 1901 1146 q 1896 1133 1896 1136 l 1896 1131 l 1896 1126 q 1930 1101 1913 1113 q 1961 1076 1947 1089 q 1984 1046 1975 1063 q 1993 1006 1993 1029 l 1993 993 q 1976 967 1989 986 q 1948 928 1963 949 q 1920 888 1933 907 q 1901 863 1907 869 q 1885 846 1899 860 q 1867 826 1872 832 l 1854 821 q 1831 801 1839 810 q 1806 792 1824 792 l 1806 807 m 1094 1225 q 1084 1227 1092 1225 q 1074 1231 1076 1229 l 1072 1233 l 1072 1236 q 1074 1239 1072 1238 l 1076 1242 l 1079 1244 q 1097 1245 1082 1246 q 1115 1244 1113 1244 q 1133 1249 1118 1246 q 1150 1253 1147 1251 q 1162 1254 1153 1253 q 1181 1257 1171 1256 q 1201 1259 1192 1258 q 1213 1260 1210 1260 q 1217 1263 1214 1260 q 1219 1267 1219 1265 l 1222 1267 q 1240 1260 1232 1267 q 1255 1244 1249 1254 q 1265 1225 1261 1235 q 1268 1207 1268 1215 q 1262 1175 1268 1190 q 1247 1145 1256 1160 q 1233 1116 1239 1131 q 1226 1085 1226 1101 l 1226 1072 l 1311 826 l 1296 826 q 1283 849 1293 833 q 1268 869 1272 865 q 1255 879 1267 871 q 1240 890 1243 888 q 1233 898 1238 893 q 1226 903 1228 903 q 1194 985 1207 943 q 1154 1064 1182 1028 l 1154 799 l 1143 799 q 1123 854 1138 831 q 1101 903 1108 878 l 1101 946 q 1101 1001 1101 961 q 1099 1085 1100 1040 q 1096 1170 1097 1131 q 1094 1225 1094 1210 m 688 1225 q 678 1235 685 1228 q 669 1244 672 1242 q 668 1246 668 1244 l 668 1249 q 672 1258 668 1256 q 681 1260 676 1260 q 691 1260 686 1260 q 697 1267 696 1261 l 822 1267 l 850 1225 l 850 939 q 845 931 850 939 q 834 911 840 922 q 820 889 828 900 q 808 869 813 878 q 801 856 806 864 q 794 849 796 849 q 777 844 792 846 q 760 840 763 842 q 746 828 757 840 q 732 814 735 815 l 728 814 l 726 814 q 721 847 722 828 q 717 883 719 865 q 708 917 714 901 q 688 939 701 932 l 688 1225 m 1339 1072 l 1351 1085 q 1356 1100 1353 1086 q 1361 1133 1358 1114 q 1367 1171 1364 1151 q 1372 1203 1371 1190 l 1372 1215 q 1369 1240 1372 1229 q 1360 1267 1367 1250 l 1497 1267 q 1502 1264 1500 1267 q 1506 1260 1504 1261 q 1509 1247 1506 1257 q 1513 1231 1513 1236 q 1517 1208 1514 1226 q 1523 1168 1519 1189 q 1530 1129 1526 1147 q 1533 1107 1533 1111 q 1539 1090 1535 1094 q 1546 1083 1543 1086 q 1551 1078 1549 1081 q 1554 1065 1554 1075 q 1551 1040 1554 1050 q 1547 1015 1547 1031 q 1558 917 1547 965 q 1569 818 1569 868 q 1551 824 1553 818 q 1540 840 1550 829 q 1526 855 1538 843 q 1513 869 1515 867 q 1510 878 1513 871 q 1506 890 1507 886 q 1501 909 1504 894 q 1494 942 1499 924 q 1488 974 1490 960 q 1483 993 1485 989 q 1481 1011 1483 1000 l 1478 1022 l 1415 1022 q 1402 992 1407 1022 q 1392 926 1397 963 q 1382 857 1388 889 q 1365 821 1376 825 q 1359 837 1363 822 q 1352 870 1356 851 q 1345 906 1349 889 q 1339 932 1342 924 l 1339 1072 m 338 1217 q 330 1219 336 1217 q 322 1225 324 1222 q 317 1238 319 1228 q 314 1253 314 1249 q 331 1251 319 1250 q 343 1263 343 1251 l 489 1263 l 522 1225 l 522 1107 l 489 1072 l 467 1072 q 460 1067 467 1072 q 444 1056 453 1063 q 427 1042 436 1050 q 413 1031 418 1035 q 405 1022 410 1028 q 399 1015 400 1017 q 397 1000 399 1011 q 394 977 396 989 q 392 954 393 965 q 390 939 390 943 q 386 915 390 931 q 375 883 382 899 q 358 856 368 867 q 338 844 349 844 l 338 1217 m 1672 911 q 1647 1081 1668 1003 q 1596 1244 1626 1160 l 1596 1249 l 1624 1249 q 1631 1260 1626 1253 q 1640 1267 1635 1267 q 1659 1246 1654 1267 q 1667 1200 1664 1225 q 1676 1154 1671 1175 q 1693 1133 1681 1133 q 1707 1140 1704 1133 l 1707 1196 q 1711 1213 1708 1200 q 1714 1231 1714 1226 q 1728 1240 1717 1239 q 1742 1244 1739 1242 q 1753 1255 1744 1246 q 1764 1267 1761 1264 q 1774 1269 1765 1268 q 1786 1271 1783 1271 q 1769 1225 1786 1247 q 1759 1182 1767 1213 q 1744 1117 1751 1151 q 1729 1051 1736 1082 q 1721 1008 1722 1021 q 1718 977 1719 1000 q 1716 928 1717 954 q 1715 880 1715 903 q 1714 849 1714 857 l 1711 847 l 1708 847 q 1707 849 1707 847 q 1703 851 1706 849 q 1700 856 1700 853 q 1685 883 1696 863 q 1672 911 1675 904 m 579 925 q 578 969 579 938 q 576 1037 576 1001 q 574 1104 575 1072 q 572 1149 572 1136 q 572 1163 572 1153 q 569 1183 571 1172 q 567 1203 568 1193 q 565 1217 565 1213 q 563 1228 565 1219 q 560 1239 560 1236 q 558 1243 558 1240 q 557 1249 557 1244 q 558 1253 557 1250 q 560 1260 560 1257 q 565 1255 560 1257 q 572 1253 569 1253 l 575 1251 l 578 1251 q 579 1253 579 1251 q 583 1257 581 1254 q 586 1263 586 1260 l 628 1263 l 628 853 q 615 858 619 853 q 607 870 610 863 q 603 885 604 878 q 599 897 601 893 q 590 912 599 901 q 579 925 582 922 m 746 903 q 764 911 756 903 q 779 931 772 919 q 792 953 786 942 q 803 974 797 965 l 803 1163 q 792 1194 796 1176 q 789 1225 789 1211 l 746 1225 l 746 903 m 1415 1085 q 1435 1077 1419 1082 q 1456 1072 1451 1072 q 1463 1074 1458 1072 q 1471 1078 1468 1075 l 1471 1081 q 1465 1115 1471 1094 q 1456 1149 1458 1135 q 1453 1166 1456 1153 q 1449 1194 1451 1179 q 1445 1221 1447 1208 q 1443 1239 1443 1233 l 1436 1231 q 1432 1215 1435 1231 q 1426 1176 1429 1199 q 1420 1131 1424 1154 q 1415 1092 1417 1107 l 1415 1088 l 1415 1085 m 399 1088 q 417 1092 406 1088 q 439 1103 428 1096 q 458 1117 450 1110 q 467 1133 467 1125 l 467 1217 l 399 1217 l 399 1088 m 1150 1117 q 1153 1103 1150 1107 q 1168 1099 1157 1099 q 1183 1111 1174 1099 q 1203 1140 1193 1124 q 1220 1172 1213 1157 q 1228 1193 1228 1188 l 1226 1196 l 1219 1203 q 1218 1214 1219 1206 q 1217 1225 1217 1222 l 1157 1225 q 1156 1206 1157 1219 q 1153 1179 1154 1193 q 1151 1152 1153 1165 q 1150 1133 1150 1139 l 1150 1117 m 921 1267 q 925 1260 925 1267 q 921 1253 925 1253 q 915 1260 915 1253 q 921 1267 915 1267 m 1388 1267 q 1393 1260 1393 1267 q 1388 1253 1393 1253 q 1381 1260 1381 1253 q 1388 1267 1381 1267 m 669 1272 q 674 1266 674 1272 q 669 1260 674 1260 q 664 1266 664 1260 q 669 1272 664 1272 z "},"!":{"ha":338,"x_min":69,"x_max":268,"o":"m 247 1386 l 247 354 l 94 354 l 94 1386 l 247 1386 m 139 6 q 133 8 136 7 q 126 10 129 8 q 88 44 101 24 q 71 93 75 65 q 70 103 71 99 q 69 114 69 108 q 70 135 69 125 q 72 157 71 146 l 72 164 q 76 177 74 167 q 79 193 78 188 q 87 219 82 207 q 99 243 92 231 q 107 258 104 254 q 110 262 108 258 q 113 265 111 265 l 113 267 q 128 286 119 276 q 150 299 138 296 q 167 301 161 301 q 193 297 181 301 q 217 278 208 290 q 233 253 226 265 l 233 251 q 235 249 233 250 q 238 247 236 249 l 239 243 q 244 232 240 240 q 249 221 247 224 q 261 181 257 203 l 263 178 q 264 172 263 175 q 265 165 264 168 q 268 144 268 156 q 268 124 268 133 q 267 93 268 108 q 261 63 265 78 q 260 59 261 60 q 258 56 258 58 q 251 40 256 49 q 239 26 246 32 q 231 22 235 24 q 222 17 226 19 q 211 10 217 13 q 199 6 206 8 l 197 6 q 167 1 182 1 l 157 1 q 151 3 154 3 q 143 4 147 3 q 139 6 142 6 z "},"\"":{"ha":547,"x_min":68,"x_max":478,"o":"m 106 1054 q 96 1063 97 1060 q 72 1109 76 1085 q 74 1161 68 1133 q 77 1170 76 1165 q 81 1181 78 1175 q 90 1200 85 1190 q 99 1219 94 1210 q 101 1226 101 1222 q 110 1237 104 1228 q 119 1250 117 1246 q 135 1271 126 1261 q 156 1290 144 1281 q 168 1301 164 1299 q 172 1303 169 1300 q 176 1306 175 1306 l 176 1307 q 199 1319 186 1314 q 224 1322 211 1325 q 240 1319 232 1322 q 253 1313 247 1317 q 263 1306 258 1310 q 278 1279 274 1294 q 285 1249 282 1264 l 285 1247 q 283 1244 285 1246 q 286 1243 285 1244 l 286 1238 l 286 1214 q 283 1172 288 1196 l 283 1168 q 283 1163 282 1165 q 282 1156 282 1160 q 276 1135 279 1146 q 269 1117 272 1125 q 256 1088 263 1101 q 240 1063 250 1074 q 238 1060 239 1060 q 235 1057 236 1060 q 206 1036 222 1043 q 196 1035 200 1035 q 188 1033 192 1036 q 174 1031 181 1031 q 161 1032 168 1032 l 160 1032 q 129 1040 146 1033 q 125 1042 128 1040 q 121 1043 122 1043 q 115 1047 118 1046 q 108 1051 113 1049 q 106 1054 108 1054 m 296 924 q 286 932 288 929 q 263 978 267 954 q 264 1031 258 1003 q 267 1040 267 1035 q 271 1050 268 1044 q 280 1069 275 1060 q 289 1089 285 1079 q 292 1096 292 1092 q 301 1106 294 1097 q 310 1119 307 1115 q 326 1140 317 1131 q 346 1160 335 1150 q 358 1171 354 1168 q 363 1172 360 1169 q 367 1175 365 1175 l 367 1176 q 389 1189 376 1183 q 414 1192 401 1194 q 431 1189 422 1192 q 443 1183 438 1186 q 453 1175 449 1179 q 468 1149 464 1164 q 475 1118 472 1133 l 475 1117 q 474 1114 475 1115 q 476 1113 475 1114 l 476 1107 l 476 1083 q 474 1042 478 1065 l 474 1038 q 474 1032 472 1035 q 472 1025 472 1029 q 466 1005 469 1015 q 460 986 463 994 q 447 957 453 971 q 431 932 440 943 q 428 929 429 929 q 425 926 426 929 q 396 906 413 913 q 386 905 390 904 q 378 903 382 906 q 365 901 371 900 q 351 901 358 901 l 350 901 q 319 910 336 903 q 315 911 318 910 q 311 913 313 913 q 306 917 308 915 q 299 921 303 918 q 296 924 299 924 z "},"a":{"ha":1569,"x_min":56,"x_max":1514,"o":"m 786 1108 l 1514 1 l 1371 1 l 1044 497 l 525 497 l 197 1 l 56 1 l 786 1108 m 961 625 l 786 897 l 608 625 l 961 625 z "},"b":{"ha":779,"x_min":36,"x_max":731,"o":"m 36 114 l 332 114 q 422 124 375 114 q 506 158 468 135 q 569 217 544 181 q 593 304 593 253 q 563 397 593 361 q 485 455 533 433 q 375 485 436 476 q 252 496 314 493 q 133 497 190 499 q 36 497 76 496 l 36 624 q 131 624 75 625 q 249 626 188 624 q 372 635 311 628 q 483 663 433 643 q 563 718 532 683 q 593 808 593 753 q 569 897 593 860 q 508 958 546 935 q 424 992 471 981 q 332 1003 378 1003 l 36 1003 l 36 1117 l 442 1117 q 557 1092 504 1117 q 649 1028 610 1068 q 709 933 688 988 q 731 818 731 878 q 715 743 731 778 q 676 676 700 708 q 624 616 653 644 q 565 561 594 588 l 565 556 q 624 501 594 529 q 676 441 653 472 q 715 374 700 410 q 731 299 731 339 q 708 185 731 239 q 648 90 686 131 q 557 24 610 49 q 442 0 504 0 l 36 0 l 36 114 z "},"c":{"ha":1236,"x_min":56,"x_max":1215,"o":"m 56 553 q 103 773 56 671 q 230 950 150 875 q 415 1068 310 1025 q 636 1111 521 1111 q 810 1086 726 1111 q 964 1015 893 1061 q 1091 902 1035 968 q 1183 753 1147 836 q 1194 720 1189 739 q 1204 682 1200 701 q 1211 643 1208 663 q 1214 610 1214 624 l 1088 610 q 1085 617 1086 613 q 1082 626 1082 625 q 1018 776 1058 707 q 921 895 978 844 q 792 974 864 946 q 636 1003 721 1003 q 463 968 544 1003 q 319 873 381 933 q 222 731 258 813 q 186 556 186 650 q 222 381 186 463 q 319 238 258 299 q 463 143 381 178 q 636 108 544 108 q 783 142 711 108 q 916 230 856 175 q 1020 356 976 285 q 1082 500 1064 426 l 1215 500 q 1207 447 1215 479 q 1187 381 1199 414 q 1163 317 1175 347 q 1142 269 1150 288 q 1048 152 1104 203 q 925 67 992 101 q 784 14 858 32 q 636 -4 710 -4 q 415 38 521 -4 q 230 156 310 81 q 103 332 150 231 q 56 553 56 433 z "},"d":{"ha":836,"x_min":56,"x_max":781,"o":"m 56 114 q 258 146 153 114 q 449 237 363 178 q 592 378 536 296 q 649 563 649 461 q 622 688 649 629 q 551 795 596 746 q 447 883 506 844 q 322 949 388 922 q 187 990 256 975 q 56 1004 118 1004 l 56 1114 q 226 1097 139 1114 q 393 1048 313 1081 q 544 967 474 1015 q 667 858 615 919 q 750 720 719 796 q 781 557 781 644 q 750 393 781 468 q 667 256 719 318 q 544 145 615 193 q 393 65 474 97 q 226 15 313 32 q 56 -1 139 -1 l 56 114 l 56 114 z "},"e":{"ha":694,"x_min":31,"x_max":658,"o":"m 658 114 l 658 0 l 31 0 l 31 114 l 658 114 m 658 615 l 658 501 l 31 501 l 31 615 l 658 615 m 658 1117 l 658 1003 l 31 1003 l 31 1117 l 658 1117 z "},"f":{"ha":694,"x_min":31,"x_max":658,"o":"m 658 615 l 658 501 l 31 501 l 31 615 l 658 615 m 658 1117 l 658 1003 l 31 1003 l 31 1117 l 658 1117 z "},"g":{"ha":1236,"x_min":56,"x_max":1214,"o":"m 56 554 q 101 778 56 676 q 225 954 146 881 q 410 1069 304 1028 q 636 1110 515 1110 q 839 1072 740 1110 q 1017 969 938 1035 q 1149 812 1096 903 q 1214 613 1201 721 l 1083 613 l 1076 618 q 1018 766 1058 696 q 920 889 978 836 q 790 972 863 942 q 636 1003 717 1003 q 465 967 546 1003 q 322 872 383 932 q 223 731 260 811 q 186 561 186 651 q 222 388 186 469 q 319 244 258 306 q 463 147 381 183 q 636 111 544 111 q 783 146 714 111 q 909 236 851 181 q 1010 362 967 292 q 1079 503 1053 432 l 1208 503 l 1203 -1 l 1068 -1 l 1068 171 q 867 43 971 88 q 636 -1 764 -1 q 410 40 515 -1 q 225 154 304 81 q 101 330 146 228 q 56 554 56 432 z "},"h":{"ha":699,"x_min":-153,"x_max":643,"o":"m -153 497 l -153 614 l 519 614 l 519 1111 l 643 1111 l 643 0 l 519 0 l 519 497 l -153 497 z "},"i":{"ha":235,"x_min":54,"x_max":175,"o":"m 175 1110 l 175 0 l 54 0 l 54 1110 l 175 1110 z "},"j":{"ha":683,"x_min":56,"x_max":628,"o":"m 628 1113 l 628 486 q 621 434 628 461 q 606 385 614 407 q 517 226 572 297 q 390 106 461 156 q 234 28 319 56 q 56 0 149 0 l 56 108 q 68 113 56 110 q 97 118 81 115 q 130 123 114 121 q 151 126 146 125 q 283 187 219 147 q 394 281 346 226 q 471 402 442 335 q 500 544 500 469 l 500 1113 l 628 1113 z "},"k":{"ha":636,"x_min":56,"x_max":581,"o":"m 56 475 l 56 653 l 425 1111 l 581 1111 l 125 565 l 581 0 l 454 0 l 56 475 z "},"l":{"ha":694,"x_min":31,"x_max":658,"o":"m 658 114 l 658 0 l 31 0 l 31 114 l 658 114 m 150 1111 l 150 6 l 31 6 l 31 1111 l 150 1111 z "},"m":{"ha":1161,"x_min":56,"x_max":1106,"o":"m 963 882 l 603 444 l 599 444 l 596 444 q 587 453 593 447 q 578 463 581 460 l 56 1104 l 61 1110 l 199 1110 q 210 1106 204 1110 q 218 1099 215 1101 l 578 643 q 587 633 581 640 q 596 625 593 626 l 599 625 l 603 625 l 606 628 q 608 631 608 631 l 972 1110 l 1106 1110 l 1106 0 l 983 0 l 983 900 l 963 882 z "},"n":{"ha":1163,"x_min":56,"x_max":1107,"o":"m 56 1111 l 211 1111 l 985 161 l 985 1111 l 1107 1111 l 1107 -1 l 985 -1 l 56 1111 z "},"o":{"ha":1268,"x_min":42,"x_max":1219,"o":"m 42 558 q 90 783 42 679 q 219 963 138 886 q 407 1082 300 1039 q 631 1125 514 1125 q 855 1082 749 1125 q 1042 963 961 1039 q 1172 783 1124 886 q 1219 558 1219 679 q 1172 335 1219 438 q 1042 156 1124 232 q 855 36 961 79 q 631 -7 749 -7 q 407 36 514 -7 q 219 156 300 79 q 90 335 138 232 q 42 558 42 438 m 175 563 q 211 385 175 468 q 310 240 247 301 q 455 144 372 179 q 631 108 538 108 q 807 144 724 108 q 953 240 890 179 q 1051 385 1015 301 q 1088 563 1088 468 q 1051 740 1088 657 q 953 883 1015 822 q 807 980 890 944 q 631 1015 724 1015 q 455 980 538 1015 q 310 883 372 944 q 211 740 247 822 q 175 563 175 657 z "},"p":{"ha":767,"x_min":47,"x_max":742,"o":"m 53 608 q 103 608 67 608 q 181 608 140 608 q 257 609 221 608 q 308 610 293 610 q 413 618 360 611 q 508 646 465 625 q 578 705 551 667 q 604 808 604 743 q 581 897 604 860 q 519 958 557 935 q 435 992 482 981 q 343 1003 389 1003 l 47 1003 l 47 1117 l 453 1117 q 568 1092 515 1117 q 660 1028 621 1068 q 720 933 699 988 q 742 818 742 878 q 721 703 742 758 q 663 604 700 647 q 573 535 625 561 q 458 510 521 510 l 178 510 l 178 0 l 53 0 l 53 608 l 53 608 z "},"q":{"ha":1271,"x_min":56,"x_max":1215,"o":"m 56 556 q 101 780 56 678 q 225 956 146 882 q 410 1070 304 1029 q 636 1111 515 1111 q 861 1070 756 1111 q 1045 956 967 1029 q 1169 780 1124 882 q 1215 556 1215 678 q 1167 328 1215 428 q 1031 136 1118 228 l 1031 131 q 1044 108 1035 124 q 1065 75 1054 93 q 1087 41 1076 57 q 1101 18 1097 25 q 1105 13 1103 17 q 1107 7 1107 8 l 964 7 l 922 65 q 783 15 851 31 q 636 0 715 0 q 410 41 515 0 q 225 156 304 82 q 101 331 146 229 q 56 556 56 433 m 186 563 q 222 389 186 471 q 319 246 258 307 q 463 149 381 185 q 636 113 544 113 q 684 117 649 113 q 757 131 719 122 q 824 151 794 139 q 853 175 853 163 q 851 178 853 175 l 851 179 l 781 292 l 922 292 l 953 249 q 1010 313 986 275 q 1051 392 1035 350 q 1076 477 1068 433 q 1083 563 1083 521 q 1047 733 1083 653 q 949 873 1011 813 q 806 968 888 933 q 636 1003 725 1003 q 465 968 546 1003 q 322 873 383 933 q 223 733 260 813 q 186 563 186 653 z "},"r":{"ha":925,"x_min":18,"x_max":889,"o":"m 356 608 l 350 621 q 370 631 358 626 q 395 640 382 636 q 421 647 408 643 q 440 653 433 650 q 533 711 497 672 q 568 813 568 750 q 542 908 568 864 q 464 972 515 953 q 442 980 456 975 q 415 989 428 985 q 392 996 401 993 q 381 999 382 999 l 18 999 l 18 1111 l 386 1111 q 395 1110 388 1111 q 413 1106 403 1108 q 432 1102 422 1104 q 447 1099 442 1100 q 626 1000 557 1071 q 694 811 694 929 q 652 665 694 725 q 536 561 610 606 l 536 549 l 889 6 l 746 6 l 356 608 z "},"s":{"ha":736,"x_min":47,"x_max":689,"o":"m 65 236 q 135 191 100 213 q 208 152 171 169 q 284 124 244 135 q 365 114 324 114 q 442 128 407 114 q 502 169 476 143 q 542 229 528 194 q 556 304 556 264 l 556 350 q 504 426 542 397 q 428 476 467 454 q 416 483 425 479 q 404 489 407 488 q 260 546 326 519 q 147 610 194 572 q 74 706 100 649 q 47 858 47 764 q 70 949 47 906 q 128 1028 93 993 q 208 1088 164 1064 q 296 1124 253 1113 l 371 1124 q 497 1115 438 1124 q 615 1069 557 1106 q 631 1056 621 1065 q 640 1044 640 1047 l 640 918 l 633 918 q 513 976 574 949 q 382 1003 451 1003 q 309 992 344 1003 q 247 961 274 982 q 203 909 219 940 q 186 836 186 878 q 224 727 186 767 q 317 660 261 688 q 438 611 372 633 q 558 553 503 589 q 651 458 614 517 q 689 303 689 400 q 663 169 689 228 q 590 69 636 110 q 481 7 544 28 q 344 -14 418 -14 q 219 7 278 -14 q 103 60 161 28 q 80 74 94 65 q 65 85 65 83 l 65 236 l 65 236 z "},"t":{"ha":1014,"x_min":31,"x_max":985,"o":"m 31 999 l 31 1117 l 985 1117 l 985 999 l 582 999 l 582 0 l 456 0 l 456 999 l 31 999 z "},"u":{"ha":1026,"x_min":47,"x_max":972,"o":"m 160 1111 l 160 429 q 163 413 160 425 q 168 387 165 401 q 174 358 171 372 q 181 338 178 344 q 231 244 197 286 q 308 172 264 201 q 402 125 351 142 q 507 108 453 108 q 610 122 560 108 q 703 163 660 136 q 780 230 746 190 q 833 319 814 269 q 840 336 836 325 q 847 358 843 347 q 852 376 850 368 q 854 386 854 385 l 854 1111 l 972 1111 l 972 375 q 949 276 972 325 q 899 186 926 226 q 724 36 826 86 q 497 -14 621 -14 q 327 19 408 -14 q 183 110 246 51 q 84 247 121 168 q 47 417 47 325 l 47 1111 l 160 1111 z "},"v":{"ha":1568,"x_min":56,"x_max":1513,"o":"m 203 1111 l 775 238 q 777 234 775 236 q 781 231 779 232 l 783 231 l 786 231 l 793 238 q 817 276 800 249 q 855 334 835 303 q 893 392 875 365 q 919 431 911 419 q 928 442 921 433 q 936 454 935 451 l 1364 1111 l 1513 1111 l 783 3 l 56 1111 l 203 1111 z "},"w":{"ha":2299,"x_min":56,"x_max":2243,"o":"m 203 1110 l 775 238 q 779 231 775 235 l 783 231 l 786 231 q 789 234 786 232 q 792 238 792 236 q 816 275 799 247 q 853 333 833 303 q 892 392 874 364 q 918 431 910 419 q 926 442 919 433 q 936 453 933 451 l 1140 774 q 1144 777 1142 775 q 1147 779 1146 779 l 1149 779 q 1151 781 1149 779 l 1153 779 l 1310 538 l 1314 532 l 1508 238 q 1511 234 1508 236 q 1514 231 1514 232 l 1517 231 l 1519 231 q 1523 234 1521 232 q 1525 238 1525 236 l 2097 1110 l 2243 1110 l 1517 3 l 1149 561 l 783 3 l 56 1110 l 203 1110 z "},"x":{"ha":1165,"x_min":56,"x_max":1110,"o":"m 511 564 l 56 1110 l 211 1110 l 575 663 q 581 657 575 657 q 583 656 581 657 l 586 657 l 589 660 q 592 663 592 663 l 956 1110 l 1110 1110 l 654 564 l 1108 0 l 983 0 l 603 454 q 594 463 601 457 q 586 472 588 469 l 583 472 l 581 472 l 563 454 l 182 0 l 57 0 l 511 564 z "},"y":{"ha":1174,"x_min":56,"x_max":1118,"o":"m 513 564 l 56 1111 l 213 1111 l 578 660 q 585 656 582 656 l 586 653 l 589 656 q 596 660 592 656 l 961 1111 l 1118 1111 l 653 554 l 653 0 l 525 0 l 525 547 l 513 564 z "},"z":{"ha":1165,"x_min":56,"x_max":1110,"o":"m 867 1003 l 61 1003 l 61 1110 l 1110 1110 l 289 125 l 283 111 l 1110 111 l 1110 0 l 56 0 l 867 1003 z "}}}
